<mxfile host="Electron" agent="Mozilla/5.0 (X11; Linux x86_64) AppleWebKit/537.36 (KHTML, like Gecko) draw.io/26.0.9 Chrome/128.0.6613.186 Electron/32.2.5 Safari/537.36" version="26.0.9">
  <diagram name="Page-1" id="7K78jVP3NQN_4QzfwogI">
    <mxGraphModel dx="2261" dy="838" grid="1" gridSize="10" guides="1" tooltips="1" connect="1" arrows="1" fold="1" page="1" pageScale="1" pageWidth="827" pageHeight="1169" math="0" shadow="0">
      <root>
        <mxCell id="0" />
        <mxCell id="1" parent="0" />
        <mxCell id="v3sYc3gb-yKhHvJauMw6-1" value="" style="text;html=1;strokeColor=none;fillColor=#C2C2C2;align=left;verticalAlign=middle;whiteSpace=wrap;rounded=0;shadow=0;glass=0;dashed=1;fillStyle=auto;fontFamily=Times New Roman;fontSize=12;fillOpacity=50;gradientColor=none;" vertex="1" parent="1">
          <mxGeometry x="-721" y="1268" width="450" height="12" as="geometry" />
        </mxCell>
        <mxCell id="v3sYc3gb-yKhHvJauMw6-2" value="" style="text;html=1;strokeColor=none;fillColor=#B5B5B5;align=center;verticalAlign=middle;whiteSpace=wrap;rounded=0;shadow=0;glass=0;dashed=1;fillStyle=auto;fontFamily=Times New Roman;fontSize=12;fillOpacity=50;" vertex="1" parent="1">
          <mxGeometry x="-720" y="1514" width="450" height="10" as="geometry" />
        </mxCell>
        <mxCell id="v3sYc3gb-yKhHvJauMw6-3" value="" style="text;html=1;strokeColor=none;fillColor=#C2C2C2;align=left;verticalAlign=middle;whiteSpace=wrap;rounded=0;shadow=0;glass=0;dashed=1;fillStyle=auto;fontFamily=Times New Roman;fontSize=12;fillOpacity=50;" vertex="1" parent="1">
          <mxGeometry x="-719" y="1344" width="450" height="12" as="geometry" />
        </mxCell>
        <mxCell id="v3sYc3gb-yKhHvJauMw6-4" value="" style="text;html=1;strokeColor=none;fillColor=#e1d5e7;align=left;verticalAlign=middle;whiteSpace=wrap;rounded=0;shadow=0;glass=0;dashed=1;fillStyle=auto;fontFamily=Times New Roman;fontSize=12;fillOpacity=50;" vertex="1" parent="1">
          <mxGeometry x="-720" y="1207" width="450" height="23" as="geometry" />
        </mxCell>
        <mxCell id="v3sYc3gb-yKhHvJauMw6-5" value="&lt;font face=&quot;Inconsolata LGC&quot; style=&quot;border-color: var(--border-color); font-size: 12px;&quot;&gt;&lt;b style=&quot;border-color: var(--border-color);&quot;&gt;&amp;nbsp;bool&amp;nbsp;&lt;/b&gt;&lt;b&gt;&lt;font style=&quot;border-color: var(--border-color);&quot; color=&quot;#0000cc&quot;&gt;cJSON_addItemToObject&lt;/font&gt;(cJSON *object, char *string,&amp;nbsp;&lt;/b&gt;&lt;/font&gt;&lt;div&gt;&lt;font face=&quot;Inconsolata LGC&quot; style=&quot;border-color: var(--border-color); font-size: 12px;&quot;&gt;&lt;b style=&quot;border-color: var(--border-color);&quot;&gt;&lt;span style=&quot;border-color: var(--border-color); background-color: initial;&quot;&gt;&lt;span style=&quot;white-space: pre;&quot;&gt;&#x9;&lt;/span&gt;&amp;nbsp; &amp;nbsp; &amp;nbsp; &amp;nbsp; &amp;nbsp; &amp;nbsp; &amp;nbsp; &amp;nbsp; &amp;nbsp; &amp;nbsp; cJSON *item,&lt;/span&gt;&lt;/b&gt;&lt;b&gt;&lt;span style=&quot;border-color: var(--border-color); background-color: initial;&quot;&gt;&amp;nbsp; &amp;nbsp;bool key)&lt;/span&gt;&lt;span style=&quot;border-color: var(--border-color); background-color: initial;&quot;&gt;{&lt;br&gt;&lt;/span&gt;&amp;nbsp; &amp;nbsp; &amp;nbsp;item-&amp;gt;string =&lt;font color=&quot;#0000cc&quot;&gt;&amp;nbsp;&lt;/font&gt;&lt;font style=&quot;color: rgb(0, 0, 204);&quot;&gt;assignStringToItem&lt;/font&gt;(string, key&lt;/b&gt;&lt;b&gt;);&lt;br style=&quot;border-color: var(--border-color);&quot;&gt;&lt;font style=&quot;border-color: var(--border-color);&quot;&gt;&amp;nbsp; &amp;nbsp; &amp;nbsp;return&amp;nbsp;&lt;/font&gt;&lt;/b&gt;&lt;b style=&quot;&quot;&gt;&lt;span style=&quot;border-color: var(--border-color); background-color: initial;&quot;&gt;&lt;font style=&quot;color: rgb(0, 0, 204);&quot;&gt;addItemToArray&lt;/font&gt;&lt;/span&gt;&lt;/b&gt;&lt;b&gt;(object, item);&lt;br style=&quot;border-color: var(--border-color);&quot;&gt;&lt;font style=&quot;border-color: var(--border-color);&quot;&gt;&amp;nbsp;}&lt;/font&gt;&lt;/b&gt;&lt;/font&gt;&lt;/div&gt;&lt;div&gt;&lt;font face=&quot;Inconsolata LGC&quot;&gt;&lt;b&gt;&amp;nbsp;&lt;/b&gt;&lt;b style=&quot;&quot;&gt;&lt;span style=&quot;border-color: var(--border-color); background-color: initial;&quot;&gt;bool&amp;nbsp;&lt;font style=&quot;color: rgb(0, 0, 204);&quot;&gt;addItemToArray&lt;/font&gt;(cJSON *array, cJSON *item){&lt;br&gt;&lt;span style=&quot;background-color: initial;&quot;&gt;&amp;nbsp; &amp;nbsp; &amp;nbsp;array-&amp;gt;child = item;&lt;br&gt;&lt;/span&gt;&lt;span style=&quot;background-color: initial;&quot;&gt;&amp;nbsp; &amp;nbsp; &amp;nbsp;return true;&lt;/span&gt;&lt;span style=&quot;background-color: initial;&quot;&gt;&lt;br&gt;&lt;/span&gt;&lt;/span&gt;&amp;nbsp;}&lt;/b&gt;&lt;b&gt;&lt;br&gt;&lt;/b&gt;&lt;/font&gt;&lt;div&gt;&lt;font face=&quot;Inconsolata LGC&quot;&gt;&lt;b&gt;&lt;span style=&quot;border-color: var(--border-color); background-color: initial;&quot;&gt;&amp;nbsp;char*&amp;nbsp;&lt;font style=&quot;color: rgb(0, 0, 204);&quot;&gt;assignStringToItem&lt;/font&gt;&lt;/span&gt;&lt;span style=&quot;border-color: var(--border-color); background-color: initial;&quot;&gt;(char *string, bool key)&lt;/span&gt;&lt;span style=&quot;border-color: var(--border-color); background-color: initial;&quot;&gt;{&lt;/span&gt;&lt;br&gt;&lt;font style=&quot;border-color: var(--border-color);&quot;&gt;&lt;span style=&quot;border-color: var(--border-color);&quot; class=&quot;Apple-converted-space&quot;&gt;&amp;nbsp; &amp;nbsp; &amp;nbsp;&lt;/span&gt;&lt;font style=&quot;border-color: var(--border-color);&quot;&gt;if&lt;/font&gt;(key)&lt;/font&gt;&lt;br&gt;&lt;font style=&quot;border-color: var(--border-color);&quot;&gt;&lt;span style=&quot;border-color: var(--border-color);&quot; class=&quot;Apple-converted-space&quot;&gt;&amp;nbsp; &amp;nbsp; &amp;nbsp;&lt;/span&gt;&lt;/font&gt;&lt;/b&gt;&lt;b style=&quot;border-color: var(--border-color);&quot;&gt;&amp;nbsp; &amp;nbsp; return&lt;/b&gt;&lt;b&gt;&amp;nbsp;&lt;/b&gt;&lt;b style=&quot;border-color: var(--border-color);&quot;&gt;(char*)&lt;/b&gt;&lt;b&gt;&lt;font style=&quot;border-color: var(--border-color);&quot;&gt;&lt;font style=&quot;color: rgb(0, 0, 204);&quot;&gt;cast_away_const&lt;/font&gt;(string);&lt;/font&gt;&lt;br&gt;&lt;font style=&quot;border-color: var(--border-color);&quot;&gt;&lt;span style=&quot;border-color: var(--border-color);&quot; class=&quot;Apple-converted-space&quot;&gt;&amp;nbsp; &amp;nbsp; &amp;nbsp;&lt;/span&gt;&lt;font style=&quot;border-color: var(--border-color);&quot;&gt;else&lt;/font&gt;&amp;nbsp;&lt;/font&gt;&lt;br&gt;&lt;font style=&quot;border-color: var(--border-color);&quot;&gt;&lt;span style=&quot;border-color: var(--border-color);&quot; class=&quot;Apple-converted-space&quot;&gt;&amp;nbsp; &amp;nbsp;&amp;nbsp;&lt;/span&gt;&lt;/font&gt;&lt;/b&gt;&lt;b style=&quot;border-color: var(--border-color);&quot;&gt;&amp;nbsp; &amp;nbsp; &amp;nbsp;return&lt;/b&gt;&lt;b&gt;&amp;nbsp;&lt;/b&gt;&lt;b style=&quot;border-color: var(--border-color);&quot;&gt;(char*)&lt;/b&gt;&lt;b&gt;&lt;font style=&quot;border-color: var(--border-color);&quot;&gt;&lt;font style=&quot;color: rgb(0, 0, 204);&quot;&gt;strdup&lt;/font&gt;&lt;span style=&quot;background-color: initial;&quot;&gt;(string, hooks);&lt;/span&gt;&lt;/font&gt;&lt;br&gt;&lt;/b&gt;&lt;font style=&quot;border-color: var(--border-color);&quot;&gt;&lt;b&gt;&amp;nbsp;}&lt;/b&gt;&lt;/font&gt;&lt;/font&gt;&lt;div&gt;&lt;div&gt;&lt;font face=&quot;Inconsolata LGC&quot; style=&quot;border-color: var(--border-color); font-size: 12px;&quot;&gt;&lt;span style=&quot;background-color: initial; border-color: var(--border-color);&quot;&gt;&lt;b&gt;&amp;nbsp;char*&amp;nbsp;&lt;font style=&quot;color: rgb(0, 0, 204);&quot;&gt;strdup&lt;/font&gt;(char* str, internal_hooks *hook){&lt;/b&gt;&lt;/span&gt;&lt;br&gt;&lt;/font&gt;&lt;/div&gt;&lt;div&gt;&lt;font face=&quot;Inconsolata LGC&quot; style=&quot;border-color: var(--border-color); font-size: 12px;&quot;&gt;&lt;b&gt;&lt;span style=&quot;border-color: var(--border-color); background-color: initial;&quot;&gt;&amp;nbsp; &amp;nbsp; len = strlen(str) + 1;&lt;/span&gt;&lt;/b&gt;&lt;/font&gt;&lt;/div&gt;&lt;div&gt;&lt;font face=&quot;Inconsolata LGC&quot; style=&quot;border-color: var(--border-color); font-size: 12px;&quot;&gt;&lt;b&gt;&lt;span style=&quot;border-color: var(--border-color); background-color: initial;&quot;&gt;&amp;nbsp; &amp;nbsp; char *copy = hooks-&amp;gt;allocate(len);&lt;/span&gt;&lt;/b&gt;&lt;/font&gt;&lt;/div&gt;&lt;div&gt;&lt;font face=&quot;Inconsolata LGC&quot; style=&quot;border-color: var(--border-color); font-size: 12px;&quot;&gt;&lt;b&gt;&lt;span style=&quot;border-color: var(--border-color); background-color: initial;&quot;&gt;&amp;nbsp; &amp;nbsp; memcpy(copy, str, len);&lt;/span&gt;&lt;/b&gt;&lt;/font&gt;&lt;/div&gt;&lt;div&gt;&lt;font face=&quot;Inconsolata LGC&quot; style=&quot;border-color: var(--border-color); font-size: 12px;&quot;&gt;&lt;b&gt;&lt;span style=&quot;border-color: var(--border-color); background-color: initial;&quot;&gt;&amp;nbsp; &amp;nbsp; return copy;&lt;br&gt;&lt;/span&gt;&lt;span style=&quot;border-color: var(--border-color); background-color: initial;&quot;&gt;&amp;nbsp;}&lt;/span&gt;&lt;/b&gt;&lt;b&gt;&lt;br&gt;&lt;/b&gt;&lt;/font&gt;&lt;div&gt;&lt;font face=&quot;Inconsolata LGC&quot; style=&quot;border-color: var(--border-color); font-size: 12px;&quot;&gt;&lt;b style=&quot;&quot;&gt;&amp;nbsp;void*&amp;nbsp;&lt;font style=&quot;color: rgb(0, 0, 204);&quot;&gt;cast_away_const&lt;/font&gt;(char* string){&lt;/b&gt;&lt;/font&gt;&lt;/div&gt;&lt;div&gt;&lt;font face=&quot;Inconsolata LGC&quot; style=&quot;border-color: var(--border-color); font-size: 12px;&quot;&gt;&lt;b style=&quot;&quot;&gt;&amp;nbsp; &amp;nbsp; return (void *)string;&amp;nbsp;&lt;/b&gt;&lt;/font&gt;&lt;/div&gt;&lt;div&gt;&lt;font style=&quot;border-color: var(--border-color); font-size: 12px;&quot;&gt;&lt;b style=&quot;&quot;&gt;&lt;font face=&quot;Inconsolata LGC&quot;&gt;&amp;nbsp;}&lt;/font&gt;&lt;/b&gt;&lt;font face=&quot;Courier New&quot;&gt;&lt;b&gt;&lt;font style=&quot;border-color: var(--border-color);&quot;&gt;&lt;/font&gt;&lt;/b&gt;&lt;/font&gt;&lt;/font&gt;&lt;/div&gt;&lt;/div&gt;&lt;/div&gt;&lt;/div&gt;&lt;/div&gt;" style="rounded=0;whiteSpace=wrap;html=1;align=left;fillColor=none;" vertex="1" parent="1">
          <mxGeometry x="-700" y="1168" width="430" height="380" as="geometry" />
        </mxCell>
        <mxCell id="v3sYc3gb-yKhHvJauMw6-6" value="&lt;font&gt;&lt;font&gt;Simplified API Source Code&lt;/font&gt;&lt;/font&gt;" style="text;html=1;strokeColor=none;fillColor=none;align=center;verticalAlign=middle;whiteSpace=wrap;rounded=0;fontFamily=Linux Libertine;fontSize=17;fontStyle=1;dashed=1;" vertex="1" parent="1">
          <mxGeometry x="-719" y="1557" width="460" height="20" as="geometry" />
        </mxCell>
        <mxCell id="v3sYc3gb-yKhHvJauMw6-7" value="&lt;font face=&quot;Courier New&quot;&gt;&lt;b style=&quot;line-height: 80%;&quot;&gt;&lt;br&gt;1&lt;br&gt;&lt;font style=&quot;border-color: var(--border-color);&quot;&gt;2&lt;/font&gt;&lt;br&gt;&lt;font style=&quot;border-color: var(--border-color);&quot;&gt;&lt;span style=&quot;border-color: var(--border-color);&quot; class=&quot;Apple-converted-space&quot;&gt;3&lt;/span&gt;&lt;/font&gt;&lt;br&gt;&lt;font style=&quot;border-color: var(--border-color);&quot;&gt;&lt;span style=&quot;border-color: var(--border-color);&quot; class=&quot;Apple-converted-space&quot;&gt;4&lt;/span&gt;&lt;/font&gt;&lt;br&gt;&lt;span style=&quot;border-color: var(--border-color); background-color: initial;&quot; class=&quot;Apple-converted-space&quot;&gt;5&lt;/span&gt;&lt;br&gt;&lt;font style=&quot;border-color: var(--border-color);&quot;&gt;&lt;span style=&quot;border-color: var(--border-color);&quot; class=&quot;Apple-converted-space&quot;&gt;6&lt;/span&gt;&lt;/font&gt;&lt;br&gt;&lt;font style=&quot;border-color: var(--border-color);&quot;&gt;&lt;span style=&quot;border-color: var(--border-color);&quot; class=&quot;Apple-converted-space&quot;&gt;7&lt;/span&gt;&lt;/font&gt;&lt;br&gt;&lt;font style=&quot;border-color: var(--border-color);&quot;&gt;&lt;span style=&quot;border-color: var(--border-color);&quot; class=&quot;Apple-converted-space&quot;&gt;8&lt;/span&gt;&lt;/font&gt;&lt;br&gt;&lt;font style=&quot;border-color: var(--border-color);&quot;&gt;&lt;span style=&quot;border-color: var(--border-color);&quot;&gt;&lt;/span&gt;&lt;span style=&quot;border-color: var(--border-color);&quot;&gt;&lt;/span&gt;9&lt;/font&gt;&lt;br&gt;&lt;font style=&quot;border-color: var(--border-color);&quot;&gt;&lt;span style=&quot;border-color: var(--border-color);&quot; class=&quot;Apple-converted-space&quot;&gt;10&lt;/span&gt;&lt;/font&gt;&lt;br&gt;&lt;font style=&quot;border-color: var(--border-color);&quot;&gt;&lt;span style=&quot;border-color: var(--border-color);&quot; class=&quot;Apple-converted-space&quot;&gt;11&lt;/span&gt;&lt;/font&gt;&lt;br&gt;&lt;font style=&quot;border-color: var(--border-color);&quot;&gt;&lt;span style=&quot;border-color: var(--border-color);&quot; class=&quot;Apple-converted-space&quot;&gt;12&lt;/span&gt;&lt;/font&gt;&lt;br&gt;&lt;font style=&quot;border-color: var(--border-color);&quot;&gt;&lt;span style=&quot;border-color: var(--border-color);&quot; class=&quot;Apple-converted-space&quot;&gt;13&lt;/span&gt;&lt;/font&gt;&lt;br&gt;&lt;font style=&quot;border-color: var(--border-color);&quot;&gt;&lt;span style=&quot;border-color: var(--border-color);&quot; class=&quot;Apple-converted-space&quot;&gt;14&lt;/span&gt;&lt;/font&gt;&lt;br&gt;&lt;font style=&quot;border-color: var(--border-color);&quot;&gt;&lt;span style=&quot;border-color: var(--border-color);&quot;&gt;&lt;/span&gt;&lt;span style=&quot;border-color: var(--border-color);&quot;&gt;&lt;/span&gt;&lt;span style=&quot;border-color: var(--border-color);&quot;&gt;15&lt;/span&gt;&lt;/font&gt;&lt;br&gt;&lt;font style=&quot;border-color: var(--border-color);&quot;&gt;&lt;span style=&quot;border-color: var(--border-color);&quot; class=&quot;Apple-converted-space&quot;&gt;16&lt;/span&gt;&lt;/font&gt;&lt;br&gt;&lt;font style=&quot;border-color: var(--border-color);&quot;&gt;&lt;span style=&quot;border-color: var(--border-color);&quot; class=&quot;Apple-converted-space&quot;&gt;17&lt;/span&gt;&lt;/font&gt;&lt;br&gt;&lt;font style=&quot;border-color: var(--border-color);&quot;&gt;&lt;span style=&quot;border-color: var(--border-color);&quot; class=&quot;Apple-converted-space&quot;&gt;18&lt;/span&gt;&lt;/font&gt;&lt;br&gt;&lt;font style=&quot;border-color: var(--border-color);&quot;&gt;&lt;span style=&quot;border-color: var(--border-color);&quot; class=&quot;Apple-converted-space&quot;&gt;19&lt;/span&gt;&lt;/font&gt;&lt;br&gt;&lt;font style=&quot;border-color: var(--border-color);&quot;&gt;&lt;span style=&quot;border-color: var(--border-color);&quot; class=&quot;Apple-converted-space&quot;&gt;20&lt;/span&gt;&lt;/font&gt;&lt;br&gt;&lt;font style=&quot;border-color: var(--border-color);&quot;&gt;&lt;span style=&quot;border-color: var(--border-color);&quot; class=&quot;Apple-converted-space&quot;&gt;21&lt;/span&gt;&lt;/font&gt;&lt;br&gt;&lt;font style=&quot;border-color: var(--border-color);&quot;&gt;&lt;span style=&quot;border-color: var(--border-color);&quot; class=&quot;Apple-converted-space&quot;&gt;22&lt;/span&gt;&lt;/font&gt;&lt;br&gt;&lt;font style=&quot;border-color: var(--border-color);&quot;&gt;23&lt;br&gt;24&lt;br&gt;&lt;br&gt;&lt;/font&gt;&lt;/b&gt;&lt;/font&gt;" style="rounded=0;whiteSpace=wrap;html=1;align=right;fillColor=none;" vertex="1" parent="1">
          <mxGeometry x="-720" y="1168" width="20" height="380" as="geometry" />
        </mxCell>
        <mxCell id="v3sYc3gb-yKhHvJauMw6-8" value="" style="endArrow=classic;html=1;rounded=0;startArrow=oval;startFill=1;fillColor=#e1d5e7;strokeColor=#9673a6;strokeWidth=2;exitX=1;exitY=0.137;exitDx=0;exitDy=0;exitPerimeter=0;entryX=0;entryY=0.532;entryDx=0;entryDy=0;entryPerimeter=0;dashed=1;dashPattern=1 1;" edge="1" parent="1" target="v3sYc3gb-yKhHvJauMw6-13">
          <mxGeometry width="50" height="50" relative="1" as="geometry">
            <mxPoint x="-270" y="1220.06" as="sourcePoint" />
            <mxPoint x="-160" y="1214.5" as="targetPoint" />
            <Array as="points" />
          </mxGeometry>
        </mxCell>
        <mxCell id="v3sYc3gb-yKhHvJauMw6-9" value="&lt;font style=&quot;border-color: var(--border-color); font-size: 12px;&quot;&gt;&lt;div&gt;&lt;font style=&quot;border-color: var(--border-color);&quot;&gt;&lt;b style=&quot;&quot;&gt;&amp;nbsp;void*&amp;nbsp;&lt;font style=&quot;color: rgb(0, 0, 204);&quot;&gt;cast_away_const&lt;/font&gt;(char* string){&lt;/b&gt;&lt;/font&gt;&lt;/div&gt;&lt;div&gt;&lt;font style=&quot;border-color: var(--border-color);&quot;&gt;&lt;b style=&quot;&quot;&gt;&amp;nbsp; &amp;nbsp; return (void *)string;&amp;nbsp;&lt;/b&gt;&lt;/font&gt;&lt;/div&gt;&lt;div&gt;&lt;font style=&quot;border-color: var(--border-color);&quot;&gt;&lt;b style=&quot;&quot;&gt;&amp;nbsp;}&lt;/b&gt;&lt;/font&gt;&lt;/div&gt;&lt;/font&gt;" style="rounded=1;whiteSpace=wrap;html=1;align=left;fillColor=#E6E6E6;strokeColor=#000000;shadow=0;dashed=1;fontFamily=Inconsolata LGC;textOpacity=50;" vertex="1" parent="1">
          <mxGeometry x="-64.5" y="1492" width="270" height="50" as="geometry" />
        </mxCell>
        <mxCell id="v3sYc3gb-yKhHvJauMw6-10" value="&lt;font style=&quot;border-color: var(--border-color); font-size: 12px;&quot;&gt;&lt;div&gt;&lt;font style=&quot;border-color: var(--border-color);&quot;&gt;&lt;b style=&quot;background-color: transparent; color: light-dark(rgb(0, 0, 0), rgb(255, 255, 255));&quot;&gt;&amp;nbsp;char*&amp;nbsp;&lt;font style=&quot;color: rgb(0, 0, 204);&quot;&gt;strdup&lt;/font&gt;(char* str, internal_hooks *hook)&lt;/b&gt;&lt;b style=&quot;&quot;&gt;{&lt;/b&gt;&lt;/font&gt;&lt;b style=&quot;background-color: transparent; color: light-dark(rgb(0, 0, 0), rgb(255, 255, 255));&quot;&gt;}&lt;/b&gt;&lt;/div&gt;&lt;/font&gt;" style="rounded=1;whiteSpace=wrap;html=1;align=left;fillColor=#D1D1D1;strokeColor=#36393d;shadow=0;dashed=1;fontFamily=Inconsolata LGC;textOpacity=50;" vertex="1" parent="1">
          <mxGeometry x="-210" y="1446" width="350" height="24" as="geometry" />
        </mxCell>
        <mxCell id="v3sYc3gb-yKhHvJauMw6-11" value="&lt;font style=&quot;border-color: var(--border-color); font-size: 12px;&quot;&gt;&lt;b style=&quot;&quot;&gt;&lt;span style=&quot;border-color: var(--border-color); background-color: initial;&quot;&gt;&amp;nbsp;bool&amp;nbsp;&lt;font style=&quot;color: rgb(0, 0, 204);&quot;&gt;addItemToArray&lt;/font&gt;(cJSON *array, cJSON *item)&lt;/span&gt;&lt;/b&gt;&lt;font&gt;&lt;b&gt;&lt;span style=&quot;border-color: var(--border-color); background-color: initial;&quot;&gt;{&lt;br&gt;&lt;/span&gt;&amp;nbsp; &amp;nbsp; array-&amp;gt;child = item;&lt;/b&gt;&lt;/font&gt;&lt;font&gt;&lt;b&gt;&lt;br style=&quot;border-color: var(--border-color);&quot;&gt;&lt;font style=&quot;border-color: var(--border-color);&quot;&gt;&amp;nbsp;}&lt;/font&gt;&lt;/b&gt;&lt;/font&gt;&lt;br&gt;&lt;/font&gt;" style="rounded=1;whiteSpace=wrap;html=1;align=left;fillColor=#B5B5B5;strokeColor=#000000;shadow=0;dashed=1;fontFamily=Inconsolata LGC;textOpacity=50;" vertex="1" parent="1">
          <mxGeometry x="-199" y="1296" width="350.25" height="51" as="geometry" />
        </mxCell>
        <mxCell id="v3sYc3gb-yKhHvJauMw6-12" value="&lt;font style=&quot;border-color: var(--border-color); font-size: 12px;&quot;&gt;&lt;b style=&quot;&quot;&gt;&lt;span style=&quot;border-color: var(--border-color); background-color: initial;&quot;&gt;&amp;nbsp;char*&amp;nbsp;&lt;font style=&quot;color: rgb(0, 0, 204);&quot;&gt;assignStringToItem&lt;/font&gt;&lt;/span&gt;&lt;span style=&quot;border-color: var(--border-color); background-color: initial;&quot;&gt;(char *string, bool key)&amp;nbsp;&lt;/span&gt;&lt;/b&gt;&lt;font&gt;&lt;b&gt;&lt;span style=&quot;border-color: var(--border-color); background-color: initial;&quot;&gt;{&lt;br&gt;&lt;/span&gt;&amp;nbsp; &amp;nbsp;return string;&lt;/b&gt;&lt;/font&gt;&lt;font&gt;&lt;b&gt;&lt;br style=&quot;border-color: var(--border-color);&quot;&gt;&lt;font style=&quot;border-color: var(--border-color);&quot;&gt;&amp;nbsp;}&lt;/font&gt;&lt;/b&gt;&lt;/font&gt;&lt;br&gt;&lt;/font&gt;" style="rounded=1;whiteSpace=wrap;html=1;align=left;fillColor=#C2C2C2;strokeColor=#000000;shadow=0;dashed=1;fontFamily=Inconsolata LGC;textOpacity=50;" vertex="1" parent="1">
          <mxGeometry x="-70" y="1363" width="370" height="50" as="geometry" />
        </mxCell>
        <mxCell id="v3sYc3gb-yKhHvJauMw6-13" value="&lt;font style=&quot;border-color: var(--border-color); font-size: 12px;&quot;&gt;&lt;font style=&quot;border-color: var(--border-color);&quot;&gt;&lt;b style=&quot;border-color: var(--border-color);&quot;&gt;&amp;nbsp;bool&amp;nbsp;&lt;/b&gt;&lt;font&gt;&lt;b&gt;&lt;font style=&quot;border-color: var(--border-color); color: rgb(0, 0, 204);&quot;&gt;cJSON_addItemToObject&lt;/font&gt;(cJSON *object, char *string,&amp;nbsp;&lt;/b&gt;&lt;/font&gt;&lt;/font&gt;&lt;div&gt;&lt;font style=&quot;border-color: var(--border-color);&quot;&gt;&lt;b style=&quot;border-color: var(--border-color);&quot;&gt;&lt;span style=&quot;border-color: var(--border-color); background-color: initial;&quot;&gt;&amp;nbsp;&amp;nbsp;&lt;span style=&quot;white-space: pre;&quot;&gt;&#x9;&lt;/span&gt;&amp;nbsp; &amp;nbsp; &amp;nbsp; &amp;nbsp; &amp;nbsp; &amp;nbsp; &amp;nbsp; &amp;nbsp; &amp;nbsp; &amp;nbsp; cJSON *item,&lt;/span&gt;&lt;/b&gt;&lt;font&gt;&lt;b&gt;&lt;span style=&quot;border-color: var(--border-color); background-color: initial;&quot;&gt;&amp;nbsp; &amp;nbsp;bool key)&lt;/span&gt;&lt;span style=&quot;border-color: var(--border-color); background-color: initial;&quot;&gt;{&lt;/span&gt;&lt;/b&gt;&lt;/font&gt;&lt;/font&gt;&lt;/div&gt;&lt;font&gt;&lt;b&gt;&amp;nbsp; &amp;nbsp; item-&amp;gt;string = string;&lt;/b&gt;&lt;/font&gt;&lt;/font&gt;&lt;div&gt;&lt;font style=&quot;border-color: var(--border-color); font-size: 12px;&quot;&gt;&lt;font&gt;&lt;b&gt;&amp;nbsp; &amp;nbsp; object-&amp;gt;child = item;&lt;br style=&quot;border-color: var(--border-color);&quot;&gt;&lt;font style=&quot;border-color: var(--border-color);&quot;&gt;&amp;nbsp;}&lt;/font&gt;&lt;/b&gt;&lt;/font&gt;&lt;br&gt;&lt;/font&gt;&lt;/div&gt;" style="rounded=1;whiteSpace=wrap;html=1;align=left;fillColor=#e1d5e7;strokeColor=#9673a6;shadow=1;glass=0;fontFamily=Inconsolata LGC;" vertex="1" parent="1">
          <mxGeometry x="-160" y="1177.5" width="420" height="80" as="geometry" />
        </mxCell>
        <mxCell id="v3sYc3gb-yKhHvJauMw6-14" value="" style="endArrow=classic;html=1;rounded=0;strokeWidth=2;strokeColor=#C2C2C2;entryX=0;entryY=0.5;entryDx=0;entryDy=0;dashed=1;dashPattern=1 2;targetPerimeterSpacing=4;startArrow=oval;startFill=1;" edge="1" parent="1">
          <mxGeometry width="50" height="50" relative="1" as="geometry">
            <mxPoint x="-269" y="1351" as="sourcePoint" />
            <mxPoint x="-70" y="1386" as="targetPoint" />
            <Array as="points">
              <mxPoint x="-240" y="1351" />
              <mxPoint x="-240" y="1388" />
            </Array>
          </mxGeometry>
        </mxCell>
        <mxCell id="v3sYc3gb-yKhHvJauMw6-15" value="" style="endArrow=classic;html=1;rounded=0;strokeWidth=2;strokeColor=#C2C2C2;dashed=1;dashPattern=1 1;startArrow=oval;startFill=1;" edge="1" parent="1">
          <mxGeometry width="50" height="50" relative="1" as="geometry">
            <mxPoint x="-269" y="1275" as="sourcePoint" />
            <mxPoint x="-200" y="1319" as="targetPoint" />
            <Array as="points">
              <mxPoint x="-240" y="1275" />
              <mxPoint x="-240" y="1319" />
            </Array>
          </mxGeometry>
        </mxCell>
        <mxCell id="v3sYc3gb-yKhHvJauMw6-16" value="" style="endArrow=classic;html=1;rounded=0;exitX=0.998;exitY=0.924;exitDx=0;exitDy=0;exitPerimeter=0;strokeWidth=2;strokeColor=#E6E6E6;dashed=1;startArrow=oval;startFill=1;" edge="1" parent="1">
          <mxGeometry width="50" height="50" relative="1" as="geometry">
            <mxPoint x="-265.8600000000001" y="1519.12" as="sourcePoint" />
            <mxPoint x="-66" y="1520" as="targetPoint" />
          </mxGeometry>
        </mxCell>
        <mxCell id="v3sYc3gb-yKhHvJauMw6-17" value="" style="curved=1;endArrow=blockThin;html=1;rounded=0;strokeWidth=3;strokeColor=#000000;endFill=1;entryX=0.572;entryY=1.02;entryDx=0;entryDy=0;exitX=0.5;exitY=0;exitDx=0;exitDy=0;entryPerimeter=0;" edge="1" parent="1" target="v3sYc3gb-yKhHvJauMw6-12">
          <mxGeometry width="50" height="50" relative="1" as="geometry">
            <mxPoint x="170" y="1492.5" as="sourcePoint" />
            <mxPoint x="200" y="1401.5" as="targetPoint" />
            <Array as="points">
              <mxPoint x="210" y="1452.5" />
            </Array>
          </mxGeometry>
        </mxCell>
        <mxCell id="v3sYc3gb-yKhHvJauMw6-18" value="" style="curved=1;endArrow=blockThin;html=1;rounded=0;strokeWidth=3;strokeColor=#000000;endFill=1;exitX=0.25;exitY=0;exitDx=0;exitDy=0;entryX=0.25;entryY=1;entryDx=0;entryDy=0;" edge="1" parent="1" target="v3sYc3gb-yKhHvJauMw6-12">
          <mxGeometry width="50" height="50" relative="1" as="geometry">
            <mxPoint x="-52" y="1446" as="sourcePoint" />
            <mxPoint x="0.5" y="1400" as="targetPoint" />
            <Array as="points">
              <mxPoint x="-30" y="1420" />
            </Array>
          </mxGeometry>
        </mxCell>
        <mxCell id="v3sYc3gb-yKhHvJauMw6-19" value="" style="curved=1;endArrow=blockThin;html=1;rounded=0;strokeWidth=3;strokeColor=#000000;endFill=1;entryX=0.572;entryY=1.02;entryDx=0;entryDy=0;entryPerimeter=0;" edge="1" parent="1">
          <mxGeometry width="50" height="50" relative="1" as="geometry">
            <mxPoint x="170" y="1360" as="sourcePoint" />
            <mxPoint x="151.25" y="1259" as="targetPoint" />
            <Array as="points">
              <mxPoint x="210" y="1310" />
            </Array>
          </mxGeometry>
        </mxCell>
        <mxCell id="v3sYc3gb-yKhHvJauMw6-20" value="" style="curved=1;endArrow=blockThin;html=1;rounded=0;strokeWidth=3;strokeColor=#000000;endFill=1;exitX=0.25;exitY=0;exitDx=0;exitDy=0;" edge="1" parent="1">
          <mxGeometry width="50" height="50" relative="1" as="geometry">
            <mxPoint x="-63" y="1296" as="sourcePoint" />
            <mxPoint x="-30" y="1260" as="targetPoint" />
            <Array as="points">
              <mxPoint x="-60" y="1280" />
            </Array>
          </mxGeometry>
        </mxCell>
        <mxCell id="v3sYc3gb-yKhHvJauMw6-21" value="&lt;font face=&quot;Linux Libertine&quot;&gt;&lt;b&gt;&lt;font&gt;Bottom-Up Points-to Specification Inference and V&lt;/font&gt;&lt;span style=&quot;background-color: rgb(255, 255, 255); font-size: 16px; white-space-collapse: preserve; color: light-dark(rgb(0, 0, 0), rgb(255, 255, 255));&quot;&gt;alidation&lt;/span&gt;&lt;/b&gt;&lt;/font&gt;" style="text;html=1;align=center;verticalAlign=middle;resizable=0;points=[];autosize=1;strokeColor=none;fillColor=none;fontFamily=Linux Libertine;fontSize=17;" vertex="1" parent="1">
          <mxGeometry x="-206" y="1552" width="480" height="30" as="geometry" />
        </mxCell>
        <mxCell id="v3sYc3gb-yKhHvJauMw6-22" value="" style="shape=image;html=1;verticalAlign=top;verticalLabelPosition=bottom;labelBackgroundColor=#ffffff;imageAspect=0;aspect=fixed;image=https://cdn3.iconfinder.com/data/icons/essential-pack/32/21-Target-128.png;fontFamily=Helvetica;fontSize=11;fontColor=default;" vertex="1" parent="1">
          <mxGeometry x="230" y="1217.5" width="40" height="40" as="geometry" />
        </mxCell>
        <mxCell id="v3sYc3gb-yKhHvJauMw6-23" value="" style="shape=image;verticalLabelPosition=bottom;labelBackgroundColor=default;verticalAlign=top;aspect=fixed;imageAspect=0;image=data:image/png,iVBORw0KGgoAAAANSUhEUgAAAgAAAAIACAYAAAD0eNT6AAAACXBIWXMAAA7DAAAOwwHHb6hkAAAAGXRFWHRTb2Z0d2FyZQB3d3cuaW5rc2NhcGUub3Jnm+48GgAAIABJREFUeJzs3XmcXGWZ9//Pfaq6k87KvhMCiKg4IEknLMM4w4zOqLiiMM6o/FxBHRcQ0gn6PGO7QbrDpihLGPdxHEF5FBd01MEFEUh3WBzQEQwhAdkhW2/pqnP//uiuruquU6equ6vOfZbv+/XS5KSrzn1dWfhefZ9TVQYRibWz+2jbw2NfW2C/nMd+1rCHgT2w7GlhDwt7AIs9w3wL86zPfGNoBxYD+fEfKy0A2qb82iiwa8qvbQOKwHZr2W08BgwM+pYBA9sMbLOWbcZjG5bnfMs2k+NJC0/N286T3adSaMFvh4g0iXFdgEiWXbiRfW2RQ3w4FFiC4RAPDrFwMLAfsO/4/5LoKeBJ4Cksj1jDo1geMR4P+0W2+h6PXNrJ066LFMkqDQAiLXTG9eQOO4wlnsfzPMORPjzPwJF2/Eegw3WNjg0BDwJ/Ah7E8qCBP5HnwbkvYUu3wXdcn0hqaQAQaZKujRzkFXmRNRxjLS/CcIyBlwDzXdeWULsZGw7uM5b7Mdxnfe7ftJk/3HAmRdfFiSSdBgCRaTq7j7Y9fZ6PYbkxLPdhuYHjgXmua8uIUeABY+i3ln6gvwM2dncy6LowkSTRACAS4ozryR1xBC8ycIKFE4GVwAsZu7lO4qNg4H4f7sRyex7uaO/kfl1CEKlNA4BIhe7bWTSS4xQf/hLDSUAnsNB1XTIjO7BsMB63W5/f2BFu7T2Fna6LEokLDQCSaV23stCbwwm+4WXAKWbsO/ypL5GTdCgC/2stt3qGn43CLXoVgmSZBgDJlPNuo6OtjVOAlxvDy4Hj0L+DrPKBezD81Pj8dO4ubu0+lWHXRYlERf/hk9RbvZHjKPIPeLwcyynAXNc1SSwNAb8Gfgr8pKeT3zmuR6SlNABI6nTfwtzhBZyC4TUWXg8scV2TJI+Bh33LT4zHDzp28FPtDkjaaACQVLjwDva2Hq+zhtcCL0OvvZfmGgD+yxhuGhnhpstP5lnXBYnMlgYASazz+9gnb3mVMZxh4R/QzXsSjaKF2w3ckIPrL+rkMdcFicyEBgBJlI/ezv7FPGcCZwInA57jkiTbilh+g8f1nuH6i5fxlOuCRBqlAUBi77zb6JjTzquBs/SdvsRY0cLtnuFr/hDf1HsOSNxpAJBY6r6F/MAiXuFZ3ga8Bn1ojiTLIIabsPz7pk38WJ9dIHGkAUBipWsDR3vwT9bwDnT3vqTDYwZuKBi+eMly7nVdjEiJBgBxrutWFpoO3mx93mHG3n5XJJUs/AbLl+fN41vdx7DLdT2SbRoAxJkL+3hBEd5u4GxgT9f1iERop7V80+S4qmcZ97guRrJJA4BEqvs+2oeHeJ01nI3lZa7rEYmBfmNYPzLC1y8/mSHXxUh2aACQSHRt5CDP8n5rORvY13U9IjH0JLA+B1fpvQUkChoApKVW9bHMWM4xhrPQe/CLNGI38D3P4/KLl/Fb18VIemkAkKbrtniDfZxuPM7DcrLrekQS7FZruHzeMr7bbfBdFyPpogFAmqb7PtqHBnkzhguBF7iuRyRFNgGf69jJtfpQImkWDQAya123stDM5Z3AKuBg1/WIpNgTxnLNcJ4rrjieba6LkWTTACAzdt5t7NXeznnAB4HFrusRyZBtwOdMO1esPZbnXBcjyaQBQKZt/KN3P2gNHwb2cF2PSIbtsvCF0d306iOKZbo0AEjDzu9jnzbLB6zhXPQdv0ic7DLwJa/ARRedyBOui5Fk0AAgdXXfx4LhIf7FwoUo+EXibJeFLxi4uKeT7a6LkXjTACA1dd9H+/Awb7eWTwL7u65HRBr2jIF1c3fyWb1qQGrRACBVum8hP7SId2D5V+AQ1/WIyIxtMZZP/OkhvqqPJJapNADIJGs28DJruAz4C9e1iEjT/AHLR3pWcLPrQiQ+NAAIABdu5EVFn3UGXuW6FhFpDQM/KMK56zr5k+taxD0NABn3sbs5uFDg08BZgOe6HhFpuREMn+0Y5TPdJ7LDdTHijgaAjDq7j7Y94f3Ap4CFrusRkcg9A3xq0yY+r/sDskkDQAZ1beTvjM/ngBe5rkVEnLsLj3N7lvEr14VItDQAZMiqPo704GLgDNe1iEi8GPhBociHLjmBh1zXItHQAJABZ/fRtqdhFZb/C8x1XY+IxNYQlu6OXVzWfSoF18VIa2kASLlVd/ISz+PfgOWuaxGRZDBwLz7vXruSDa5rkdbRAJBS591GR1s7HzdwAZBzXY+IJE7BwFWFNj56yXEMuC5Gmk8DQAqt3shL8bkOeL7rWkQk8TYZyzlrV/Az14VIc2kASJFz72KP9gI9xvAe9GcrIs11g1fkfRefwDOuC5HmUEikxOp+XoPlauBg17WISGo9gaWrZwVfc12IzJ4GgIT72N0cXCxwjYVXu65FRDLjezl430WdPOa6EJk5DQAJtqafN1jLdcDermsRkczZhuV9PSv4T9eFyMxoAEig826jY047ay18yHUtIpJtxvD1uXN5f/cx7HJdi0yPBoCE6dpIp/H5BrrDX0Ti4yHP4y0XL+O3rguRxmkASAqLWd3Ph4BeoN11OSIiUxSM5TN/eohP6cOFkkEDQAKs7mOJMXzNWv7adS0iImGs5be+z1v0mQLxp89/j7muDbwJuEvhLyJJYAwn5XLc1dXPW1zXIuG0AxBT3bezaLiNz1vL21zXIiIyQ1/p6OCDukEwnjQAxFDXBo42hhuBF7muRURklv6Iz+k9K7nPdSEymS4BxEzXBl5rDHeg8BeRdHg+Hr8dv5wpMaIdgJg443pyhx/BZwx0oT8XEUkfa+DKuTs5v/tUCq6LEQVNLJzfxz55+A/g5a5rERFpJWP4pTfKP150Ik+4riXrNAA4tqqPZR58B1jquhYRkYg84sGbLu7kDteFZJnuAXBo9QbO8uBWFP4iki2H+PDL1f28x3UhWaYdAAc++ABz5m3nStBffhHJNmP4+sgI51x+MkOua8kaDQAR69rIQcbyXSwrXNciIhITd/g+r1+3ksddF5IlGgAi9NENvLho+CGwxHUtIiIx86jv8+p1K7nbdSFZoXsAIrJmAy8rGm5F4S8iEuRgz+NXqzfwSteFZIUGgAh09fMOa/gRsNh1LSIiMbYQw02rN3CO60KyQANAK1nMmg10G8uXgDbX5YiIJEAewzVr+vgsVpepW0m/uS3ywQeYM387X7ToE7FERGboho6dnNV9KsOuC0kjDQAtcN5t7DVnDjfqI3xFRGbJcFvB8rpLO3nadSlpowGgydZs4Ag7dqf/C1zXIiKSEg/6OV617ngecF1ImmgAaKKuDaw0hh8A+7quRUQkZZ4whtPWLqffdSFpoZsAm2TNBv7GGH6Kwl9EpBX2t5ZfdPVxqutC0kIDQBOs7uc11nAzsMh1LSIiKbbAwA/W9PH3rgtJAw0As7S6n7diuRGY67oWEZEMmGfh+2v6eYPrQpJOA8AsrNnAeVi+BuRd1yIikiHt1vKtNf38o+tCkkwDwAyt6WeVNVyGbqQUEXGhzVq+0bWBd7kuJKk0AMzAmj5WW0uv6zpERDIuZwzXdfVzrutCkkgDwDSt2UC3hbWu6xAREQCMsVze1c/HXReSNNq+nobVfXwK+D+u6xARkWoWeno7WeO6jqTQDkCDVm/gMyj8RURiy8DqNX180nUdSaEdgAboO38RkUS5sKdTl2rr0QBQx+o+/hX4hOs6RERkWs7v6eQy10XEmQaAEGv6ON/CJa7rEBGRabMYzulZznWuC4krDQA1dPVzrrFc7roOERGZsaIxvGXtcr7lupA40gAQoGsDbzOGr6LfHxGRpBvF8Mae5XzfdSFxo4CbYvUGXofh2+jtfUVE0mI3ltf3rOBm14XEiQaACmv6+Vtr+SH6YB8RkbQZxOOVPcv4letC4kIDwLiuDaw0hp8DC1zXIiIiLbHdGP5u7XL6XRcSBxoAgAvu4PBcjtuB/VzXIiIiLfW0MZy0djkPui7Etcy/E+B5t7FXLsfNKPxFRLJgH2v5/pp72dN1Ia5legDovo/29nZuAI52XYuIiETmBXaE737wAea4LsSl7A4AFjM8zL8Bf+u6FBERiZjhpfN28BVsdi+FZ3YAWN3Hp63lba7rEBERRyxvXtOX3Y8RzuTks2YD77SGL7quQ0REnLMW3tHbyVddFxK1zA0AazbwN9bwE6DddS0iIhILo8byqrUr+JnrQqKUqQHgwo28yPf5DbCH61pERCRWdgCn9HTyO9eFRCUzA8BH+ziwCLcDS1zXIiIisbTZ9zlp3Uoed11IFDJxE2D3LcwtGr6Hwl9ERGpb6nn8v6y8PDATA8DQQj6PZYXrOkREJPZOnLeDz7ouIgqpHwDW9HM28C7XdYiISEJYzunakP7cSPU9AOMf8PMryMZ2joiINM2w9fir3mX0uS6kVVI7AFx4B3v7OfqApa5rERGRRNpSgOWXdvK060JaIZWXAM64npyf4z9Q+IuIyMwtyVv+84zrybkupBVSOQAccQRrgb93XYeIiCSc4e+OOJxPui6jFVJ3CaCrj9cbuJEU9iYiIk5YazmzdwXfdl1IM6UqJLs2cLQx3Akscl2LiIikyk7P48SLl3G/60KaJTWXALpvZ5EZe7Mfhb+IiDTbQt/nhu77WOC6kGZJzQAw3MbngaNd1yEiIqn1oqEhrnBdRLOk4hJA1wbeZAw3uK5DRETSzxjevHY533Jdx2wlfgDoup1DTJ57gL1c1yIiIpmwDTiup5MtrguZjURfAui2eCbP11D4i4hIdPbA8vWkvz9AogeAwT4uBE51XYeIiGSM4aVHHM75rsuYjcReAljTz3JruQ1od12LiIhk0qi1nNK7gjtdFzITidwBuOAe5lvLN1D4i4iIO23G8I2kvjQwkQNAbpTPopf8iYiIe88bHGKd6yJmInGXANb08wZrudF1HSIiIhMsr+9ZwfdclzEdiRoAPnY3BxcK3APs7boWERGRCk/n4NiLOnnMdSGNStQlgEKBL6DwFxGR+NmnCNe5LmI6EjMArN7Am4HXua5DRESkhtNW9/HProtoVCIuAZx3G3u1t3M/sL/rWkREREI8kytwzEUn8oTrQupJxA7AnHYuQ+EvIiLxt3cxz7Wui2hE7HcAuvo41cDPSUCtIiIiANZyRu8Kvu26jjCxDtXuPuYNwb3Aka5rERERmYYnTDsvXHssz7kupJZYXwIYgk+h8BcRkeTZ39/NRa6LCBPbHYA1d7LCevwWkv1pSyIiklk+Pn/Vs5LbXBcSJJY7AN23kLce16LwFxGR5PKsx7Vn99HmupAgsRwAhhbRBRzvug4REZHZMPDiveAjrusIErtLAKv6ONKD/wHmuq5FRESkCQYLHi+6dBkPuy6kUux2ADzL5Sj8RUQkPeblfS5xXcRUsdoBWNPH31v4ies6REREms7wip7l8cm42AwA3ffRPjTEvcDRrmsRERFpgd8/B8et72TUdSEQo0sAg0Ocj8JfRETS64V7wgddF1ESix2Aj93NwYUCfwAWuK5FRESkhXbkCjw/Dh8WFIsdgGKBz6DwFxGR9FtUyPFJ10VADHYAVm/kOHw2EpNhREREpMWKwPE9nfzOZRHuQ9dySSzqEBERiUYOuMJ1EU6Dd1U/r8byMpc1iIiIOPC3q/v5B5cFOBsAum8h71l6Xa0vIiLikrVccsb17j7zxtkAMLyIdwIvdLW+iIiISwZefOSRvM3h+tHrvoW5gwv5o4FDXawvIiISBwYeHljM0VcexUjUazvZARhayAcU/iIiknUWDuvYzjku1o58B6DrVhaauTwI7Bf12iIicfLC/Lt4qvg7nrZ3ui5F3HrKDnNk7ynsjHLRyHcAzFy6UPiLSMYdnX8nZx31Wd73vJvYx6x0XY64ta+Zy4ejXjTSHYDz+9gnD5uAhVGuKyISJ0fn38nbj/ocZvw/wQOFnVz94Gu1E5Bt2007h689lueiWjDSHYAcXIDCX0QybGr4A8zPL9ROgCy2uzk3ygUj2wG48A729nM8hAYAEcmooPCvpJ2AzNth2lka1S5AZDsANsf5KPxFJKPqhT9oJ0BYxEh09wJEsgNw3m3s1d7OZjQAiEgGNRL+lbQTkGmR3QsQyQ7AnDl8BIW/iGTQdMMfKnYC0E5ABi32R/lQFAu1fAeg+3YWDeV5GNij1WuJiMTJTMK/0kBhJ1c/8FqeRjsBGfNcRwdLuo9hVysXafkOwFCe96PwF5GMmW34w/hOwFG6JyCD9hwa4h2tXqSlOwAffIA587bzEHBgK9cREYmTZoR/Jd0TkEkPdezk+d2nUmjVAi3dAZi3jbej8BeRDGl2+INeHZBRhw8v5A2tXKBlA8AZ15PDcH6rzi8iEjetCP+S+fmFvF9DQKZYw6pWnr9lA8Dhh/MG4KhWnV9EJE5aGf4l8zQEZItlxeo+TmnV6Vt5CeAjLTy3iEhsRBH+JRoCMqdlO+kt+du6pp/l1tLXinOLiMRJlOFfabCwk6t0Y2AWWGs4pnc5v2/2iVuyA2CtvvsXkfRzFf6gnYAMMdjWvDFQ0//Wdm3kIOPzENDe7HOLiMSFy/CvpJ2ATBjOFVh60Yk80cyTNn0HwBT5FxT+IpJicQl/0E5ARswttPHeZp+0qX97x9/4ZyuwbzPPKyISF3EK/0raCUi9JwcXs+TKoxhp1gmbugMwbwdnoPAXkZSKa/jD2E7AB573Aw7ItexVY+LWfvO3cXozT9jsSwDva/L5RERiIc7hXzI3P5/3HnGjhoCUsjT3MkDT/iZf0M+xOcs9zTqfiEhcJCH8Kw0XBrjmodN5vHCr61KkyXKWv7hoBf/TjHM1bQfAs/ruX0TSJ2nhD+M7AYdrJyCNfMN7mnWupvyN7r6PBUNDPAosasb5RETiIInhX2m4MMA1m07n8aJ2AlJke7GNgy85joHZnqgpOwBDw/wTCn8RSZGkhz/onoCUWpwvcEYzTtScSwCWdzblPCIiMZCG8C/REJA+1ucdzTjPrP92d23gaGP4fTPOJSLiWprCv9JwYYBrN53OY7ockAbWGJ6/djkPzuYkzdgBeBcKfxFJgbSGP4ztBJxzxI0cqJ2ANDDA22d7klkNAN23kDeGt862CBER19Ic/iUaAtLDWt5+xvXkZnOOWQ0AQ4t4JXDgbM4hIuJaFsK/RENAahx8xJG8bDYnmN0lAMvbZvV8ERHHshT+JRNDQF5DQJKZWWbwjP/Gd93KQjOXJ4CO2RQgIuJKFsO/km4MTLyBjg4O6D6GXTN58sx3AOZyOgp/EUmorIc/6HJACswfHuQ1M33yjAcAA/880+eKiLik8C8rDQF6n4BksvBPM33ujP72X3AP++VGeRTIz3RhEREXFP7B9LbBiTXqFTnw4hN4ZrpPnNEOgDfKm1H4i0jCKPxrK71joG4MTJw2m5vZWwPP9BLAmTN8noiIEwr/+ubm53PO4RoCksYyswFg2v8SVt3JAZ7HozTxo4RFRFpJ4T89w4UBrn3odB4r6HJAQhSLbRx0yXE8OZ0nTTvEjcfpM3meiIgLCv/p005A4uTyo7x2uk+a/gAAb5zuc0REXFD4z5yGgGTx7fSzeVr/Ki68g739HI+jGwBFJOYU/s0xdjngjTxW+LXrUiTcqGln/7XH8lyjT5jWDkAxz2tR+ItIzCn8m2dsJ+A7HJj/K9elSLg2f4RXT+cJ0xoAPHj99OoREYmWwr/5NAQkgzHTuw+g4X8hH3yAOfO28zSwYNpViYhEQOHfWsOFAdZvfiN/HtXlgJjaNbiYfa48ipFGHtzwDsCCbfwdCn8RiSmFf+vNzc/n7KXf4aA27QTE1IL522j4D6fhAcA307u2ICISFYV/dDQExJuF0xp9bMMDgIFXzawcEZHWUfhHT0NAjE3jPoCGBoAL+jnWwmEzr0hEpPkU/u5oCIitIy7s4wWNPLChASDn84rZ1SMi0lzHtL1X4e/Y3Px83r30Bub5R7guRSoUTWOZ3dglAI+Xz6oaEZEmOjr/Tt76vEsU/jHwi0eup2/TQwwOua5EJtjGMrvuv57uW5g7tJBngY5ZFyUiMkva9o+PH23+Il+4+8OAJZeDpQfDPCVFHAwMLmbvei8HrLsDMLyQl6LwF5EYUPjHR2X4AxR9ePjPaCcgHubP38ZJ9R5UdwCwaPtfRNxT+MfH1PDHgDFQLI4NAUPDTssTGsvuRu4B0AAgIk4p/OOjVvhjx35e8OEhDQHuNXDvXui/pvNuY6/2dp5iBh8bLCLSDAr/+KgX/uM/gIVcHpYeBB1zXVWbef5Ijr2vOJ5ttR4QGuxt7by03mNERFpF4R8f0wl/xi8HbH4UhnRPgCvenCJ/GfqAsC8aw0ubW4+ISGMU/vEx3fAffwi+Dw8/piHAmToZHv7dveWvm1qMiEgDFP7xMdPwL/2kWBoCdE9A9OpkeM1/Xd23s2goz7NArulFiYjUoPCPj9mGf+VxLgdLDtQ9AREr2GH26j2FnUFfrLkDMJLjFBT+IhIhhX98NDP8AQoFvUTQgTxzOLHWF2sOANZwSmvqERGppvCPj2aHv7Vjz/d1OSBynqHmpzXVHgCoPTWIiDSTwj8+WhX+pS/4RdjyZxgKfZNaaRYLJ9T6WuAA0G3xgOUtq0hEZJzCPz5aHf4TLxG0GgIidMJ4plcJ/MVdG3kxsKilJYlI5in84yOq8Ify5YCtGgKisHjkLl4Q9IXAASAXsmUgItIMCv/4iDr8S8sUx4eAQd0T0FK2GHxJP/geAKsBQERaR+EfH67Cv/Tlog+PPK4hoJX8Gt/U17oJcGULaxGRDFP4x4fr8LfjPyn68MhjuhzQKsYEDwBV/wK7b2Hu0EJ2AvmWVyUimaLwj4+4hP/EDwZyBg45EDrmNKFBqTTasZNF3acyaZ+lagdgcAHHovAXkSZT+MdHHMMfxm4M1E5AS7QNLORFU3+xagAwcHw09YhIVij84yOu4W/GH+fbsXsCNAQ0l7HV2V59D4CnAUBEmkfhHx9xD//SsfXhUQ0BTRX0zX3QTYDLIqhFRDJA4R8fSQn/0ikndgL06oDmCPjmftIAcMb15LC8OLqKRCStFP7xkbTwL9VkLTz6hIaAprAcO/UdAScdPO8wjgQ6Ii1KRFJH4R8fSQ3/yp0ADQFNsWDXnRxW+QuTBgCb55ho6xGRtFH4x0fSw5/x2qyFPz8Jw7onYFbMlIyfNAD4fvXLBEREGqXwj4+0hH9pzdJOgIaAmfOmZPykAcAYDQAiMjMK//hIW/iXTupb+LOGgBmbmvFTXwWgAUBEpk3hHx9pDf/SA7QTMHO21gAwfnfg0ZFXJCKJpvCPj7SHf+nQt/DokzC8u9bvhASyvBBb/u2eGADG7w7UKwBEpGEK//jISvhPPNQfvxygIWA6FnTdwcGlg4kBwPN4npt6RCSJFP7xkbXwLz3M16sDps3LlbN+YgAwRgOAiDRG4R8fWQ3/0k+sD489pSGgYSZgALBwpJtqJIs8O4c5/oGuy5AZOKbtvQr/mPjen67KdPhX7gQ8/hSM6HJAXZVZX94BQDsAEg1j23n14q/zvsNuocMudV2OTMPR+Xfy1uddovCPgR9t/iLrf9dF1sMfM7am78OfNQQ0onoHAA0AEgFj23nN4n/n5INP44AFh3LOkh9rCEgIbfvHR9a3/aeGP4A1GgIaNGUAGHtZwOGuqpFsqAz/kokhwF/qrjCpS+EfHwr/8nFl+E8814fHntYQEGLyJYAL72IfYJ6zciT1gsK/5IAFh3LOYRoC4krhHx8K//JxUPiXfuIXx24M1BAQaOGae9kTxgeAgs+hbuuRNAsL/xINAfGk8I8PhX/5OCz8S2tYC48/DSOjyBSF0bHM9wA8qwFAWqOR8C/REBAvCv/4UPiXjxsJ/xK/OP7qAA0Bk+RsxQBg0QAgzTed8C/REBAPCv/4UPiXj6cT/hM7AT48oXsCploC4wOA8TQASHPNJPxLNAS4pfCPD4V/+Xgm4V/6erEIjz+jIaDEULEDgOUQp9VIqswm/Es0BLih8I8PhX/5eDbhb8fX9LUTMMFWXgIADnJYi6RIM8K/RENAtBT+8aHwLx83I/xLD/ctPPEM7NYQcCCUB4D9HRYiKdHM8C/REBANhX98KPzLx80M/xLf1xBgzVjmawCQpmhF+JccsOBQzln6Y+bpHQNbQuEfHwr/8nErwr90nPUhwMB+AObsPtr2hBGqf59EGtLK8K/0+K6trN/yCgbN5paukyUK//hQ+JePWxn+lT/xDOy3N8xpJ2v8jp3M8fbNsx8Kf5khz87hdXt8s+XhD2M7Ae869AfM9fWilWbQp/rFx02brlb4l/qOKPwNY/cEPPksjGTvo4S93R3s7RVHx7YCRKar9Kl+Jx70isjWPHjh4bz3sP/S5YBZ0qf6xcePNn+Ra+9dhcI/2vAv9e3740NAxi4H7G5jfw/Dvq4LkeSJats/yAELlnD2kps1BMyQtv3jQ9v+5WMX4Y8tHz+VsSHAM+zrYcY+FECkUS7Dv0RDwMwo/OND4V8+dhn+pa9Zm60hwCuyh2d99nBdiCRHHMK/ZGII0EsEG6Lwjw+Ff/k4DuFfemxpJ2B3Fj47wLCndgCkYXEK/5IDFizh7MO0E1CPwj8+FP7l4ziFf2XhWRgCLOzhAYtdFyLxF8fwL9HlgHAK//hQ+JeP4xj+pTV8C08+k/ohYLFn0SUACRfn8C/REBBM4R8fCv/ycZzD3078X8p3Aix7agdAQiUh/Es0BEym8I8PhX/5OAnhX3mc1iHAGPbwjGWB60IknpIU/iUaAsYo/OND4V8+TlL4l75ugaefS98QYGG+B8xzXYjETxLDvyTrQ4DCPz4U/uXjJIZ/6QnWpnIImOfh0eG6ComXJId/SVaHAIV/fCj8y8dJDv/SL1sLz6RoCDDQ4WG1AyBlaQj/kqwNAQr/+FD4l4/TEP4T5aVoJ8DCPF0CkAlpCv+SiSGApa5LaSmFf3wo/Mso9BDMAAAgAElEQVTHaQr/0pct8Mw2GC2QdPM8iy4BSDrDv+SABUs4+9D0DgEK//hQ+JeP0xj+pZ9YC08nfwjo8AzMdV2FuJXm8C9J6xCg8I8PhX/5OM3hP3Eem/idgA4PyLuuQtzJQviXpG0IUPjHh8K/fJyF8J/YCfATPQTkNQBkWJbCvyQtQ4DCPz4U/uXjLIV/6bD06oDR5N0YmPOAnOsqJHpZDP+SpL86QOEfHwr/8nEWw7/yN+iZHYkbAvIaADIoy+FfcsD8ZH6KoMI/PhT+5eMsh78xY31bP3FDgHYAskbhXzYxBLDUdSkNUfjHh8K/fKzwr3ishWd3JmYI0A5Alij8qx0wPxnvE6Dwj4+bN39J4V/qW+Ff1actwrPJ2AnIea4rkGgo/GuL+xCg8I+Pmzd/ic/f/SEU/gr/oPCv3Al4bgcUYv7qAA8oui5CWkvhX19chwCFf3wo/MvHCv86fTLW57PxHgKKGgBSTuHfuLgNAQr/+FD4l48V/nX6rHhOaQiI6fsEFDQApJjCf/riMgQo/OND4V8+VvjX6bOqobG+n9sZyyFAOwBppfCfOddDgMI/PhT+5WOFf50+qxqqeJgP2+J3Y2DBA+I3l8isKPxnz9UQoPCPD4V/+VjhX6fPqoYC1rSwbVesdgKKGgBSRuHfPFEPAQr/+FD4l48V/nX6rGqodp/Wh+3xuRxQ8CwMu65CmkPh33wHzF/COREMAQr/+FD4l48V/nX6rGoopM/SOS1sj8dOwJBnYMh1FTJ7Cv/W2b/FQ4DCPz4U/uVjhX+dPqsaCulz6u+PDzvcDwFDHjDotASZNYV/600MAU3+7ACFf3wo/MvHCv86fVY1FNJnjTX90uUAd7fhD3oYDQBJpvCPzv7zl3BOEz9ASOEfHwr/8rHCv06fVQ2F9FljzdKfhbWww9EQYGDQw9clgKRS+EevWUOAwj8+FP7lY4V/nT6rGgrps074AxP3BOxwcGOg1SWA5FL4uzPbIUDhHx8K//Kxwr9On1UNhfTZYPhXcnBPwKBnDbsiXVJmTeHvXmkImM/SaT1P4R8fCv/yscK/Tp9VDYX0Oc3wr/z5jl1QiOhygIEBz8C2aJaTZmm3+3LE4mNdl5F5+89fwrsP/QEd9pCGHn9M23sV/jFx06arFf6lvhX+sQj/0mOjGgIsPKsBIIFGvEe55uGX8+edm12XknkHLjic9x7207o7AUfn38lbn3eJwj8Gbt78Ja69dxUKf4V/rMK/1Lcduyeg1UOAgW2etRoAkmjY28r6La/QEBAD+4+/Y2CtIUDb/vGhbf/yscK/Tp9VDYX02azwL/2SgZ2t3wnY7hlPA0BSaQiIj1pDgMI/PhT+5WOFf50+qxoK6bPJ4U/FcUuHAMtzntUlgETTEBAfU4cAhX98KPzLxwr/On1WNRTSZ4vC35Qfwq4WDQG+xzbP+jzX/FNLlIa9rVy35TQe37XVdSmZV7oxsHPORxX+MfH9Tdco/Et9K/wTE/6lL1pg5wAUmv0SQcN2s+pOXuJ53NXkU4sDc+2hnH3ojzlo4VLXpYjEgr7zLx8r/Ov0WdVQSJ9RhP+UNT0L8+dDPh9c33TlLH/htXk80ZzTiWvDZivrt+pygAgo/BX+5a8nLvwD+rAGdg02bydgdztPeu07eQrwm3NKcU1DgIjCX+Ff/noiw3/qGuN/P6yBgUEozv6egOLD/8szXvepFIBnZ306iQ0NAZJlCv/yscK/Tp9VDYX06Tj8J3YCGNsJmOUQ8PQNZ1L0xg+enNWpJHaGzVau1asDJGMU/uVjhX+dPqsaCukzJuFf+rK1MDA08yHAMHbpvzQA6D6AFBrxNARIdij8y8cK/zp9VjUU0mcU4U/AGjXCf+LUsxgCrBn7pr80ADw2/VNIEozofQIkAxT+5WOn4R/0WIV//fAP6iOozynrWAuDMxgCzHjme+PF6QXkKTbs6Z4ASS+Ff/nY+Xf+RuE/dc262/5BfQT1GbTO+PkHRqY9BGyB8QHAGA0AaTdstnLd1ldqCJBUUfiXj52Hf8iaCv+ApYPWmGb4T7w6oAiD0xgCrD+W+V7lgaTbkNmiIUBSQ+FfPlb41+mzqqGQPhMW/hPP9WFwuLEhwKNiAPB0CSAzhswW1msIkIRT+JePFf51+qxqKKTPKMKfgDVmGf4TJdjGhgAz6RKAP3Yg2TCsIUASTOFfPlb41+mzqqGQPqMK/6A+gvoMWofa4V86pwWGhsEPeXu/4vhl/4mnr+5jAJhX+ymSNnP9JZx92M0ctGCp61JEGqLwLx8r/Ov0WdVQSJ8J3fYPashUPHbeXPA8ptrR08liKL8MEAubqh4mqTbsbWH9w9oJkGRQ+JePFf51+qxqKKTPFIY/UL4noHon4E+ln0wMAAYerHqYpN6wN35j4K7NrksRqUnhXz5W+Nfps6qhkD5TGv4T/y4sDI1UDQETWe8F/aJky5DZwnVbNARIPCn8y8cK/zp9VjUU0mfKw7/0BevDcMVOgAkaAEzFtoBkz8QQoMsBEiMK//Kxwr9On1UNhfQZRfgTsEbE4V+55vD4ToBvAy4BVP6iZJOGAIkThX/5WOFfp8+qhkL6jOo7/6A+gvoMWofmhX/p2FoYGYHRAg+XnlIeAHxdAhAY0j0BEgMK//Kxwr9On1UNhfSZkW3/mn1asMMBlwAWrORhYAjJPN0TIC4p/MvHCv86fVY1FNJnxsN/3OAVfxOwA9Bt8IE/IEJ5CHhMQ4BESOFfPlb41+mzqqGQPhX+AHiGP2LKbUx6iwAD9yMybshsYb2GAImIwr98rPCv02dVQyF9RhH+BKwRs/AHwJv8Tf6kAcAaDQAymYYAiYLCv3zsNPyDHqvwrx/+QX0E9Rm0DtGEvzFgi/y+8tcmDwBWA4BU0xAgraTwLx87/87fKPynrll32z+oj6A+g9YhwvAHTJ7fVf76pAEgV9QAIME0BEgrKPzLx87DP2RNhX/A0kFrxDj8AXKEDAAPPsyfgEFEAmgIkGZS+JePFf51+qxqKKRPhX/1GmMGF580+TN/Jg0AN5xJkSkTgkilITP2AUIaAmQ2FP7lY4V/nT6rGgrpM4rwJ2CN+Ic/Bv6ne+zVfhOqPijQwl1Tf02k0pCnIUBmTuFfPlb41+mzqqGQPqMK/6A+gvoMWgdH4T/2gHumPKx6APCMBgCpT0OAzITCv3ys8K/TZ1VDIX1GEf61+gjqM2gdHIa/hZytzvaqAcA3bJz6ayJBNATIdCj8y8cK/zp9VjUU0mdU4R8QxEkJf4Bcjr4pD68eAIYW8jtgdOqviwTRECCNUPiXjxX+dfqsaiikT4V/9RqVNZT/fo/u3o97pzylegC48ihGDJPfLEAkzJCntw2W2hT+5WOFf50+qxoK6VPhX71GZQ22/HMP/njlUYxMeVr1ADC+/h1Bvy5Sy6A+O0ACKPzLxwr/On1WNRTSZxThT8AaCQx/AGu4kwDBA4DVACDTpyFAKin8y8cK/zp9VjUU0mdU3/kH9RHUZ9A6xCf8x38emOmBA0BeOwAyQxoCBBT+Cv/y1xMZ/gFBnNTwB2iz/IYAgQNAeyf3A9uDviZSz6DeMTDTFP7lY4V/nT6rGgrpU+FfvUZlDTXC38COBScHv81/4ADQbfCx1S8ZEGnUkHYCMknhXz5W+Nfps6qhkD4V/tVrVNZQI/wxgKGve8o7AJYEDgAAxuP2Wl8TaYQuB2SLwr98rPCv02dVQyF9RhH+BKyRhvAH8INvAISQAcD6wdcMRKZj0Gzhuq0aAtJO4V8+dhr+QY9V+NcP/6A+gvoMWocYhz9g8vyKGmoPACPcChRqfV2kUYNoCEgzhX/52Pl3/kbhP3XN0PCv1UdQn0HrEPPwh8LuYX5NDTUHgN5T2Inl7lpfF5mOQXQ5II0U/uVj5+EfsqbCP2DpoDVSFP4AvuXuq05lFzXUHADGT1Zz60BkunRPQLoo/MvHCv86fVY1FNKnwr96jcoaGgx/AA9urf7VSV8PYTUASHNpCEgHhX/5WOFfp8+qhkL6jCL8CVgjheGPBc/wi4CvTAgdAHaP8msIfvmAyExpCEg2hX/5WDf81emzqsiQPqMK/6A+gvoMWofkhL8xFHeY2tf/oc4AcPnJPAvcE/YYkZnQmwUlk8K/fOz8O3+j8J+6Zmj41+ojqM+gdUhU+IPhni+OZXhN4ZcAxhb4ad3HiMyA3iwoWRT+5WPn4R+ypsI/YOmgNdIc/oDn8fOAR0xSdwAwvgYAaR29T0AyKPzLxwr/On1WNRTSp8K/eo3KGmYY/hgojPJfAY+apO4AMHcXtwJD9R4nMlN6n4B4U/iXjxX+dfqsaiikzyjCn4A1MhD+WAY5IPz6PzQwAHSfyjB1XkogMlsTQ8DAZtelSAWFf/lY4V+nz6qGQvqMKvyD+gjqM2gdEhv+5Ay/vvIoRgIePUn9ewDGitBlAGm5Qbbwxa2v5qnBR1yXIsAPNl2r8C/1rfBPVvjX6iOoz6B1SG74GwM+/Czg0VUaGgA8n5sbeZzIbO2yD3H1wy/ncV0OcOrmzV/i6nvPR+Gv8E9k+AeEYlbCHyDn8aOAZ1Sp8UdWbXUfm4DDG328yGzMYwlnL7mZA+YvdV1K5mjbv3ys8K/TZ1VDIX0q/KvXqKyhSeGPZfMVf9lYVje0AzBe1A8bfazIbA2yhWs3656AqCn8y8cK/zp9VjUU0qfCv3qNyhqaFf5j5/hBwLMCNTwAgAYAidaQN/Y+AY9rCIiEwr98rPCv02dVQyF9RhH+BKyRwfAHwOP7Ac8M1PAAMLCIW4CdjT5epBkG2cL6rRoCWk3hXz7W2/vW6bOqyJA+owr/oD6C+gxahxSFP+wsPMsvA54dqOEBYPwlBQ3dWSjSTINWQ0ArKfzLx86/8zcK/6lrhoZ/rT6C+gxah1SFP8bwsytfVf/lfyXTuQSAMdw0nceLNIuGgNZQ+JePnYd/yJoK/4Cla4RiVsMfwOSml9HTGgCGPb4L7J7Oc0SaZdBu4d+2vponB7e6LiUVvr/pGoV/qW+Fv8I/oKFEhb9hty20cAC44ni2QePXF0SabZd9iGse/nvtBMzSzZu/xDX3XoDCX+GfuPAnYI2Mhz+ANdxyeZ1P/5tqWgPAeFHfmfZzRJpokLGPEtYQMDPa9i8f64a/On1WFRnSZ1ThH9RHUJ9B65DO8B9/2I3hj6g27QEgV+S7QHG6zxNpJg0BM6PwLx87/87fKPynrhka/rX6COozaB1SHP6GwtBYNk/LtAeAi07kCSy/me7zRJptkC2sf1hDQKMU/uVj5+EfsqbCP2DpGqGo8J/4+q+v+UueDH9ktelfAhir6YaZPE+k2QaN3iyoEQr/8rHCv06fVQ2F9Knwr16jsoZowh8vx7fDHxlsRgNALse3gMJMnivSbANoCAij8C8fK/zr9FnVUEifUYQ/AWso/Ced1xh243F9+KODzWgAuHgZT1mrNwWS+NAQEEzhXz5W+Nfps6qhkD6jCv+gPoL6DFqH9If/+NN/emknT4c/I9iMBoBx/zGL54o03YBuDJxE4V8+VvjX6bOqoZA+owj/Wn0E9Rm0DtkIfwDP8s3wZ9Q24wHAb+dGYGCmzxdpBb06YIzCv3ys8K/TZ1VDIX1GFf4BoajwD/z64NAw3wt/Vm0zHgAuOY4Baxv/2EGRqGR9CPjR5i8q/Et9K/wV/gENpSH8jQHP8L2rTmVX+DNrm80lAIzh67N5vkirZHUI+NHmL/KFuz+Mwl/hr/APbigt4Y8F3+dr4c8MN6sBYNMmfgw8MptziLRK1oYAhX/5WOFfp8+qhkL6jCL8CVhD4R94XlOu7c+PPMJPw58dblYDwA1nUrTwjdmcQ6SVBsnGpwgq/MvHCv86fVY1FNJnVN/5B/UR1GfQOmQv/Md//tUbzpzdu/LOagAAyBX5EpN/X0RiZdCmeydA4V8+VvjX6bOqoZA+owr/gFBU+IeHP2B3w5fDz1DfrAeAi0/gjxh+O9vziLRSWi8HKPzLxwr/On1WNRTSp8K/eo3KGtyGP3jc+rkTeSD8LPXNegAAsD5fasZ5RFopbUOAwr98rPCv02dVQyF9Kvyr16iswXH4GwOemf13/9CkAWDePL4F7GjGuURaKS1DgMK/fKzwr9NnVUMhfUYR/gSsofAPPG9Q+APbF3h8K/xMjWnKANB9DLsM/HszziXSamNDwCsSOwQo/MvHTsM/6LEK//rhH9RHUJ9B65Dt8LeAtXy9u5PB8LM1pikDAIDx+AKTf89EYmuQrYkcAhT+5WPn3/kbhf/UNUPDv1YfQX0GrYPCH8Ba1oefrXFNGwAuXsb9wG+adT6RVkvaEKDwLx87D/+QNRX+AUvXCEWF//TCH/j15Sfzu/AzNq5pAwCANVzTzPOJtNogW7lua/yHAIV/+VjhX6fPqoZC+lT4V69RWUOcwt+A1+SMbeoAMLSIbwNPNfOcIq02YMeGgCdiOgQo/MvHCv86fVY1FNJnFOFPwBoK/8Dz1gt/LE8uWMC3w886PU0dAK48ihGDdgEkeQbsVtbHcAhQ+JePFf51+qxqKKTPqMI/qI+gPoPWQeFfeU7P49ruY9gdfubpaeoAMH7Cq6G5RYpEIW5DgMK/fKzwr9NnVUMhfUYR/rX6COozaB0U/lPOOVLwuDr8zNPX9AHgok4ew3J9s88rEoWJIWBws9M6FP7lY4V/nT6rGgrpM6rwDwhFhf+Mwx9j+dYVnTwWfvbpa/oAAOAbLm/FeUWiMGDHXh3gaidA4V8+VvjX6bOqoZA+Ff7Va1TWENPwByhYPht+9plpyQCwrpONwK2tOLdIFFxdDlD4l48V/nX6rGoopE+Ff/UalTXEOPwx/OKKk9gYvsLMtGQAALDaBZCEG7BbuXZLdJcDFP7lY4V/nT6rGgrpM4rwJ2ANhX/geacV/mNrtuS7f2jhADBvGd8F7m/V+UWiUHqzoFYPAQr/8rHCv06fVQ2F9BnVd/5BfQT1GbQOCv9a5zSW/124kpvCV5m5lg0A3QbfWi5r1flFojJxT0CLhgCFf/lY4V+nz6qGQvqMKvwDQlHhP/vwH/9iT7fBD19p5lo2AABsM3zNwtZWriEShVYNAQr/8rHCv06fVQ2F9Knwr16jsoYEhL8xPLpgId8IX2l2WjoArO9k1MDnWrmGSFSaPQQo/MvHCv86fVY1FNKnwr96jcoakhH+4HNZs9/4Z6qWDgAAdphrgedavY5IFJo1BCj8y8cK/zp9VjUU0mcU4U/AGgr/wPPONPwNPLdgUfM+9a+Wlg8AvaewE7iy1euIRGW2Q4DCv3zsNPyDHqvwrx/+QX0E9Rm0Dgr/muec/Gfwue5j2BW+4uy1fAAYdxmwLaK1RFpupkOAwr987Pw7f6Pwn7pmaPjX6iOoz6B1UPjXPOfkNXcM7G7dS/8qRTIA9HSyHfh8FGuJRGXAbuXahxsfAhT+5WPn4R+ypsI/YOkaoajwb3r4Y+CKq/8qmsvmUe0AMJLjUrQLICkzyFaua2AnQOFfPlb41+mzqqGQPhX+1WtU1pCw8MeyY9cIV4Sv2jyRDQBXHM82LFdFtZ5IVHbZ8CFA4V8+VvjX6bOqoZA+owh/AtZQ+AeetwnhjzXRffcPEQ4AAJ7PZcCOKNcUiUKtIUDhXz5W+Nfps6qhkD6jCv+gPoL6DFoHhX/Ncwb/XdtWbIv2LfQjHQAuPoFnrNG7A0o67ZpyY6DCv3ys8K/TZ1VDIX1GEf61+gjqM2gdFP41z1nj75pvueSK46O9TF6n1ebrvo8FQ0M8COwf9doiUVhglnKE92a+cX8PCn+FfyLDPyAUFf6tC38DT5ndHDn+svnIRLoDANB9DLusYW3U64pEZZfdTP/IWtraFP4K/zp9VjUU0qfCv3qNyhoSGv4Avsenog5/cDAAAMyby1XAQy7WFolCWx6OXALtbQp/hX+NPqsaCulT4V+9RmUNCQ5/LA/vXtz6d/0L4mQA6D6G3cbyaRdri0SlLQ+HHwr5PAr/KYUq/Kc2FNJnFOFPwBoK/8DzNjX8Ad+n+8qjGAmvojWcDAAAf3qIrxq419X6IlFob4MjDx0bBhT+1P2Po8LfQfjX6iOoz6B1UPjXPGed8Pfgnq1b+Xp4Fa3jbAC44UyKPpzran2RqLTl4YjxIUDhX3tNhb+j8A8IRYV/68MfoOBz3g1nUgyvpHWcDQAAvZ3cAnzXZQ0iUSgNAe1tCv+gNRX+Cv+shT+Wb192IreEV9JaTgcAAGM5H9xc/xCJUlseDj8Y2tpQ+Cv8a/ep8K9eo7KGFIS/MQwzl67wSlrP+QCwdgWbMNF88pGIa21t40NAfvJ/ExT+Cn+Ff401KmtIQ/gD+Fx2yXHuXwnnfAAAsEN8GnjMdR0iUagcAkDhP+l5IWsq/JsQ/gSsofAPPG+rwt/Cn+cv4OLwaqIRiwGg9xR2Wsv/dV2HSFTa2mDpwWMvEVT4T9ZQ+Ac9VuFfP/yD+gjqM2gdFP41z9nod/6Ab7mw+xh2hVcUjVgMAADzOvkyhg2u6xCJSmkImHh1gMK/8e/8jcJ/6pqh4V+rj6A+g9ZB4V/znNMIfwx3XrbS3cv+porNANBt8ClyLpP//EVSrX3qEIDCv274h6yp8A9YukYoKvwjDn+wvmUVJj4ZF5sBAKBnJbcBN7iuQyRKbW2w9KDxGwMV/pNrUvgH/lzhP0X8wx/P8I1LV/Kr8KqiFasBAKDg0QUMua5DJEoTQ0Cu/GsKfxT+AT9vOPwJWEPhH3jeVoe/teyyRS4Mryp6sRsALl3GwwY+4boOkai1tcFhB439qPCnKiwU/lT3XXHy0N9bhf/kNWqsWVVTE8IfwHj8a++JPBJeWfRiNwAAzN3JpUC/6zpEolbaCchNfdvgrIa/Ga+hxpoK/4Cla/UR1GfQOij8a55zJuEPfZsf4nPhlblR57fLndUbOQ6fDUCb61pEolYowOY/j/2Y6fAPWVPhH7B0jVBU+DsKf0PBGk5Y18nG8OrciOUOAEDPMu7BcLnrOkRcyOfHLweMv1mQwp/qEFT4K/zjHf7g0RPX8IcYDwAAu0foBh50XYeIC22lIaB0Y6DCv7Scwj+oT4V/IFfhbw0PzNvBp8OrcyvWA8DlJzNkLO9h8t8ZkcyY2AkYvxCm8K/f59Q1MxH+QX0E9Rm0Dgr/muec6Xf+YI3H+7pPZTi8QrdiPQAArF3BLzB82XUdIq7k87DkwPIQoPCv3efUNVMf/rX6COozaB0U/jXPOfPwx8L63mX8PLxC92I/AABg+QjwqOsyRFzJ52HJ/tDWrvCv1efUNTMR/gGhqPB3G/7AY6N51oRXGA+JGAB6Otlu4DzXdYi4lG+DQ/aD9nzFLyr8Ff4K/6o1q46jC3/w+MAVx7MtvMp4qPNbGS+r+/h/wOtd1yHi0mgBHnkcRkcV/gr/ij6C+gxaB4V/zXPOMvyN5Ts9K3lTeJXxkYgdgJIcvB942nUdIi615eGQ/SffE6Dwz0j4E7CGwj/wvJF/5295MufzL+FVxkuiBoCLOnkMy7td1yHiWlsbHHLA+BCQxPAPeqzCv374B/UR1GfQOij8a55ztuEPljzvuehEngivNF4SNQAA9Kzge9ay3nUdIq615eHg/Se/RDAR4W/Ga6ixpsI/YOlafQT1GbQOCv+a55x9+ONbru5dxk3hlcZP4gYAgHmG84A/uK5DxLXSENCeT1D4h6yp8A9YukYoKvzjEf4Yfr/AY1V4pfFU57c3vlb1scyD3wLtrmsRcW20AI8+Mfajwp/JAaXwV/i3LvxHCrs56bKTuSu82nhK5A4AwPj7K3/cdR0icVC5EwAo/APWSVz4E7CGwj/wvI7CH3w+ltTwhwQPAAAdy+kF/tt1HSJx0JaHg/av+ACh0hdch3/QYxX+9cM/qI+gPoPWQeFf85xNCn9r+dm8Fcn+wLpEDwDdBj+f5yzgWde1iMRBWx4OOmDyBwg5/87fKPynrll32z+oj6A+g9ZB4V/znM36zt/yXLvlnd0GP7zieEv0AADwmZfwqDW8x3UdInHRlhu7HJDPxyD8Q9ZU+AcsXSMUFf6xCn+M5b2fWcnW8IrjL/EDAEDvcm4EvuK6DpG4yOfh4H0hl1P4K/zD11T4B5daK/zxWN+zkuvDK06GVAwAAB0dfBC433UdInGRb4OD9oN8TuFf1WdVQyF9RhH+BKyh8A88r9PwN/zOz/OR8IqTIzUDQPcx7PKKvAHY7roWkbhoa4OD9oVcHoV/nMM/qI+gPoPWQeFf85zNDf9tnuH0S45jILzq5EjNAABw8Qn80VrOYvLfU5FMKw0BeU/hX91QSJ9RbfsH9RHUZ9A6KPxrnrOZ4Q8Wn3etXc6D4VUnS6oGAIDeFdxkYK3rOkTipC0PB+43dk8AoPAP4CT8A0JR4R+78Mfk+FTvSm4Mrzp5UjcAAMxdzv+xlh+7rkMkTtrycOA+kPNQ+If1qfCvXqOyhoyFv4WfbXqQT4ZXnUx1/iiS67zb2Ku9nT7gcNe1iMTJaAEefxqKRYV/WO0Kf4U/hoeL0HlpZzo/hj6VOwAAl5/Ms77P6cCQ61pE4qQtDwfsM345QOEfWHvLwp+ANRT+ged1Hv4w7BnemNbwhxQPAADrVnK3tZzjug6RuCkNAZNeIjiuofAPeqzCv374B/UR1GfQOij8a56z+eEPHu9fu5z+8MqTLdUDAEDvCr6O4VrXdYjEzcROQMV/BRoKfzP2P4U/1X1XnHxqECv8g8Ux/L0cn+9dzpfDK0++1A8AAIOL+DBwh+s6ROKmLQ8HBL1ZECHhDzUDVOEfsHSNUFT4xzP8jcdtc+dwfnjl6ZCJAeDKoxjxfV5v4GHXtYjETVsO9g+4J0Dhr/APqifV4W94KDfK6d3HsDu8+nSo80eULl39vNBYfgPs6boWkbgZLcATz4BfVPhDE8K/xpoK/9iG//ac5ZSLVvA/4dWnRyZ2AEp6l/N73+cNwBXJucAAABB7SURBVIjrWkTipi0/thNgPALDQuFPdd8VJ1f416g1YM2qY/fhP2o93pil8IeMDQAA61byS2N5B5P/3osIY5cDDtgXcqbiO39DzQBV+AcsXauPoD6D1kHhX/OcrQl/i+Xdvcv4eXj16ZO5AQBg7Qq+CXzKdR0icdSWg/33Lb9tsMKf6r4rTl4V/gGhqPCPbfjj+3T3rOBr4dWnU50/shSzmNX9fAU4y3UpInE0WoQnx+8JUPhP/HTSyRX+NWoNWLPqOAbhby3f7O3kLZhs7ghncgcAAIN9Dt6Nzd62j0gj2nKw317jHyWs8A8PfwLWUPgHnjcu4W8svxzag3dkNfwhywMAsL6TUQxvtGTrxg+RRrXlYd89x4cAFP5hfVb1EdRn0Doo/Gues0Xhj8/9zOENVx6V7RvC6/zxZcOau1hqi9wO7O+6FpE4KhThqWehUFD4Tw1ifecfLLbhb3m8kOPES5fpfWEyvQNQsvZ4NhvDacB217WIxFE+B/vuBfnxnQCFf401FP6B541R+G/zLa9U+I/RADBu7XL6PY9XArtc1yISR5OGAIW/wr+GGIf/oO/x2nUruTu8g+zQAFDh4mX81nq8Hhh2XYtIHOVzsM+eYz+Cwl/hX71m1XE8wn/IGl69bjm/Du8gWzQATNG7jJ9jeD16t0CRQPkc7LMX5Kf81yMT4U/AGgr/wPPGKPxHfY8zezu5JbyD7NEAEKBnOT+xhn8GCq5rEYmjiSGgYicg9eFfq4+gPoPWQeFf85ytC/8icNa65fwgvINs0gBQQ+9ybrTwbsB3XYtIHOVzsPeeYzsBmQh/fecfKMbhb43hvT0r+M/wDrJLA0CI3k6+iuFDrusQiat8DvYu7QQo/IPXQeFf85wtDH9r+MDaTv4tvINs0wBQR89yvmAN57muQySuJnYCxi8HKPyrjxX+AedsXfhjDBf2dnJVeAeiAaABvcu5Avi06zpE4qo0BORKOwGlLyQ5/AkORYV/zMMfPrG2k57wDgRq/lOTIGv6WG1hres6ROKqUIBnt0NxygcIJTL8A9ZU+Mc7/K2hp7eTNeEdSIl2AKZhbSc9WFa7rkMkrvJ52GtxxU5AEsO/1g7GlDUn1ajwr64p+vD/V4X/9GgHYAbW9PFeC19AA5RIoEIBnt0GRUhe+AeEosI/1uFvMZzX08lnwzuQqTQAzFBXP28xlq8A+XqPFcmiYhGe2QZ+ZVIp/BX+zQ3/ovV4T+9yvhzegQTRADALq/s5E8u/A22uaxGJo2IRntkOvk+8w7/Gmgr/WIf/bgtv6V3Bt8M7kFo0AMzS6j5OA24AOlzXIhJHxeLYjYH+1LfUUvhXrTnpOGBNhf9EDSPAP/as4HvhHUgYDQBNsOpO/trz+D6w0HUtInFULMKzO8Avjv9CXMJf2/41xTj8Bwy8fu0KfhbegdSjAaBJ1tzJCuvxY2Av17WIxFGxCM9th6IN/rrCv/aaCv+JGrZhOa1nJbeFdyCN0ADQRGv6WW4tPwT2d12LSBwVi/DcDihOuRyg8K+9psJ/oobHDbxq7QruCu9AGqUBoMkuuIPDczl+CLzQdS0icTR1CFD4115T4T9Rw32FHKdduoyHwzuQ6dDr2JvskhN4yLTzl6DPnhYJksvBnuNvFhR5+BMcigr/GIe/z3+P5DlF4d98GgBaYO2xPNfRwSuAr7muRSSOch7suWj8HQOj/M6/8usK/8lr1FizqqYowx++0jGfV15xPNvCO5CZqPPXQmbFYtb08XFr+Ff0ey1SpejDtu0VbxbUyvDXd/6BYhr+1lg+ubaTT2Am/ZZIEymUItDVx/9nYD3Q7roWkbgpFmHbDvBB4T+1hmyG/25reXfvCr4eXr3MlgaAiKzp52+t5TvAHq5rEYmbYhG27xjbCVD4Zzr8nzOW09eu4Bfh1UszaACI0IUbeZHv80NgqetaROKmWIRtO8vvGNiUG/4qf6Lwn7xGjTWraoou/B+yhtN6l/P78OqlWXQTYIQuXsb9vs9JwO2uaxGJm1wOFi8Ez1P4B9WT6vD3uK3YxokK/2hpAIjYupU83rGTv7LQ47oWkbjJ52CPRWNDAMxi27/y6wr/yWvUWLOqpojCH4/1HXM59ZLjeDK8emk2XQJwaHU/b8VyLTDPdS0icVL0YcfOilcH6Jr/ZOkI/2EP/mXtCr4UXrm0igYAx1bdyUs8jxuBw13XIhInRR927Br7ACGF/+Q1Ex/+hi2ez5vWrmRDeOXSSroE4Ni6ldztFVkB/MR1LSJxkvNg0QLwcmPHda/5K/wDxS38Lfx4dDfHK/zd0w5AXFjMmn66LFyEBjORCRM7AT61w7/yJwr/yWvUWLOqptaHvyVH77zj+Wi3YcrHQYkLGgBiZlU/r/YsX0fvFyAyoejDjoGxIUDb/jVqDViz6thR+FvYYSzv6F3JjeFVS5Q0AMTQqrs4yhS50cCLXdciEhdFH3buCr4xUOFfvWbVsavwN/zBGE7XS/ziR1vNMbTueB6Y18FJGN0dK1KS82DhgvGXCCr8a4pT+BuP62wbnQr/eNIOQMx19XO6sawH9nZdi0gcFH3YNVBxT4DCf/IaNdasqqm14b/N+rx/3Ql8M7xicUkDQAKsupMDjOHLxvAK17WIxEHRh12D5ZcIKvzjE/7W57/b2znrMy/h0fCKxTUNAElhMav7+RBj7yA4x3U5Iq4VfRgYHPtR4R9wHH34jxqfiztW8And5Z8MGgAS5qMbeHHR8B/AX7iuRcS1iZ2Aqa8OQOEfWFPrwv/3dpS3rjuJjeHVSpzoJsCEuWgF/7N7NycY+ByT/1sjkjk5DxbMG/uxksI/oKYWhb+Ff/fbWKHwTx7tACTY6n7+ActXgANc1yLiUtGHgYGxlwgq/ANqak34P0WOd/cu46bwSiWutAOQYD3L+UkOlhmjf4CSbTkPFswvf4pgicK/xjlnG/6WG/NF/kLhn2zaAUiJNX2cYeEqYB/XtYi44o/fE2Ctwr/mOWcX/o9bw4fWdXJDeJWSBBoAUuSCe9gvX+ASa3mb61pEXPF9GBgaf8dAhX+zwt8ayzd2F/jw5SfzbHiVkhQaAFKoawNvMoYr0b0BklGlnYAqCv9JX28w/P9oc5y9bhm/DK9Qkkb3AKRQ7wq+DbzAjL1SoOi6HpGoeeOvDpgUgAr/SV9vIPwL1qN33i6OU/ink3YAUm5VH8s8WA8sd12LSNT8IgwMl8NR4U9D4Q/cbfK8p3cZfeHVSZJpByDl1nWy8Tk4ycAaIGhTVCS1vBzM7wDPKPwbDP8BDB/ZvJlOhX/6aQcgQz52NwcXi1ysmwQla3wfBkfA+ij8g0u1xvCd3QVWXXESm8Mrk7TQAJBBXX2cCnzOwItd1yISFd+HweGxlwgCCv/yufqtz3nrTuDX4VVJ2ugSQAb1dnLLvJ0cD5wLbHddj0gUPA/mzR0PRoU/Fh7zLe+b18lKhX82aQcg4z56O/sXcnzSGN4F5FzXI9JqpZ2ACVkLf8OwsVzuz+EzlxzHQHhFkmYaAASAC/t4gQ+fBM5wXYtIq/k+DI1UvFPglK+nNfw9ww9H4UOXr2BTeDWSBRoAZJI1G3iZNVwCHOe6FpFWKg0Bk5KelIa/5W48zrtkBb8Ir0SyRAOAVDnjenKHH8lZnuXjFg5zXY9Iq1g7vhPgjx2nLfwNbC7CJxat4GvdBj+8EskaDQBSU/d9tA8P83Zr+QR6W2FJKWthaPyegLSEv4FnLFy6YIDLu0+l8o4HkQkaAKSuC+5hfn6UD9ixNxPaw3U9Is02sRNQGfhJDH+PncA1C4p8uvtEdoRXIFmnAUAa1nUrC725vF+DgKRRaQgYOxj7ITHh77OLHFcXR1mrT+uTRmkAkGmrGARWA3u6rkekWSovByQh/I3HTlvk2qLPxQp+mS4NADJj597FHu0+HzaWDwF7ua5HpBmsD8OjTLkhIOiBDsPf8CyWKwuDXHHFqWyr05JIIA0AMmvdtzB3aAFnYvgocLTrekRmy1oYLl0OiFH4e4YnjGG98bi0p1Pv4imzowFAmqbb4g1t5DRgDZaTXdcjMhvWh5HRqrcJcBL+Bv5kPL4wvAdXXXkUI4g0gQYAaYnVff9/e/cXIlUZh3H8+3tXB3W1VmULRMlUyhQSFd1tW4qItS4su2i7CLwowoguKgpRvJmrAtvSgm7sosCLSiMohTCLkDTd/JfBWMYqhP3Tjdx03T9n55xfF6O01bjr6s6e2Z3nA8MyzM2zMMz7zDvn/F4agReBh9GZEzJKuUNv1G9xHuHFPxh7Emfza8v5GPt/FxG5HioAUlLrDjIH4zmHp4BJaecRGSp3iPoKkwNHaPGPEmdnldHSUsf+4fgfRIpRAZARsf4ItUnCM8CzwE1p5xEZCneI8pcmBpZu8T9rsCUE3np1Ob8PV3aRK1EBkBGVzZHp6WaVG2tw7kfvQRkl3KEv/5+dgCsYyuJvxtFgvJ3P8+6mBrqHM7PIQPThK6lZe5DbMZ6wws8D09POIzKYyyXAB/g1/ioX//MJfBgyvPn6Eo6VJKzIIFQAJHUvHaN6XJ5mnCcdGtH7UspcFBW5O4BBF3/H2EfCO+ECH7Q8wMWShhQZhD5opaxs+IZZceBxh6eBW9POI1JMsZ2AKy3+7vxmxntxzJY3GjkxokFFBqACIGXp0kyBJnNWOzwCVKedSaQ/B/r6CiWgyNjgToMdibO1pp5dOopXypEKgJS97JdM6L6BJpzVwCogk3YmESiUgPw/OwGxw1fB2Douz/aNjVxIN53IwFQAZFRZ38r0JPAoxmPAvUBV2pmkouUTZ08+4qOLEdu23McfaQcSuVoqADJqvfA10zLjWWlGs8MKtDMgIyN2OGCwvSrP+y/XcybtQCLXQgVAxoTnj1KTyfOQBVbhrACmpJ1JxpTzwC6MT3B26CAeGQtUAGTMad5G1Zw53OWw0gpnEdyRdiYZlU6587kFdk6cwK7sQqK0A4kMJxUAGfPWH2J+bDyI02SF6wZ0R4EU0wnsAXaHmE9fqePHtAOJlJIKgFSUbI5MTxcNGCvcacJYjC4krFQxxhGDz+KY3dXV7Ne3fKkkKgBS0bI5Jvd0UQ80euBunHvQxYRjVQx8a7AP2Nsb8cWmBv5MO5RIWlQARPrJ5pjc000D0OhQR+FxY8qx5Np0AK3mHAD25jPsb1mk8bsil6kAiAwg64Teo8yPnToS6s2oAxYA49POJv/SB+QwWg0OJNC6cQk/YEVH9osIKgAiQ7bmEOOnJtyGsdSMpQksNVgETE47W4XoBE6Ycdydw8DhKOKwjtIVGRoVAJFhsvYIM0LMAjcWurMAY6HBnWgmwbXqBU4COXOOY+Q84fjEZXyv2foi108FQKSUHNtwkJl9gXkB5iYwz4x5OHOBuagcnAdOAW1Am8FJnLYkpm1jHb9oC1+kdFQARFK07jumesTMxLglOLNwZlpglifMcONmg1oKj5B21iFKgHaHdnPOWOBXTzhtxunY+Dk4P/VWcXrzYjrSDipSqVQARMpc8zaqZs+mNgRqzahNEqYFo8ahxowaTy79hUkYU3AmABMpDDzKULiLoX+BuPx6f91AT7/nCfAXEAEXDbrc6MW5YNDlTocFOtzpcOdcgA4C59xpTxLaq5dxVtv0IuXtb7YQ2noBTLkDAAAAAElFTkSuQmCC;" vertex="1" parent="1">
          <mxGeometry x="190" y="1446" width="22" height="22" as="geometry" />
        </mxCell>
        <mxCell id="v3sYc3gb-yKhHvJauMw6-24" value="" style="shape=image;verticalLabelPosition=bottom;labelBackgroundColor=default;verticalAlign=top;aspect=fixed;imageAspect=0;image=data:image/png,iVBORw0KGgoAAAANSUhEUgAAAgAAAAIACAYAAAD0eNT6AAAACXBIWXMAAA7DAAAOwwHHb6hkAAAAGXRFWHRTb2Z0d2FyZQB3d3cuaW5rc2NhcGUub3Jnm+48GgAAIABJREFUeJzs3XmcXGWZ9//Pfaq6k87KvhMCiKg4IEknLMM4w4zOqLiiMM6o/FxBHRcQ0gn6PGO7QbrDpihLGPdxHEF5FBd01MEFEUh3WBzQEQwhAdkhW2/pqnP//uiuruquU6equ6vOfZbv+/XS5KSrzn1dWfhefZ9TVQYRibWz+2jbw2NfW2C/nMd+1rCHgT2w7GlhDwt7AIs9w3wL86zPfGNoBxYD+fEfKy0A2qb82iiwa8qvbQOKwHZr2W08BgwM+pYBA9sMbLOWbcZjG5bnfMs2k+NJC0/N286T3adSaMFvh4g0iXFdgEiWXbiRfW2RQ3w4FFiC4RAPDrFwMLAfsO/4/5LoKeBJ4Cksj1jDo1geMR4P+0W2+h6PXNrJ066LFMkqDQAiLXTG9eQOO4wlnsfzPMORPjzPwJF2/Eegw3WNjg0BDwJ/Ah7E8qCBP5HnwbkvYUu3wXdcn0hqaQAQaZKujRzkFXmRNRxjLS/CcIyBlwDzXdeWULsZGw7uM5b7Mdxnfe7ftJk/3HAmRdfFiSSdBgCRaTq7j7Y9fZ6PYbkxLPdhuYHjgXmua8uIUeABY+i3ln6gvwM2dncy6LowkSTRACAS4ozryR1xBC8ycIKFE4GVwAsZu7lO4qNg4H4f7sRyex7uaO/kfl1CEKlNA4BIhe7bWTSS4xQf/hLDSUAnsNB1XTIjO7BsMB63W5/f2BFu7T2Fna6LEokLDQCSaV23stCbwwm+4WXAKWbsO/ypL5GTdCgC/2stt3qGn43CLXoVgmSZBgDJlPNuo6OtjVOAlxvDy4Hj0L+DrPKBezD81Pj8dO4ubu0+lWHXRYlERf/hk9RbvZHjKPIPeLwcyynAXNc1SSwNAb8Gfgr8pKeT3zmuR6SlNABI6nTfwtzhBZyC4TUWXg8scV2TJI+Bh33LT4zHDzp28FPtDkjaaACQVLjwDva2Hq+zhtcCL0OvvZfmGgD+yxhuGhnhpstP5lnXBYnMlgYASazz+9gnb3mVMZxh4R/QzXsSjaKF2w3ckIPrL+rkMdcFicyEBgBJlI/ezv7FPGcCZwInA57jkiTbilh+g8f1nuH6i5fxlOuCRBqlAUBi77zb6JjTzquBs/SdvsRY0cLtnuFr/hDf1HsOSNxpAJBY6r6F/MAiXuFZ3ga8Bn1ojiTLIIabsPz7pk38WJ9dIHGkAUBipWsDR3vwT9bwDnT3vqTDYwZuKBi+eMly7nVdjEiJBgBxrutWFpoO3mx93mHG3n5XJJUs/AbLl+fN41vdx7DLdT2SbRoAxJkL+3hBEd5u4GxgT9f1iERop7V80+S4qmcZ97guRrJJA4BEqvs+2oeHeJ01nI3lZa7rEYmBfmNYPzLC1y8/mSHXxUh2aACQSHRt5CDP8n5rORvY13U9IjH0JLA+B1fpvQUkChoApKVW9bHMWM4xhrPQe/CLNGI38D3P4/KLl/Fb18VIemkAkKbrtniDfZxuPM7DcrLrekQS7FZruHzeMr7bbfBdFyPpogFAmqb7PtqHBnkzhguBF7iuRyRFNgGf69jJtfpQImkWDQAya123stDM5Z3AKuBg1/WIpNgTxnLNcJ4rrjieba6LkWTTACAzdt5t7NXeznnAB4HFrusRyZBtwOdMO1esPZbnXBcjyaQBQKZt/KN3P2gNHwb2cF2PSIbtsvCF0d306iOKZbo0AEjDzu9jnzbLB6zhXPQdv0ic7DLwJa/ARRedyBOui5Fk0AAgdXXfx4LhIf7FwoUo+EXibJeFLxi4uKeT7a6LkXjTACA1dd9H+/Awb7eWTwL7u65HRBr2jIF1c3fyWb1qQGrRACBVum8hP7SId2D5V+AQ1/WIyIxtMZZP/OkhvqqPJJapNADIJGs28DJruAz4C9e1iEjT/AHLR3pWcLPrQiQ+NAAIABdu5EVFn3UGXuW6FhFpDQM/KMK56zr5k+taxD0NABn3sbs5uFDg08BZgOe6HhFpuREMn+0Y5TPdJ7LDdTHijgaAjDq7j7Y94f3Ap4CFrusRkcg9A3xq0yY+r/sDskkDQAZ1beTvjM/ngBe5rkVEnLsLj3N7lvEr14VItDQAZMiqPo704GLgDNe1iEi8GPhBociHLjmBh1zXItHQAJABZ/fRtqdhFZb/C8x1XY+IxNYQlu6OXVzWfSoF18VIa2kASLlVd/ISz+PfgOWuaxGRZDBwLz7vXruSDa5rkdbRAJBS591GR1s7HzdwAZBzXY+IJE7BwFWFNj56yXEMuC5Gmk8DQAqt3shL8bkOeL7rWkQk8TYZyzlrV/Az14VIc2kASJFz72KP9gI9xvAe9GcrIs11g1fkfRefwDOuC5HmUEikxOp+XoPlauBg17WISGo9gaWrZwVfc12IzJ4GgIT72N0cXCxwjYVXu65FRDLjezl430WdPOa6EJk5DQAJtqafN1jLdcDermsRkczZhuV9PSv4T9eFyMxoAEig826jY047ay18yHUtIpJtxvD1uXN5f/cx7HJdi0yPBoCE6dpIp/H5BrrDX0Ti4yHP4y0XL+O3rguRxmkASAqLWd3Ph4BeoN11OSIiUxSM5TN/eohP6cOFkkEDQAKs7mOJMXzNWv7adS0iImGs5be+z1v0mQLxp89/j7muDbwJuEvhLyJJYAwn5XLc1dXPW1zXIuG0AxBT3bezaLiNz1vL21zXIiIyQ1/p6OCDukEwnjQAxFDXBo42hhuBF7muRURklv6Iz+k9K7nPdSEymS4BxEzXBl5rDHeg8BeRdHg+Hr8dv5wpMaIdgJg443pyhx/BZwx0oT8XEUkfa+DKuTs5v/tUCq6LEQVNLJzfxz55+A/g5a5rERFpJWP4pTfKP150Ik+4riXrNAA4tqqPZR58B1jquhYRkYg84sGbLu7kDteFZJnuAXBo9QbO8uBWFP4iki2H+PDL1f28x3UhWaYdAAc++ABz5m3nStBffhHJNmP4+sgI51x+MkOua8kaDQAR69rIQcbyXSwrXNciIhITd/g+r1+3ksddF5IlGgAi9NENvLho+CGwxHUtIiIx86jv8+p1K7nbdSFZoXsAIrJmAy8rGm5F4S8iEuRgz+NXqzfwSteFZIUGgAh09fMOa/gRsNh1LSIiMbYQw02rN3CO60KyQANAK1nMmg10G8uXgDbX5YiIJEAewzVr+vgsVpepW0m/uS3ywQeYM387X7ToE7FERGboho6dnNV9KsOuC0kjDQAtcN5t7DVnDjfqI3xFRGbJcFvB8rpLO3nadSlpowGgydZs4Ag7dqf/C1zXIiKSEg/6OV617ngecF1ImmgAaKKuDaw0hh8A+7quRUQkZZ4whtPWLqffdSFpoZsAm2TNBv7GGH6Kwl9EpBX2t5ZfdPVxqutC0kIDQBOs7uc11nAzsMh1LSIiKbbAwA/W9PH3rgtJAw0As7S6n7diuRGY67oWEZEMmGfh+2v6eYPrQpJOA8AsrNnAeVi+BuRd1yIikiHt1vKtNf38o+tCkkwDwAyt6WeVNVyGbqQUEXGhzVq+0bWBd7kuJKk0AMzAmj5WW0uv6zpERDIuZwzXdfVzrutCkkgDwDSt2UC3hbWu6xAREQCMsVze1c/HXReSNNq+nobVfXwK+D+u6xARkWoWeno7WeO6jqTQDkCDVm/gMyj8RURiy8DqNX180nUdSaEdgAboO38RkUS5sKdTl2rr0QBQx+o+/hX4hOs6RERkWs7v6eQy10XEmQaAEGv6ON/CJa7rEBGRabMYzulZznWuC4krDQA1dPVzrrFc7roOERGZsaIxvGXtcr7lupA40gAQoGsDbzOGr6LfHxGRpBvF8Mae5XzfdSFxo4CbYvUGXofh2+jtfUVE0mI3ltf3rOBm14XEiQaACmv6+Vtr+SH6YB8RkbQZxOOVPcv4letC4kIDwLiuDaw0hp8DC1zXIiIiLbHdGP5u7XL6XRcSBxoAgAvu4PBcjtuB/VzXIiIiLfW0MZy0djkPui7Etcy/E+B5t7FXLsfNKPxFRLJgH2v5/pp72dN1Ia5legDovo/29nZuAI52XYuIiETmBXaE737wAea4LsSl7A4AFjM8zL8Bf+u6FBERiZjhpfN28BVsdi+FZ3YAWN3Hp63lba7rEBERRyxvXtOX3Y8RzuTks2YD77SGL7quQ0REnLMW3tHbyVddFxK1zA0AazbwN9bwE6DddS0iIhILo8byqrUr+JnrQqKUqQHgwo28yPf5DbCH61pERCRWdgCn9HTyO9eFRCUzA8BH+ziwCLcDS1zXIiIisbTZ9zlp3Uoed11IFDJxE2D3LcwtGr6Hwl9ERGpb6nn8v6y8PDATA8DQQj6PZYXrOkREJPZOnLeDz7ouIgqpHwDW9HM28C7XdYiISEJYzunakP7cSPU9AOMf8PMryMZ2joiINM2w9fir3mX0uS6kVVI7AFx4B3v7OfqApa5rERGRRNpSgOWXdvK060JaIZWXAM64npyf4z9Q+IuIyMwtyVv+84zrybkupBVSOQAccQRrgb93XYeIiCSc4e+OOJxPui6jFVJ3CaCrj9cbuJEU9iYiIk5YazmzdwXfdl1IM6UqJLs2cLQx3Akscl2LiIikyk7P48SLl3G/60KaJTWXALpvZ5EZe7Mfhb+IiDTbQt/nhu77WOC6kGZJzQAw3MbngaNd1yEiIqn1oqEhrnBdRLOk4hJA1wbeZAw3uK5DRETSzxjevHY533Jdx2wlfgDoup1DTJ57gL1c1yIiIpmwDTiup5MtrguZjURfAui2eCbP11D4i4hIdPbA8vWkvz9AogeAwT4uBE51XYeIiGSM4aVHHM75rsuYjcReAljTz3JruQ1od12LiIhk0qi1nNK7gjtdFzITidwBuOAe5lvLN1D4i4iIO23G8I2kvjQwkQNAbpTPopf8iYiIe88bHGKd6yJmInGXANb08wZrudF1HSIiIhMsr+9ZwfdclzEdiRoAPnY3BxcK3APs7boWERGRCk/n4NiLOnnMdSGNStQlgEKBL6DwFxGR+NmnCNe5LmI6EjMArN7Am4HXua5DRESkhtNW9/HProtoVCIuAZx3G3u1t3M/sL/rWkREREI8kytwzEUn8oTrQupJxA7AnHYuQ+EvIiLxt3cxz7Wui2hE7HcAuvo41cDPSUCtIiIiANZyRu8Kvu26jjCxDtXuPuYNwb3Aka5rERERmYYnTDsvXHssz7kupJZYXwIYgk+h8BcRkeTZ39/NRa6LCBPbHYA1d7LCevwWkv1pSyIiklk+Pn/Vs5LbXBcSJJY7AN23kLce16LwFxGR5PKsx7Vn99HmupAgsRwAhhbRBRzvug4REZHZMPDiveAjrusIErtLAKv6ONKD/wHmuq5FRESkCQYLHi+6dBkPuy6kUux2ADzL5Sj8RUQkPeblfS5xXcRUsdoBWNPH31v4ies6REREms7wip7l8cm42AwA3ffRPjTEvcDRrmsRERFpgd8/B8et72TUdSEQo0sAg0Ocj8JfRETS64V7wgddF1ESix2Aj93NwYUCfwAWuK5FRESkhXbkCjw/Dh8WFIsdgGKBz6DwFxGR9FtUyPFJ10VADHYAVm/kOHw2EpNhREREpMWKwPE9nfzOZRHuQ9dySSzqEBERiUYOuMJ1EU6Dd1U/r8byMpc1iIiIOPC3q/v5B5cFOBsAum8h71l6Xa0vIiLikrVccsb17j7zxtkAMLyIdwIvdLW+iIiISwZefOSRvM3h+tHrvoW5gwv5o4FDXawvIiISBwYeHljM0VcexUjUazvZARhayAcU/iIiknUWDuvYzjku1o58B6DrVhaauTwI7Bf12iIicfLC/Lt4qvg7nrZ3ui5F3HrKDnNk7ynsjHLRyHcAzFy6UPiLSMYdnX8nZx31Wd73vJvYx6x0XY64ta+Zy4ejXjTSHYDz+9gnD5uAhVGuKyISJ0fn38nbj/ocZvw/wQOFnVz94Gu1E5Bt2007h689lueiWjDSHYAcXIDCX0QybGr4A8zPL9ROgCy2uzk3ygUj2wG48A729nM8hAYAEcmooPCvpJ2AzNth2lka1S5AZDsANsf5KPxFJKPqhT9oJ0BYxEh09wJEsgNw3m3s1d7OZjQAiEgGNRL+lbQTkGmR3QsQyQ7AnDl8BIW/iGTQdMMfKnYC0E5ABi32R/lQFAu1fAeg+3YWDeV5GNij1WuJiMTJTMK/0kBhJ1c/8FqeRjsBGfNcRwdLuo9hVysXafkOwFCe96PwF5GMmW34w/hOwFG6JyCD9hwa4h2tXqSlOwAffIA587bzEHBgK9cREYmTZoR/Jd0TkEkPdezk+d2nUmjVAi3dAZi3jbej8BeRDGl2+INeHZBRhw8v5A2tXKBlA8AZ15PDcH6rzi8iEjetCP+S+fmFvF9DQKZYw6pWnr9lA8Dhh/MG4KhWnV9EJE5aGf4l8zQEZItlxeo+TmnV6Vt5CeAjLTy3iEhsRBH+JRoCMqdlO+kt+du6pp/l1tLXinOLiMRJlOFfabCwk6t0Y2AWWGs4pnc5v2/2iVuyA2CtvvsXkfRzFf6gnYAMMdjWvDFQ0//Wdm3kIOPzENDe7HOLiMSFy/CvpJ2ATBjOFVh60Yk80cyTNn0HwBT5FxT+IpJicQl/0E5ARswttPHeZp+0qX97x9/4ZyuwbzPPKyISF3EK/0raCUi9JwcXs+TKoxhp1gmbugMwbwdnoPAXkZSKa/jD2E7AB573Aw7ItexVY+LWfvO3cXozT9jsSwDva/L5RERiIc7hXzI3P5/3HnGjhoCUsjT3MkDT/iZf0M+xOcs9zTqfiEhcJCH8Kw0XBrjmodN5vHCr61KkyXKWv7hoBf/TjHM1bQfAs/ruX0TSJ2nhD+M7AYdrJyCNfMN7mnWupvyN7r6PBUNDPAosasb5RETiIInhX2m4MMA1m07n8aJ2AlJke7GNgy85joHZnqgpOwBDw/wTCn8RSZGkhz/onoCUWpwvcEYzTtScSwCWdzblPCIiMZCG8C/REJA+1ucdzTjPrP92d23gaGP4fTPOJSLiWprCv9JwYYBrN53OY7ockAbWGJ6/djkPzuYkzdgBeBcKfxFJgbSGP4ztBJxzxI0cqJ2ANDDA22d7klkNAN23kDeGt862CBER19Ic/iUaAtLDWt5+xvXkZnOOWQ0AQ4t4JXDgbM4hIuJaFsK/RENAahx8xJG8bDYnmN0lAMvbZvV8ERHHshT+JRNDQF5DQJKZWWbwjP/Gd93KQjOXJ4CO2RQgIuJKFsO/km4MTLyBjg4O6D6GXTN58sx3AOZyOgp/EUmorIc/6HJACswfHuQ1M33yjAcAA/880+eKiLik8C8rDQF6n4BksvBPM33ujP72X3AP++VGeRTIz3RhEREXFP7B9LbBiTXqFTnw4hN4ZrpPnNEOgDfKm1H4i0jCKPxrK71joG4MTJw2m5vZWwPP9BLAmTN8noiIEwr/+ubm53PO4RoCksYyswFg2v8SVt3JAZ7HozTxo4RFRFpJ4T89w4UBrn3odB4r6HJAQhSLbRx0yXE8OZ0nTTvEjcfpM3meiIgLCv/p005A4uTyo7x2uk+a/gAAb5zuc0REXFD4z5yGgGTx7fSzeVr/Ki68g739HI+jGwBFJOYU/s0xdjngjTxW+LXrUiTcqGln/7XH8lyjT5jWDkAxz2tR+ItIzCn8m2dsJ+A7HJj/K9elSLg2f4RXT+cJ0xoAPHj99OoREYmWwr/5NAQkgzHTuw+g4X8hH3yAOfO28zSwYNpViYhEQOHfWsOFAdZvfiN/HtXlgJjaNbiYfa48ipFGHtzwDsCCbfwdCn8RiSmFf+vNzc/n7KXf4aA27QTE1IL522j4D6fhAcA307u2ICISFYV/dDQExJuF0xp9bMMDgIFXzawcEZHWUfhHT0NAjE3jPoCGBoAL+jnWwmEzr0hEpPkU/u5oCIitIy7s4wWNPLChASDn84rZ1SMi0lzHtL1X4e/Y3Px83r30Bub5R7guRSoUTWOZ3dglAI+Xz6oaEZEmOjr/Tt76vEsU/jHwi0eup2/TQwwOua5EJtjGMrvuv57uW5g7tJBngY5ZFyUiMkva9o+PH23+Il+4+8OAJZeDpQfDPCVFHAwMLmbvei8HrLsDMLyQl6LwF5EYUPjHR2X4AxR9ePjPaCcgHubP38ZJ9R5UdwCwaPtfRNxT+MfH1PDHgDFQLI4NAUPDTssTGsvuRu4B0AAgIk4p/OOjVvhjx35e8OEhDQHuNXDvXui/pvNuY6/2dp5iBh8bLCLSDAr/+KgX/uM/gIVcHpYeBB1zXVWbef5Ijr2vOJ5ttR4QGuxt7by03mNERFpF4R8f0wl/xi8HbH4UhnRPgCvenCJ/GfqAsC8aw0ubW4+ISGMU/vEx3fAffwi+Dw8/piHAmToZHv7dveWvm1qMiEgDFP7xMdPwL/2kWBoCdE9A9OpkeM1/Xd23s2goz7NArulFiYjUoPCPj9mGf+VxLgdLDtQ9AREr2GH26j2FnUFfrLkDMJLjFBT+IhIhhX98NDP8AQoFvUTQgTxzOLHWF2sOANZwSmvqERGppvCPj2aHv7Vjz/d1OSBynqHmpzXVHgCoPTWIiDSTwj8+WhX+pS/4RdjyZxgKfZNaaRYLJ9T6WuAA0G3xgOUtq0hEZJzCPz5aHf4TLxG0GgIidMJ4plcJ/MVdG3kxsKilJYlI5in84yOq8Ify5YCtGgKisHjkLl4Q9IXAASAXsmUgItIMCv/4iDr8S8sUx4eAQd0T0FK2GHxJP/geAKsBQERaR+EfH67Cv/Tlog+PPK4hoJX8Gt/U17oJcGULaxGRDFP4x4fr8LfjPyn68MhjuhzQKsYEDwBV/wK7b2Hu0EJ2AvmWVyUimaLwj4+4hP/EDwZyBg45EDrmNKFBqTTasZNF3acyaZ+lagdgcAHHovAXkSZT+MdHHMMfxm4M1E5AS7QNLORFU3+xagAwcHw09YhIVij84yOu4W/GH+fbsXsCNAQ0l7HV2V59D4CnAUBEmkfhHx9xD//SsfXhUQ0BTRX0zX3QTYDLIqhFRDJA4R8fSQn/0ikndgL06oDmCPjmftIAcMb15LC8OLqKRCStFP7xkbTwL9VkLTz6hIaAprAcO/UdAScdPO8wjgQ6Ii1KRFJH4R8fSQ3/yp0ADQFNsWDXnRxW+QuTBgCb55ho6xGRtFH4x0fSw5/x2qyFPz8Jw7onYFbMlIyfNAD4fvXLBEREGqXwj4+0hH9pzdJOgIaAmfOmZPykAcAYDQAiMjMK//hIW/iXTupb+LOGgBmbmvFTXwWgAUBEpk3hHx9pDf/SA7QTMHO21gAwfnfg0ZFXJCKJpvCPj7SHf+nQt/DokzC8u9bvhASyvBBb/u2eGADG7w7UKwBEpGEK//jISvhPPNQfvxygIWA6FnTdwcGlg4kBwPN4npt6RCSJFP7xkbXwLz3M16sDps3LlbN+YgAwRgOAiDRG4R8fWQ3/0k+sD489pSGgYSZgALBwpJtqJIs8O4c5/oGuy5AZOKbtvQr/mPjen67KdPhX7gQ8/hSM6HJAXZVZX94BQDsAEg1j23n14q/zvsNuocMudV2OTMPR+Xfy1uddovCPgR9t/iLrf9dF1sMfM7am78OfNQQ0onoHAA0AEgFj23nN4n/n5INP44AFh3LOkh9rCEgIbfvHR9a3/aeGP4A1GgIaNGUAGHtZwOGuqpFsqAz/kokhwF/qrjCpS+EfHwr/8nFl+E8814fHntYQEGLyJYAL72IfYJ6zciT1gsK/5IAFh3LOYRoC4krhHx8K//JxUPiXfuIXx24M1BAQaOGae9kTxgeAgs+hbuuRNAsL/xINAfGk8I8PhX/5OCz8S2tYC48/DSOjyBSF0bHM9wA8qwFAWqOR8C/REBAvCv/4UPiXjxsJ/xK/OP7qAA0Bk+RsxQBg0QAgzTed8C/REBAPCv/4UPiXj6cT/hM7AT48oXsCploC4wOA8TQASHPNJPxLNAS4pfCPD4V/+Xgm4V/6erEIjz+jIaDEULEDgOUQp9VIqswm/Es0BLih8I8PhX/5eDbhb8fX9LUTMMFWXgIADnJYi6RIM8K/RENAtBT+8aHwLx83I/xLD/ctPPEM7NYQcCCUB4D9HRYiKdHM8C/REBANhX98KPzLx80M/xLf1xBgzVjmawCQpmhF+JccsOBQzln6Y+bpHQNbQuEfHwr/8nErwr90nPUhwMB+AObsPtr2hBGqf59EGtLK8K/0+K6trN/yCgbN5paukyUK//hQ+JePWxn+lT/xDOy3N8xpJ2v8jp3M8fbNsx8Kf5khz87hdXt8s+XhD2M7Ae869AfM9fWilWbQp/rFx02brlb4l/qOKPwNY/cEPPksjGTvo4S93R3s7RVHx7YCRKar9Kl+Jx70isjWPHjh4bz3sP/S5YBZ0qf6xcePNn+Ra+9dhcI/2vAv9e3740NAxi4H7G5jfw/Dvq4LkeSJats/yAELlnD2kps1BMyQtv3jQ9v+5WMX4Y8tHz+VsSHAM+zrYcY+FECkUS7Dv0RDwMwo/OND4V8+dhn+pa9Zm60hwCuyh2d99nBdiCRHHMK/ZGII0EsEG6Lwjw+Ff/k4DuFfemxpJ2B3Fj47wLCndgCkYXEK/5IDFizh7MO0E1CPwj8+FP7l4ziFf2XhWRgCLOzhAYtdFyLxF8fwL9HlgHAK//hQ+JeP4xj+pTV8C08+k/ohYLFn0SUACRfn8C/REBBM4R8fCv/ycZzD3078X8p3Aix7agdAQiUh/Es0BEym8I8PhX/5OAnhX3mc1iHAGPbwjGWB60IknpIU/iUaAsYo/OND4V8+TlL4l75ugaefS98QYGG+B8xzXYjETxLDvyTrQ4DCPz4U/uXjJIZ/6QnWpnIImOfh0eG6ComXJId/SVaHAIV/fCj8y8dJDv/SL1sLz6RoCDDQ4WG1AyBlaQj/kqwNAQr/+FD4l4/TEP4T5aVoJ8DCPF0CkAlpCv+SiSGApa5LaSmFf3wo/Mso9BDMAAAgAElEQVTHaQr/0pct8Mw2GC2QdPM8iy4BSDrDv+SABUs4+9D0DgEK//hQ+JeP0xj+pZ9YC08nfwjo8AzMdV2FuJXm8C9J6xCg8I8PhX/5OM3hP3Eem/idgA4PyLuuQtzJQviXpG0IUPjHh8K/fJyF8J/YCfATPQTkNQBkWJbCvyQtQ4DCPz4U/uXjLIV/6bD06oDR5N0YmPOAnOsqJHpZDP+SpL86QOEfHwr/8nEWw7/yN+iZHYkbAvIaADIoy+FfcsD8ZH6KoMI/PhT+5eMsh78xY31bP3FDgHYAskbhXzYxBLDUdSkNUfjHh8K/fKzwr3ishWd3JmYI0A5Alij8qx0wPxnvE6Dwj4+bN39J4V/qW+Ff1actwrPJ2AnIea4rkGgo/GuL+xCg8I+Pmzd/ic/f/SEU/gr/oPCv3Al4bgcUYv7qAA8oui5CWkvhX19chwCFf3wo/MvHCv86fTLW57PxHgKKGgBSTuHfuLgNAQr/+FD4l48V/nX6rHhOaQiI6fsEFDQApJjCf/riMgQo/OND4V8+VvjX6bOqobG+n9sZyyFAOwBppfCfOddDgMI/PhT+5WOFf50+qxqqeJgP2+J3Y2DBA+I3l8isKPxnz9UQoPCPD4V/+VjhX6fPqoYC1rSwbVesdgKKGgBSRuHfPFEPAQr/+FD4l48V/nX6rGqodp/Wh+3xuRxQ8CwMu65CmkPh33wHzF/COREMAQr/+FD4l48V/nX6rGoopM/SOS1sj8dOwJBnYMh1FTJ7Cv/W2b/FQ4DCPz4U/uVjhX+dPqsaCulz6u+PDzvcDwFDHjDotASZNYV/600MAU3+7ACFf3wo/MvHCv86fVY1FNJnjTX90uUAd7fhD3oYDQBJpvCPzv7zl3BOEz9ASOEfHwr/8rHCv06fVQ2F9FljzdKfhbWww9EQYGDQw9clgKRS+EevWUOAwj8+FP7lY4V/nT6rGgrps074AxP3BOxwcGOg1SWA5FL4uzPbIUDhHx8K//Kxwr9On1UNhfTZYPhXcnBPwKBnDbsiXVJmTeHvXmkImM/SaT1P4R8fCv/yscK/Tp9VDYX0Oc3wr/z5jl1QiOhygIEBz8C2aJaTZmm3+3LE4mNdl5F5+89fwrsP/QEd9pCGHn9M23sV/jFx06arFf6lvhX+sQj/0mOjGgIsPKsBIIFGvEe55uGX8+edm12XknkHLjic9x7207o7AUfn38lbn3eJwj8Gbt78Ja69dxUKf4V/rMK/1Lcduyeg1UOAgW2etRoAkmjY28r6La/QEBAD+4+/Y2CtIUDb/vGhbf/yscK/Tp9VDYX02azwL/2SgZ2t3wnY7hlPA0BSaQiIj1pDgMI/PhT+5WOFf50+qxoK6bPJ4U/FcUuHAMtzntUlgETTEBAfU4cAhX98KPzLxwr/On1WNRTSZ4vC35Qfwq4WDQG+xzbP+jzX/FNLlIa9rVy35TQe37XVdSmZV7oxsHPORxX+MfH9Tdco/Et9K/wTE/6lL1pg5wAUmv0SQcN2s+pOXuJ53NXkU4sDc+2hnH3ojzlo4VLXpYjEgr7zLx8r/Ov0WdVQSJ9RhP+UNT0L8+dDPh9c33TlLH/htXk80ZzTiWvDZivrt+pygAgo/BX+5a8nLvwD+rAGdg02bydgdztPeu07eQrwm3NKcU1DgIjCX+Ff/noiw3/qGuN/P6yBgUEozv6egOLD/8szXvepFIBnZ306iQ0NAZJlCv/yscK/Tp9VDYX06Tj8J3YCGNsJmOUQ8PQNZ1L0xg+enNWpJHaGzVau1asDJGMU/uVjhX+dPqsaCukzJuFf+rK1MDA08yHAMHbpvzQA6D6AFBrxNARIdij8y8cK/zp9VjUU0mcU4U/AGjXCf+LUsxgCrBn7pr80ADw2/VNIEozofQIkAxT+5WOn4R/0WIV//fAP6iOozynrWAuDMxgCzHjme+PF6QXkKTbs6Z4ASS+Ff/nY+Xf+RuE/dc262/5BfQT1GbTO+PkHRqY9BGyB8QHAGA0AaTdstnLd1ldqCJBUUfiXj52Hf8iaCv+ApYPWmGb4T7w6oAiD0xgCrD+W+V7lgaTbkNmiIUBSQ+FfPlb41+mzqqGQPhMW/hPP9WFwuLEhwKNiAPB0CSAzhswW1msIkIRT+JePFf51+qxqKKTPKMKfgDVmGf4TJdjGhgAz6RKAP3Yg2TCsIUASTOFfPlb41+mzqqGQPqMK/6A+gvoMWofa4V86pwWGhsEPeXu/4vhl/4mnr+5jAJhX+ymSNnP9JZx92M0ctGCp61JEGqLwLx8r/Ov0WdVQSJ8J3fYPashUPHbeXPA8ptrR08liKL8MEAubqh4mqTbsbWH9w9oJkGRQ+JePFf51+qxqKKTPFIY/UL4noHon4E+ln0wMAAYerHqYpN6wN35j4K7NrksRqUnhXz5W+Nfps6qhkD5TGv4T/y4sDI1UDQETWe8F/aJky5DZwnVbNARIPCn8y8cK/zp9VjUU0mfKw7/0BevDcMVOgAkaAEzFtoBkz8QQoMsBEiMK//Kxwr9On1UNhfQZRfgTsEbE4V+55vD4ToBvAy4BVP6iZJOGAIkThX/5WOFfp8+qhkL6jOo7/6A+gvoMWofmhX/p2FoYGYHRAg+XnlIeAHxdAhAY0j0BEgMK//Kxwr9On1UNhfSZkW3/mn1asMMBlwAWrORhYAjJPN0TIC4p/MvHCv86fVY1FNJnxsN/3OAVfxOwA9Bt8IE/IEJ5CHhMQ4BESOFfPlb41+mzqqGQPhX+AHiGP2LKbUx6iwAD9yMybshsYb2GAImIwr98rPCv02dVQyF9RhH+BKwRs/AHwJv8Tf6kAcAaDQAymYYAiYLCv3zsNPyDHqvwrx/+QX0E9Rm0DtGEvzFgi/y+8tcmDwBWA4BU0xAgraTwLx87/87fKPynrll32z+oj6A+g9YhwvAHTJ7fVf76pAEgV9QAIME0BEgrKPzLx87DP2RNhX/A0kFrxDj8AXKEDAAPPsyfgEFEAmgIkGZS+JePFf51+qxqKKRPhX/1GmMGF580+TN/Jg0AN5xJkSkTgkilITP2AUIaAmQ2FP7lY4V/nT6rGgrpM4rwJ2CN+Ic/Bv6ne+zVfhOqPijQwl1Tf02k0pCnIUBmTuFfPlb41+mzqqGQPqMK/6A+gvoMWgdH4T/2gHumPKx6APCMBgCpT0OAzITCv3ys8K/TZ1VDIX1GEf61+gjqM2gdHIa/hZytzvaqAcA3bJz6ayJBNATIdCj8y8cK/zp9VjUU0mdU4R8QxEkJf4Bcjr4pD68eAIYW8jtgdOqviwTRECCNUPiXjxX+dfqsaiikT4V/9RqVNZT/fo/u3o97pzylegC48ihGDJPfLEAkzJCntw2W2hT+5WOFf50+qxoK6VPhX71GZQ22/HMP/njlUYxMeVr1ADC+/h1Bvy5Sy6A+O0ACKPzLxwr/On1WNRTSZxThT8AaCQx/AGu4kwDBA4DVACDTpyFAKin8y8cK/zp9VjUU0mdU3/kH9RHUZ9A6xCf8x38emOmBA0BeOwAyQxoCBBT+Cv/y1xMZ/gFBnNTwB2iz/IYAgQNAeyf3A9uDviZSz6DeMTDTFP7lY4V/nT6rGgrpU+FfvUZlDTXC38COBScHv81/4ADQbfCx1S8ZEGnUkHYCMknhXz5W+Nfps6qhkD4V/tVrVNZQI/wxgKGve8o7AJYEDgAAxuP2Wl8TaYQuB2SLwr98rPCv02dVQyF9RhH+BKyRhvAH8INvAISQAcD6wdcMRKZj0Gzhuq0aAtJO4V8+dhr+QY9V+NcP/6A+gvoMWocYhz9g8vyKGmoPACPcChRqfV2kUYNoCEgzhX/52Pl3/kbhP3XN0PCv1UdQn0HrEPPwh8LuYX5NDTUHgN5T2Inl7lpfF5mOQXQ5II0U/uVj5+EfsqbCP2DpoDVSFP4AvuXuq05lFzXUHADGT1Zz60BkunRPQLoo/MvHCv86fVY1FNKnwr96jcoaGgx/AA9urf7VSV8PYTUASHNpCEgHhX/5WOFfp8+qhkL6jCL8CVgjheGPBc/wi4CvTAgdAHaP8msIfvmAyExpCEg2hX/5WDf81emzqsiQPqMK/6A+gvoMWofkhL8xFHeY2tf/oc4AcPnJPAvcE/YYkZnQmwUlk8K/fOz8O3+j8J+6Zmj41+ojqM+gdUhU+IPhni+OZXhN4ZcAxhb4ad3HiMyA3iwoWRT+5WPn4R+ypsI/YOmgNdIc/oDn8fOAR0xSdwAwvgYAaR29T0AyKPzLxwr/On1WNRTSp8K/eo3KGmYY/hgojPJfAY+apO4AMHcXtwJD9R4nMlN6n4B4U/iXjxX+dfqsaiikzyjCn4A1MhD+WAY5IPz6PzQwAHSfyjB1XkogMlsTQ8DAZtelSAWFf/lY4V+nz6qGQvqMKvyD+gjqM2gdEhv+5Ay/vvIoRgIePUn9ewDGitBlAGm5Qbbwxa2v5qnBR1yXIsAPNl2r8C/1rfBPVvjX6iOoz6B1SG74GwM+/Czg0VUaGgA8n5sbeZzIbO2yD3H1wy/ncV0OcOrmzV/i6nvPR+Gv8E9k+AeEYlbCHyDn8aOAZ1Sp8UdWbXUfm4DDG328yGzMYwlnL7mZA+YvdV1K5mjbv3ys8K/TZ1VDIX0q/KvXqKyhSeGPZfMVf9lYVje0AzBe1A8bfazIbA2yhWs3656AqCn8y8cK/zp9VjUU0qfCv3qNyhqaFf5j5/hBwLMCNTwAgAYAidaQN/Y+AY9rCIiEwr98rPCv02dVQyF9RhH+BKyRwfAHwOP7Ac8M1PAAMLCIW4CdjT5epBkG2cL6rRoCWk3hXz7W2/vW6bOqyJA+owr/oD6C+gxahxSFP+wsPMsvA54dqOEBYPwlBQ3dWSjSTINWQ0ArKfzLx86/8zcK/6lrhoZ/rT6C+gxah1SFP8bwsytfVf/lfyXTuQSAMdw0nceLNIuGgNZQ+JePnYd/yJoK/4Cla4RiVsMfwOSml9HTGgCGPb4L7J7Oc0SaZdBu4d+2vponB7e6LiUVvr/pGoV/qW+Fv8I/oKFEhb9hty20cAC44ni2QePXF0SabZd9iGse/nvtBMzSzZu/xDX3XoDCX+GfuPAnYI2Mhz+ANdxyeZ1P/5tqWgPAeFHfmfZzRJpokLGPEtYQMDPa9i8f64a/On1WFRnSZ1ThH9RHUJ9B65DO8B9/2I3hj6g27QEgV+S7QHG6zxNpJg0BM6PwLx87/87fKPynrhka/rX6COozaB1SHP6GwtBYNk/LtAeAi07kCSy/me7zRJptkC2sf1hDQKMU/uVj5+EfsqbCP2DpGqGo8J/4+q+v+UueDH9ktelfAhir6YaZPE+k2QaN3iyoEQr/8rHCv06fVQ2F9Knwr16jsoZowh8vx7fDHxlsRgNALse3gMJMnivSbANoCAij8C8fK/zr9FnVUEifUYQ/AWso/Ced1xh243F9+KODzWgAuHgZT1mrNwWS+NAQEEzhXz5W+Nfps6qhkD6jCv+gPoL6DFqH9If/+NN/emknT4c/I9iMBoBx/zGL54o03YBuDJxE4V8+VvjX6bOqoZA+owj/Wn0E9Rm0DtkIfwDP8s3wZ9Q24wHAb+dGYGCmzxdpBb06YIzCv3ys8K/TZ1VDIX1GFf4BoajwD/z64NAw3wt/Vm0zHgAuOY4Baxv/2EGRqGR9CPjR5i8q/Et9K/wV/gENpSH8jQHP8L2rTmVX+DNrm80lAIzh67N5vkirZHUI+NHmL/KFuz+Mwl/hr/APbigt4Y8F3+dr4c8MN6sBYNMmfgw8MptziLRK1oYAhX/5WOFfp8+qhkL6jCL8CVhD4R94XlOu7c+PPMJPw58dblYDwA1nUrTwjdmcQ6SVBsnGpwgq/MvHCv86fVY1FNJnVN/5B/UR1GfQOmQv/Md//tUbzpzdu/LOagAAyBX5EpN/X0RiZdCmeydA4V8+VvjX6bOqoZA+owr/gFBU+IeHP2B3w5fDz1DfrAeAi0/gjxh+O9vziLRSWi8HKPzLxwr/On1WNRTSp8K/eo3KGtyGP3jc+rkTeSD8LPXNegAAsD5fasZ5RFopbUOAwr98rPCv02dVQyF9Kvyr16iswXH4GwOemf13/9CkAWDePL4F7GjGuURaKS1DgMK/fKzwr9NnVUMhfUYR/gSsofAPPG9Q+APbF3h8K/xMjWnKANB9DLsM/HszziXSamNDwCsSOwQo/MvHTsM/6LEK//rhH9RHUJ9B65Dt8LeAtXy9u5PB8LM1pikDAIDx+AKTf89EYmuQrYkcAhT+5WPn3/kbhf/UNUPDv1YfQX0GrYPCH8Ba1oefrXFNGwAuXsb9wG+adT6RVkvaEKDwLx87D/+QNRX+AUvXCEWF//TCH/j15Sfzu/AzNq5pAwCANVzTzPOJtNogW7lua/yHAIV/+VjhX6fPqoZC+lT4V69RWUOcwt+A1+SMbeoAMLSIbwNPNfOcIq02YMeGgCdiOgQo/MvHCv86fVY1FNJnFOFPwBoK/8Dz1gt/LE8uWMC3w886PU0dAK48ihGDdgEkeQbsVtbHcAhQ+JePFf51+qxqKKTPqMI/qI+gPoPWQeFfeU7P49ruY9gdfubpaeoAMH7Cq6G5RYpEIW5DgMK/fKzwr9NnVUMhfUYR/rX6COozaB0U/lPOOVLwuDr8zNPX9AHgok4ew3J9s88rEoWJIWBws9M6FP7lY4V/nT6rGgrpM6rwDwhFhf+Mwx9j+dYVnTwWfvbpa/oAAOAbLm/FeUWiMGDHXh3gaidA4V8+VvjX6bOqoZA+Ff7Va1TWENPwByhYPht+9plpyQCwrpONwK2tOLdIFFxdDlD4l48V/nX6rGoopE+Ff/UalTXEOPwx/OKKk9gYvsLMtGQAALDaBZCEG7BbuXZLdJcDFP7lY4V/nT6rGgrpM4rwJ2ANhX/geacV/mNrtuS7f2jhADBvGd8F7m/V+UWiUHqzoFYPAQr/8rHCv06fVQ2F9BnVd/5BfQT1GbQOCv9a5zSW/124kpvCV5m5lg0A3QbfWi5r1flFojJxT0CLhgCFf/lY4V+nz6qGQvqMKvwDQlHhP/vwH/9iT7fBD19p5lo2AABsM3zNwtZWriEShVYNAQr/8rHCv06fVQ2F9Knwr16jsoYEhL8xPLpgId8IX2l2WjoArO9k1MDnWrmGSFSaPQQo/MvHCv86fVY1FNKnwr96jcoakhH+4HNZs9/4Z6qWDgAAdphrgedavY5IFJo1BCj8y8cK/zp9VjUU0mcU4U/AGgr/wPPONPwNPLdgUfM+9a+Wlg8AvaewE7iy1euIRGW2Q4DCv3zsNPyDHqvwrx/+QX0E9Rm0Dgr/muec/Gfwue5j2BW+4uy1fAAYdxmwLaK1RFpupkOAwr987Pw7f6Pwn7pmaPjX6iOoz6B1UPjXPOfkNXcM7G7dS/8qRTIA9HSyHfh8FGuJRGXAbuXahxsfAhT+5WPn4R+ypsI/YOkaoajwb3r4Y+CKq/8qmsvmUe0AMJLjUrQLICkzyFaua2AnQOFfPlb41+mzqqGQPhX+1WtU1pCw8MeyY9cIV4Sv2jyRDQBXHM82LFdFtZ5IVHbZ8CFA4V8+VvjX6bOqoZA+owh/AtZQ+AeetwnhjzXRffcPEQ4AAJ7PZcCOKNcUiUKtIUDhXz5W+Nfps6qhkD6jCv+gPoL6DFoHhX/Ncwb/XdtWbIv2LfQjHQAuPoFnrNG7A0o67ZpyY6DCv3ys8K/TZ1VDIX1GEf61+gjqM2gdFP41z1nj75pvueSK46O9TF6n1ebrvo8FQ0M8COwf9doiUVhglnKE92a+cX8PCn+FfyLDPyAUFf6tC38DT5ndHDn+svnIRLoDANB9DLusYW3U64pEZZfdTP/IWtraFP4K/zp9VjUU0qfCv3qNyhoSGv4Avsenog5/cDAAAMyby1XAQy7WFolCWx6OXALtbQp/hX+NPqsaCulT4V+9RmUNCQ5/LA/vXtz6d/0L4mQA6D6G3cbyaRdri0SlLQ+HHwr5PAr/KYUq/Kc2FNJnFOFPwBoK/8DzNjX8Ad+n+8qjGAmvojWcDAAAf3qIrxq419X6IlFob4MjDx0bBhT+1P2Po8LfQfjX6iOoz6B1UPjXPGed8Pfgnq1b+Xp4Fa3jbAC44UyKPpzran2RqLTl4YjxIUDhX3tNhb+j8A8IRYV/68MfoOBz3g1nUgyvpHWcDQAAvZ3cAnzXZQ0iUSgNAe1tCv+gNRX+Cv+shT+Wb192IreEV9JaTgcAAGM5H9xc/xCJUlseDj8Y2tpQ+Cv8a/ep8K9eo7KGFIS/MQwzl67wSlrP+QCwdgWbMNF88pGIa21t40NAfvJ/ExT+Cn+Ff401KmtIQ/gD+Fx2yXHuXwnnfAAAsEN8GnjMdR0iUagcAkDhP+l5IWsq/JsQ/gSsofAPPG+rwt/Cn+cv4OLwaqIRiwGg9xR2Wsv/dV2HSFTa2mDpwWMvEVT4T9ZQ+Ac9VuFfP/yD+gjqM2gdFP41z9nod/6Ab7mw+xh2hVcUjVgMAADzOvkyhg2u6xCJSmkImHh1gMK/8e/8jcJ/6pqh4V+rj6A+g9ZB4V/znNMIfwx3XrbS3cv+porNANBt8ClyLpP//EVSrX3qEIDCv274h6yp8A9YukYoKvwjDn+wvmUVJj4ZF5sBAKBnJbcBN7iuQyRKbW2w9KDxGwMV/pNrUvgH/lzhP0X8wx/P8I1LV/Kr8KqiFasBAKDg0QUMua5DJEoTQ0Cu/GsKfxT+AT9vOPwJWEPhH3jeVoe/teyyRS4Mryp6sRsALl3GwwY+4boOkai1tcFhB439qPCnKiwU/lT3XXHy0N9bhf/kNWqsWVVTE8IfwHj8a++JPBJeWfRiNwAAzN3JpUC/6zpEolbaCchNfdvgrIa/Ga+hxpoK/4Cla/UR1GfQOij8a55zJuEPfZsf4nPhlblR57fLndUbOQ6fDUCb61pEolYowOY/j/2Y6fAPWVPhH7B0jVBU+DsKf0PBGk5Y18nG8OrciOUOAEDPMu7BcLnrOkRcyOfHLweMv1mQwp/qEFT4K/zjHf7g0RPX8IcYDwAAu0foBh50XYeIC22lIaB0Y6DCv7Scwj+oT4V/IFfhbw0PzNvBp8OrcyvWA8DlJzNkLO9h8t8ZkcyY2AkYvxCm8K/f59Q1MxH+QX0E9Rm0Dgr/muec6Xf+YI3H+7pPZTi8QrdiPQAArF3BLzB82XUdIq7k87DkwPIQoPCv3efUNVMf/rX6COozaB0U/jXPOfPwx8L63mX8PLxC92I/AABg+QjwqOsyRFzJ52HJ/tDWrvCv1efUNTMR/gGhqPB3G/7AY6N51oRXGA+JGAB6Otlu4DzXdYi4lG+DQ/aD9nzFLyr8Ff4K/6o1q46jC3/w+MAVx7MtvMp4qPNbGS+r+/h/wOtd1yHi0mgBHnkcRkcV/gr/ij6C+gxaB4V/zXPOMvyN5Ts9K3lTeJXxkYgdgJIcvB942nUdIi615eGQ/SffE6Dwz0j4E7CGwj/wvJF/5295MufzL+FVxkuiBoCLOnkMy7td1yHiWlsbHHLA+BCQxPAPeqzCv374B/UR1GfQOij8a55ztuEPljzvuehEngivNF4SNQAA9Kzge9ay3nUdIq615eHg/Se/RDAR4W/Ga6ixpsI/YOlafQT1GbQOCv+a55x9+ONbru5dxk3hlcZP4gYAgHmG84A/uK5DxLXSENCeT1D4h6yp8A9YukYoKvzjEf4Yfr/AY1V4pfFU57c3vlb1scyD3wLtrmsRcW20AI8+Mfajwp/JAaXwV/i3LvxHCrs56bKTuSu82nhK5A4AwPj7K3/cdR0icVC5EwAo/APWSVz4E7CGwj/wvI7CH3w+ltTwhwQPAAAdy+kF/tt1HSJx0JaHg/av+ACh0hdch3/QYxX+9cM/qI+gPoPWQeFf85xNCn9r+dm8Fcn+wLpEDwDdBj+f5yzgWde1iMRBWx4OOmDyBwg5/87fKPynrll32z+oj6A+g9ZB4V/znM36zt/yXLvlnd0GP7zieEv0AADwmZfwqDW8x3UdInHRlhu7HJDPxyD8Q9ZU+AcsXSMUFf6xCn+M5b2fWcnW8IrjL/EDAEDvcm4EvuK6DpG4yOfh4H0hl1P4K/zD11T4B5daK/zxWN+zkuvDK06GVAwAAB0dfBC433UdInGRb4OD9oN8TuFf1WdVQyF9RhH+BKyh8A88r9PwN/zOz/OR8IqTIzUDQPcx7PKKvAHY7roWkbhoa4OD9oVcHoV/nMM/qI+gPoPWQeFf85zNDf9tnuH0S45jILzq5EjNAABw8Qn80VrOYvLfU5FMKw0BeU/hX91QSJ9RbfsH9RHUZ9A6KPxrnrOZ4Q8Wn3etXc6D4VUnS6oGAIDeFdxkYK3rOkTipC0PB+43dk8AoPAP4CT8A0JR4R+78Mfk+FTvSm4Mrzp5UjcAAMxdzv+xlh+7rkMkTtrycOA+kPNQ+If1qfCvXqOyhoyFv4WfbXqQT4ZXnUx1/iiS67zb2Ku9nT7gcNe1iMTJaAEefxqKRYV/WO0Kf4U/hoeL0HlpZzo/hj6VOwAAl5/Ms77P6cCQ61pE4qQtDwfsM345QOEfWHvLwp+ANRT+ged1Hv4w7BnemNbwhxQPAADrVnK3tZzjug6RuCkNAZNeIjiuofAPeqzCv374B/UR1GfQOij8a56z+eEPHu9fu5z+8MqTLdUDAEDvCr6O4VrXdYjEzcROQMV/BRoKfzP2P4U/1X1XnHxqECv8g8Ux/L0cn+9dzpfDK0++1A8AAIOL+DBwh+s6ROKmLQ8HBL1ZECHhDzUDVOEfsHSNUFT4xzP8jcdtc+dwfnjl6ZCJAeDKoxjxfV5v4GHXtYjETVsO9g+4J0Dhr/APqifV4W94KDfK6d3HsDu8+nSo80eULl39vNBYfgPs6boWkbgZLcATz4BfVPhDE8K/xpoK/9iG//ac5ZSLVvA/4dWnRyZ2AEp6l/N73+cNwBXJucAAABB7SURBVIjrWkTipi0/thNgPALDQuFPdd8VJ1f416g1YM2qY/fhP2o93pil8IeMDQAA61byS2N5B5P/3osIY5cDDtgXcqbiO39DzQBV+AcsXauPoD6D1kHhX/OcrQl/i+Xdvcv4eXj16ZO5AQBg7Qq+CXzKdR0icdSWg/33Lb9tsMKf6r4rTl4V/gGhqPCPbfjj+3T3rOBr4dWnU50/shSzmNX9fAU4y3UpInE0WoQnx+8JUPhP/HTSyRX+NWoNWLPqOAbhby3f7O3kLZhs7ghncgcAAIN9Dt6Nzd62j0gj2nKw317jHyWs8A8PfwLWUPgHnjcu4W8svxzag3dkNfwhywMAsL6TUQxvtGTrxg+RRrXlYd89x4cAFP5hfVb1EdRn0Doo/Gues0Xhj8/9zOENVx6V7RvC6/zxZcOau1hqi9wO7O+6FpE4KhThqWehUFD4Tw1ifecfLLbhb3m8kOPES5fpfWEyvQNQsvZ4NhvDacB217WIxFE+B/vuBfnxnQCFf401FP6B541R+G/zLa9U+I/RADBu7XL6PY9XArtc1yISR5OGAIW/wr+GGIf/oO/x2nUruTu8g+zQAFDh4mX81nq8Hhh2XYtIHOVzsM+eYz+Cwl/hX71m1XE8wn/IGl69bjm/Du8gWzQATNG7jJ9jeD16t0CRQPkc7LMX5Kf81yMT4U/AGgr/wPPGKPxHfY8zezu5JbyD7NEAEKBnOT+xhn8GCq5rEYmjiSGgYicg9eFfq4+gPoPWQeFf85ytC/8icNa65fwgvINs0gBQQ+9ybrTwbsB3XYtIHOVzsPeeYzsBmQh/fecfKMbhb43hvT0r+M/wDrJLA0CI3k6+iuFDrusQiat8DvYu7QQo/IPXQeFf85wtDH9r+MDaTv4tvINs0wBQR89yvmAN57muQySuJnYCxi8HKPyrjxX+AedsXfhjDBf2dnJVeAeiAaABvcu5Avi06zpE4qo0BORKOwGlLyQ5/AkORYV/zMMfPrG2k57wDgRq/lOTIGv6WG1hres6ROKqUIBnt0NxygcIJTL8A9ZU+Mc7/K2hp7eTNeEdSIl2AKZhbSc9WFa7rkMkrvJ52GtxxU5AEsO/1g7GlDUn1ajwr64p+vD/V4X/9GgHYAbW9PFeC19AA5RIoEIBnt0GRUhe+AeEosI/1uFvMZzX08lnwzuQqTQAzFBXP28xlq8A+XqPFcmiYhGe2QZ+ZVIp/BX+zQ3/ovV4T+9yvhzegQTRADALq/s5E8u/A22uaxGJo2IRntkOvk+8w7/Gmgr/WIf/bgtv6V3Bt8M7kFo0AMzS6j5OA24AOlzXIhJHxeLYjYH+1LfUUvhXrTnpOGBNhf9EDSPAP/as4HvhHUgYDQBNsOpO/trz+D6w0HUtInFULMKzO8Avjv9CXMJf2/41xTj8Bwy8fu0KfhbegdSjAaBJ1tzJCuvxY2Av17WIxFGxCM9th6IN/rrCv/aaCv+JGrZhOa1nJbeFdyCN0ADQRGv6WW4tPwT2d12LSBwVi/DcDihOuRyg8K+9psJ/oobHDbxq7QruCu9AGqUBoMkuuIPDczl+CLzQdS0icTR1CFD4115T4T9Rw32FHKdduoyHwzuQ6dDr2JvskhN4yLTzl6DPnhYJksvBnuNvFhR5+BMcigr/GIe/z3+P5DlF4d98GgBaYO2xPNfRwSuAr7muRSSOch7suWj8HQOj/M6/8usK/8lr1FizqqYowx++0jGfV15xPNvCO5CZqPPXQmbFYtb08XFr+Ff0ey1SpejDtu0VbxbUyvDXd/6BYhr+1lg+ubaTT2Am/ZZIEymUItDVx/9nYD3Q7roWkbgpFmHbDvBB4T+1hmyG/25reXfvCr4eXr3MlgaAiKzp52+t5TvAHq5rEYmbYhG27xjbCVD4Zzr8nzOW09eu4Bfh1UszaACI0IUbeZHv80NgqetaROKmWIRtO8vvGNiUG/4qf6Lwn7xGjTWraoou/B+yhtN6l/P78OqlWXQTYIQuXsb9vs9JwO2uaxGJm1wOFi8Ez1P4B9WT6vD3uK3YxokK/2hpAIjYupU83rGTv7LQ47oWkbjJ52CPRWNDAMxi27/y6wr/yWvUWLOqpojCH4/1HXM59ZLjeDK8emk2XQJwaHU/b8VyLTDPdS0icVL0YcfOilcH6Jr/ZOkI/2EP/mXtCr4UXrm0igYAx1bdyUs8jxuBw13XIhInRR927Br7ACGF/+Q1Ex/+hi2ez5vWrmRDeOXSSroE4Ni6ldztFVkB/MR1LSJxkvNg0QLwcmPHda/5K/wDxS38Lfx4dDfHK/zd0w5AXFjMmn66LFyEBjORCRM7AT61w7/yJwr/yWvUWLOqptaHvyVH77zj+Wi3YcrHQYkLGgBiZlU/r/YsX0fvFyAyoejDjoGxIUDb/jVqDViz6thR+FvYYSzv6F3JjeFVS5Q0AMTQqrs4yhS50cCLXdciEhdFH3buCr4xUOFfvWbVsavwN/zBGE7XS/ziR1vNMbTueB6Y18FJGN0dK1KS82DhgvGXCCr8a4pT+BuP62wbnQr/eNIOQMx19XO6sawH9nZdi0gcFH3YNVBxT4DCf/IaNdasqqm14b/N+rx/3Ql8M7xicUkDQAKsupMDjOHLxvAK17WIxEHRh12D5ZcIKvzjE/7W57/b2znrMy/h0fCKxTUNAElhMav7+RBj7yA4x3U5Iq4VfRgYHPtR4R9wHH34jxqfiztW8And5Z8MGgAS5qMbeHHR8B/AX7iuRcS1iZ2Aqa8OQOEfWFPrwv/3dpS3rjuJjeHVSpzoJsCEuWgF/7N7NycY+ByT/1sjkjk5DxbMG/uxksI/oKYWhb+Ff/fbWKHwTx7tACTY6n7+ActXgANc1yLiUtGHgYGxlwgq/ANqak34P0WOd/cu46bwSiWutAOQYD3L+UkOlhmjf4CSbTkPFswvf4pgicK/xjlnG/6WG/NF/kLhn2zaAUiJNX2cYeEqYB/XtYi44o/fE2Ctwr/mOWcX/o9bw4fWdXJDeJWSBBoAUuSCe9gvX+ASa3mb61pEXPF9GBgaf8dAhX+zwt8ayzd2F/jw5SfzbHiVkhQaAFKoawNvMoYr0b0BklGlnYAqCv9JX28w/P9oc5y9bhm/DK9Qkkb3AKRQ7wq+DbzAjL1SoOi6HpGoeeOvDpgUgAr/SV9vIPwL1qN33i6OU/ink3YAUm5VH8s8WA8sd12LSNT8IgwMl8NR4U9D4Q/cbfK8p3cZfeHVSZJpByDl1nWy8Tk4ycAaIGhTVCS1vBzM7wDPKPwbDP8BDB/ZvJlOhX/6aQcgQz52NwcXi1ysmwQla3wfBkfA+ij8g0u1xvCd3QVWXXESm8Mrk7TQAJBBXX2cCnzOwItd1yISFd+HweGxlwgCCv/yufqtz3nrTuDX4VVJ2ugSQAb1dnLLvJ0cD5wLbHddj0gUPA/mzR0PRoU/Fh7zLe+b18lKhX82aQcg4z56O/sXcnzSGN4F5FzXI9JqpZ2ACVkLf8OwsVzuz+EzlxzHQHhFkmYaAASAC/t4gQ+fBM5wXYtIq/k+DI1UvFPglK+nNfw9ww9H4UOXr2BTeDWSBRoAZJI1G3iZNVwCHOe6FpFWKg0Bk5KelIa/5W48zrtkBb8Ir0SyRAOAVDnjenKHH8lZnuXjFg5zXY9Iq1g7vhPgjx2nLfwNbC7CJxat4GvdBj+8EskaDQBSU/d9tA8P83Zr+QR6W2FJKWthaPyegLSEv4FnLFy6YIDLu0+l8o4HkQkaAKSuC+5hfn6UD9ixNxPaw3U9Is02sRNQGfhJDH+PncA1C4p8uvtEdoRXIFmnAUAa1nUrC725vF+DgKRRaQgYOxj7ITHh77OLHFcXR1mrT+uTRmkAkGmrGARWA3u6rkekWSovByQh/I3HTlvk2qLPxQp+mS4NADJj597FHu0+HzaWDwF7ua5HpBmsD8OjTLkhIOiBDsPf8CyWKwuDXHHFqWyr05JIIA0AMmvdtzB3aAFnYvgocLTrekRmy1oYLl0OiFH4e4YnjGG98bi0p1Pv4imzowFAmqbb4g1t5DRgDZaTXdcjMhvWh5HRqrcJcBL+Bv5kPL4wvAdXXXkUI4g0gQYAaYnVff9/e/cXIlUZh3H8+3tXB3W1VmULRMlUyhQSFd1tW4qItS4su2i7CLwowoguKgpRvJmrAtvSgm7sosCLSiMohTCLkDTd/JfBWMYqhP3Tjdx03T9n55xfF6O01bjr6s6e2Z3nA8MyzM2zMMz7zDvn/F4agReBh9GZEzJKuUNv1G9xHuHFPxh7Emfza8v5GPt/FxG5HioAUlLrDjIH4zmHp4BJaecRGSp3iPoKkwNHaPGPEmdnldHSUsf+4fgfRIpRAZARsf4ItUnCM8CzwE1p5xEZCneI8pcmBpZu8T9rsCUE3np1Ob8PV3aRK1EBkBGVzZHp6WaVG2tw7kfvQRkl3KEv/5+dgCsYyuJvxtFgvJ3P8+6mBrqHM7PIQPThK6lZe5DbMZ6wws8D09POIzKYyyXAB/g1/ioX//MJfBgyvPn6Eo6VJKzIIFQAJHUvHaN6XJ5mnCcdGtH7UspcFBW5O4BBF3/H2EfCO+ECH7Q8wMWShhQZhD5opaxs+IZZceBxh6eBW9POI1JMsZ2AKy3+7vxmxntxzJY3GjkxokFFBqACIGXp0kyBJnNWOzwCVKedSaQ/B/r6CiWgyNjgToMdibO1pp5dOopXypEKgJS97JdM6L6BJpzVwCogk3YmESiUgPw/OwGxw1fB2Douz/aNjVxIN53IwFQAZFRZ38r0JPAoxmPAvUBV2pmkouUTZ08+4qOLEdu23McfaQcSuVoqADJqvfA10zLjWWlGs8MKtDMgIyN2OGCwvSrP+y/XcybtQCLXQgVAxoTnj1KTyfOQBVbhrACmpJ1JxpTzwC6MT3B26CAeGQtUAGTMad5G1Zw53OWw0gpnEdyRdiYZlU6587kFdk6cwK7sQqK0A4kMJxUAGfPWH2J+bDyI02SF6wZ0R4EU0wnsAXaHmE9fqePHtAOJlJIKgFSUbI5MTxcNGCvcacJYjC4krFQxxhGDz+KY3dXV7Ne3fKkkKgBS0bI5Jvd0UQ80euBunHvQxYRjVQx8a7AP2Nsb8cWmBv5MO5RIWlQARPrJ5pjc000D0OhQR+FxY8qx5Np0AK3mHAD25jPsb1mk8bsil6kAiAwg64Teo8yPnToS6s2oAxYA49POJv/SB+QwWg0OJNC6cQk/YEVH9osIKgAiQ7bmEOOnJtyGsdSMpQksNVgETE47W4XoBE6Ycdydw8DhKOKwjtIVGRoVAJFhsvYIM0LMAjcWurMAY6HBnWgmwbXqBU4COXOOY+Q84fjEZXyv2foi108FQKSUHNtwkJl9gXkB5iYwz4x5OHOBuagcnAdOAW1Am8FJnLYkpm1jHb9oC1+kdFQARFK07jumesTMxLglOLNwZlpglifMcONmg1oKj5B21iFKgHaHdnPOWOBXTzhtxunY+Dk4P/VWcXrzYjrSDipSqVQARMpc8zaqZs+mNgRqzahNEqYFo8ahxowaTy79hUkYU3AmABMpDDzKULiLoX+BuPx6f91AT7/nCfAXEAEXDbrc6MW5YNDlTocFOtzpcOdcgA4C59xpTxLaq5dxVtv0IuXtb7YQ2noBTLkDAAAAAElFTkSuQmCC;" vertex="1" parent="1">
          <mxGeometry x="-68" y="1420" width="22" height="22" as="geometry" />
        </mxCell>
        <mxCell id="v3sYc3gb-yKhHvJauMw6-25" value="" style="shape=image;verticalLabelPosition=bottom;labelBackgroundColor=default;verticalAlign=top;aspect=fixed;imageAspect=0;image=data:image/png,iVBORw0KGgoAAAANSUhEUgAAAgAAAAIACAYAAAD0eNT6AAAACXBIWXMAAA7DAAAOwwHHb6hkAAAAGXRFWHRTb2Z0d2FyZQB3d3cuaW5rc2NhcGUub3Jnm+48GgAAIABJREFUeJzs3XmcXGWZ9//Pfaq6k87KvhMCiKg4IEknLMM4w4zOqLiiMM6o/FxBHRcQ0gn6PGO7QbrDpihLGPdxHEF5FBd01MEFEUh3WBzQEQwhAdkhW2/pqnP//uiuruquU6equ6vOfZbv+/XS5KSrzn1dWfhefZ9TVQYRibWz+2jbw2NfW2C/nMd+1rCHgT2w7GlhDwt7AIs9w3wL86zPfGNoBxYD+fEfKy0A2qb82iiwa8qvbQOKwHZr2W08BgwM+pYBA9sMbLOWbcZjG5bnfMs2k+NJC0/N286T3adSaMFvh4g0iXFdgEiWXbiRfW2RQ3w4FFiC4RAPDrFwMLAfsO/4/5LoKeBJ4Cksj1jDo1geMR4P+0W2+h6PXNrJ066LFMkqDQAiLXTG9eQOO4wlnsfzPMORPjzPwJF2/Eegw3WNjg0BDwJ/Ah7E8qCBP5HnwbkvYUu3wXdcn0hqaQAQaZKujRzkFXmRNRxjLS/CcIyBlwDzXdeWULsZGw7uM5b7Mdxnfe7ftJk/3HAmRdfFiSSdBgCRaTq7j7Y9fZ6PYbkxLPdhuYHjgXmua8uIUeABY+i3ln6gvwM2dncy6LowkSTRACAS4ozryR1xBC8ycIKFE4GVwAsZu7lO4qNg4H4f7sRyex7uaO/kfl1CEKlNA4BIhe7bWTSS4xQf/hLDSUAnsNB1XTIjO7BsMB63W5/f2BFu7T2Fna6LEokLDQCSaV23stCbwwm+4WXAKWbsO/ypL5GTdCgC/2stt3qGn43CLXoVgmSZBgDJlPNuo6OtjVOAlxvDy4Hj0L+DrPKBezD81Pj8dO4ubu0+lWHXRYlERf/hk9RbvZHjKPIPeLwcyynAXNc1SSwNAb8Gfgr8pKeT3zmuR6SlNABI6nTfwtzhBZyC4TUWXg8scV2TJI+Bh33LT4zHDzp28FPtDkjaaACQVLjwDva2Hq+zhtcCL0OvvZfmGgD+yxhuGhnhpstP5lnXBYnMlgYASazz+9gnb3mVMZxh4R/QzXsSjaKF2w3ckIPrL+rkMdcFicyEBgBJlI/ezv7FPGcCZwInA57jkiTbilh+g8f1nuH6i5fxlOuCRBqlAUBi77zb6JjTzquBs/SdvsRY0cLtnuFr/hDf1HsOSNxpAJBY6r6F/MAiXuFZ3ga8Bn1ojiTLIIabsPz7pk38WJ9dIHGkAUBipWsDR3vwT9bwDnT3vqTDYwZuKBi+eMly7nVdjEiJBgBxrutWFpoO3mx93mHG3n5XJJUs/AbLl+fN41vdx7DLdT2SbRoAxJkL+3hBEd5u4GxgT9f1iERop7V80+S4qmcZ97guRrJJA4BEqvs+2oeHeJ01nI3lZa7rEYmBfmNYPzLC1y8/mSHXxUh2aACQSHRt5CDP8n5rORvY13U9IjH0JLA+B1fpvQUkChoApKVW9bHMWM4xhrPQe/CLNGI38D3P4/KLl/Fb18VIemkAkKbrtniDfZxuPM7DcrLrekQS7FZruHzeMr7bbfBdFyPpogFAmqb7PtqHBnkzhguBF7iuRyRFNgGf69jJtfpQImkWDQAya123stDM5Z3AKuBg1/WIpNgTxnLNcJ4rrjieba6LkWTTACAzdt5t7NXeznnAB4HFrusRyZBtwOdMO1esPZbnXBcjyaQBQKZt/KN3P2gNHwb2cF2PSIbtsvCF0d306iOKZbo0AEjDzu9jnzbLB6zhXPQdv0ic7DLwJa/ARRedyBOui5Fk0AAgdXXfx4LhIf7FwoUo+EXibJeFLxi4uKeT7a6LkXjTACA1dd9H+/Awb7eWTwL7u65HRBr2jIF1c3fyWb1qQGrRACBVum8hP7SId2D5V+AQ1/WIyIxtMZZP/OkhvqqPJJapNADIJGs28DJruAz4C9e1iEjT/AHLR3pWcLPrQiQ+NAAIABdu5EVFn3UGXuW6FhFpDQM/KMK56zr5k+taxD0NABn3sbs5uFDg08BZgOe6HhFpuREMn+0Y5TPdJ7LDdTHijgaAjDq7j7Y94f3Ap4CFrusRkcg9A3xq0yY+r/sDskkDQAZ1beTvjM/ngBe5rkVEnLsLj3N7lvEr14VItDQAZMiqPo704GLgDNe1iEi8GPhBociHLjmBh1zXItHQAJABZ/fRtqdhFZb/C8x1XY+IxNYQlu6OXVzWfSoF18VIa2kASLlVd/ISz+PfgOWuaxGRZDBwLz7vXruSDa5rkdbRAJBS591GR1s7HzdwAZBzXY+IJE7BwFWFNj56yXEMuC5Gmk8DQAqt3shL8bkOeL7rWkQk8TYZyzlrV/Az14VIc2kASJFz72KP9gI9xvAe9GcrIs11g1fkfRefwDOuC5HmUEikxOp+XoPlauBg17WISGo9gaWrZwVfc12IzJ4GgIT72N0cXCxwjYVXu65FRDLjezl430WdPOa6EJk5DQAJtqafN1jLdcDermsRkczZhuV9PSv4T9eFyMxoAEig826jY047ay18yHUtIpJtxvD1uXN5f/cx7HJdi0yPBoCE6dpIp/H5BrrDX0Ti4yHP4y0XL+O3rguRxmkASAqLWd3Ph4BeoN11OSIiUxSM5TN/eohP6cOFkkEDQAKs7mOJMXzNWv7adS0iImGs5be+z1v0mQLxp89/j7muDbwJuEvhLyJJYAwn5XLc1dXPW1zXIuG0AxBT3bezaLiNz1vL21zXIiIyQ1/p6OCDukEwnjQAxFDXBo42hhuBF7muRURklv6Iz+k9K7nPdSEymS4BxEzXBl5rDHeg8BeRdHg+Hr8dv5wpMaIdgJg443pyhx/BZwx0oT8XEUkfa+DKuTs5v/tUCq6LEQVNLJzfxz55+A/g5a5rERFpJWP4pTfKP150Ik+4riXrNAA4tqqPZR58B1jquhYRkYg84sGbLu7kDteFZJnuAXBo9QbO8uBWFP4iki2H+PDL1f28x3UhWaYdAAc++ABz5m3nStBffhHJNmP4+sgI51x+MkOua8kaDQAR69rIQcbyXSwrXNciIhITd/g+r1+3ksddF5IlGgAi9NENvLho+CGwxHUtIiIx86jv8+p1K7nbdSFZoXsAIrJmAy8rGm5F4S8iEuRgz+NXqzfwSteFZIUGgAh09fMOa/gRsNh1LSIiMbYQw02rN3CO60KyQANAK1nMmg10G8uXgDbX5YiIJEAewzVr+vgsVpepW0m/uS3ywQeYM387X7ToE7FERGboho6dnNV9KsOuC0kjDQAtcN5t7DVnDjfqI3xFRGbJcFvB8rpLO3nadSlpowGgydZs4Ag7dqf/C1zXIiKSEg/6OV617ngecF1ImmgAaKKuDaw0hh8A+7quRUQkZZ4whtPWLqffdSFpoZsAm2TNBv7GGH6Kwl9EpBX2t5ZfdPVxqutC0kIDQBOs7uc11nAzsMh1LSIiKbbAwA/W9PH3rgtJAw0As7S6n7diuRGY67oWEZEMmGfh+2v6eYPrQpJOA8AsrNnAeVi+BuRd1yIikiHt1vKtNf38o+tCkkwDwAyt6WeVNVyGbqQUEXGhzVq+0bWBd7kuJKk0AMzAmj5WW0uv6zpERDIuZwzXdfVzrutCkkgDwDSt2UC3hbWu6xAREQCMsVze1c/HXReSNNq+nobVfXwK+D+u6xARkWoWeno7WeO6jqTQDkCDVm/gMyj8RURiy8DqNX180nUdSaEdgAboO38RkUS5sKdTl2rr0QBQx+o+/hX4hOs6RERkWs7v6eQy10XEmQaAEGv6ON/CJa7rEBGRabMYzulZznWuC4krDQA1dPVzrrFc7roOERGZsaIxvGXtcr7lupA40gAQoGsDbzOGr6LfHxGRpBvF8Mae5XzfdSFxo4CbYvUGXofh2+jtfUVE0mI3ltf3rOBm14XEiQaACmv6+Vtr+SH6YB8RkbQZxOOVPcv4letC4kIDwLiuDaw0hp8DC1zXIiIiLbHdGP5u7XL6XRcSBxoAgAvu4PBcjtuB/VzXIiIiLfW0MZy0djkPui7Etcy/E+B5t7FXLsfNKPxFRLJgH2v5/pp72dN1Ia5legDovo/29nZuAI52XYuIiETmBXaE737wAea4LsSl7A4AFjM8zL8Bf+u6FBERiZjhpfN28BVsdi+FZ3YAWN3Hp63lba7rEBERRyxvXtOX3Y8RzuTks2YD77SGL7quQ0REnLMW3tHbyVddFxK1zA0AazbwN9bwE6DddS0iIhILo8byqrUr+JnrQqKUqQHgwo28yPf5DbCH61pERCRWdgCn9HTyO9eFRCUzA8BH+ziwCLcDS1zXIiIisbTZ9zlp3Uoed11IFDJxE2D3LcwtGr6Hwl9ERGpb6nn8v6y8PDATA8DQQj6PZYXrOkREJPZOnLeDz7ouIgqpHwDW9HM28C7XdYiISEJYzunakP7cSPU9AOMf8PMryMZ2joiINM2w9fir3mX0uS6kVVI7AFx4B3v7OfqApa5rERGRRNpSgOWXdvK060JaIZWXAM64npyf4z9Q+IuIyMwtyVv+84zrybkupBVSOQAccQRrgb93XYeIiCSc4e+OOJxPui6jFVJ3CaCrj9cbuJEU9iYiIk5YazmzdwXfdl1IM6UqJLs2cLQx3Akscl2LiIikyk7P48SLl3G/60KaJTWXALpvZ5EZe7Mfhb+IiDTbQt/nhu77WOC6kGZJzQAw3MbngaNd1yEiIqn1oqEhrnBdRLOk4hJA1wbeZAw3uK5DRETSzxjevHY533Jdx2wlfgDoup1DTJ57gL1c1yIiIpmwDTiup5MtrguZjURfAui2eCbP11D4i4hIdPbA8vWkvz9AogeAwT4uBE51XYeIiGSM4aVHHM75rsuYjcReAljTz3JruQ1od12LiIhk0qi1nNK7gjtdFzITidwBuOAe5lvLN1D4i4iIO23G8I2kvjQwkQNAbpTPopf8iYiIe88bHGKd6yJmInGXANb08wZrudF1HSIiIhMsr+9ZwfdclzEdiRoAPnY3BxcK3APs7boWERGRCk/n4NiLOnnMdSGNStQlgEKBL6DwFxGR+NmnCNe5LmI6EjMArN7Am4HXua5DRESkhtNW9/HProtoVCIuAZx3G3u1t3M/sL/rWkREREI8kytwzEUn8oTrQupJxA7AnHYuQ+EvIiLxt3cxz7Wui2hE7HcAuvo41cDPSUCtIiIiANZyRu8Kvu26jjCxDtXuPuYNwb3Aka5rERERmYYnTDsvXHssz7kupJZYXwIYgk+h8BcRkeTZ39/NRa6LCBPbHYA1d7LCevwWkv1pSyIiklk+Pn/Vs5LbXBcSJJY7AN23kLce16LwFxGR5PKsx7Vn99HmupAgsRwAhhbRBRzvug4REZHZMPDiveAjrusIErtLAKv6ONKD/wHmuq5FRESkCQYLHi+6dBkPuy6kUux2ADzL5Sj8RUQkPeblfS5xXcRUsdoBWNPH31v4ies6REREms7wip7l8cm42AwA3ffRPjTEvcDRrmsRERFpgd8/B8et72TUdSEQo0sAg0Ocj8JfRETS64V7wgddF1ESix2Aj93NwYUCfwAWuK5FRESkhXbkCjw/Dh8WFIsdgGKBz6DwFxGR9FtUyPFJ10VADHYAVm/kOHw2EpNhREREpMWKwPE9nfzOZRHuQ9dySSzqEBERiUYOuMJ1EU6Dd1U/r8byMpc1iIiIOPC3q/v5B5cFOBsAum8h71l6Xa0vIiLikrVccsb17j7zxtkAMLyIdwIvdLW+iIiISwZefOSRvM3h+tHrvoW5gwv5o4FDXawvIiISBwYeHljM0VcexUjUazvZARhayAcU/iIiknUWDuvYzjku1o58B6DrVhaauTwI7Bf12iIicfLC/Lt4qvg7nrZ3ui5F3HrKDnNk7ynsjHLRyHcAzFy6UPiLSMYdnX8nZx31Wd73vJvYx6x0XY64ta+Zy4ejXjTSHYDz+9gnD5uAhVGuKyISJ0fn38nbj/ocZvw/wQOFnVz94Gu1E5Bt2007h689lueiWjDSHYAcXIDCX0QybGr4A8zPL9ROgCy2uzk3ygUj2wG48A729nM8hAYAEcmooPCvpJ2AzNth2lka1S5AZDsANsf5KPxFJKPqhT9oJ0BYxEh09wJEsgNw3m3s1d7OZjQAiEgGNRL+lbQTkGmR3QsQyQ7AnDl8BIW/iGTQdMMfKnYC0E5ABi32R/lQFAu1fAeg+3YWDeV5GNij1WuJiMTJTMK/0kBhJ1c/8FqeRjsBGfNcRwdLuo9hVysXafkOwFCe96PwF5GMmW34w/hOwFG6JyCD9hwa4h2tXqSlOwAffIA587bzEHBgK9cREYmTZoR/Jd0TkEkPdezk+d2nUmjVAi3dAZi3jbej8BeRDGl2+INeHZBRhw8v5A2tXKBlA8AZ15PDcH6rzi8iEjetCP+S+fmFvF9DQKZYw6pWnr9lA8Dhh/MG4KhWnV9EJE5aGf4l8zQEZItlxeo+TmnV6Vt5CeAjLTy3iEhsRBH+JRoCMqdlO+kt+du6pp/l1tLXinOLiMRJlOFfabCwk6t0Y2AWWGs4pnc5v2/2iVuyA2CtvvsXkfRzFf6gnYAMMdjWvDFQ0//Wdm3kIOPzENDe7HOLiMSFy/CvpJ2ATBjOFVh60Yk80cyTNn0HwBT5FxT+IpJicQl/0E5ARswttPHeZp+0qX97x9/4ZyuwbzPPKyISF3EK/0raCUi9JwcXs+TKoxhp1gmbugMwbwdnoPAXkZSKa/jD2E7AB573Aw7ItexVY+LWfvO3cXozT9jsSwDva/L5RERiIc7hXzI3P5/3HnGjhoCUsjT3MkDT/iZf0M+xOcs9zTqfiEhcJCH8Kw0XBrjmodN5vHCr61KkyXKWv7hoBf/TjHM1bQfAs/ruX0TSJ2nhD+M7AYdrJyCNfMN7mnWupvyN7r6PBUNDPAosasb5RETiIInhX2m4MMA1m07n8aJ2AlJke7GNgy85joHZnqgpOwBDw/wTCn8RSZGkhz/onoCUWpwvcEYzTtScSwCWdzblPCIiMZCG8C/REJA+1ucdzTjPrP92d23gaGP4fTPOJSLiWprCv9JwYYBrN53OY7ockAbWGJ6/djkPzuYkzdgBeBcKfxFJgbSGP4ztBJxzxI0cqJ2ANDDA22d7klkNAN23kDeGt862CBER19Ic/iUaAtLDWt5+xvXkZnOOWQ0AQ4t4JXDgbM4hIuJaFsK/RENAahx8xJG8bDYnmN0lAMvbZvV8ERHHshT+JRNDQF5DQJKZWWbwjP/Gd93KQjOXJ4CO2RQgIuJKFsO/km4MTLyBjg4O6D6GXTN58sx3AOZyOgp/EUmorIc/6HJACswfHuQ1M33yjAcAA/880+eKiLik8C8rDQF6n4BksvBPM33ujP72X3AP++VGeRTIz3RhEREXFP7B9LbBiTXqFTnw4hN4ZrpPnNEOgDfKm1H4i0jCKPxrK71joG4MTJw2m5vZWwPP9BLAmTN8noiIEwr/+ubm53PO4RoCksYyswFg2v8SVt3JAZ7HozTxo4RFRFpJ4T89w4UBrn3odB4r6HJAQhSLbRx0yXE8OZ0nTTvEjcfpM3meiIgLCv/p005A4uTyo7x2uk+a/gAAb5zuc0REXFD4z5yGgGTx7fSzeVr/Ki68g739HI+jGwBFJOYU/s0xdjngjTxW+LXrUiTcqGln/7XH8lyjT5jWDkAxz2tR+ItIzCn8m2dsJ+A7HJj/K9elSLg2f4RXT+cJ0xoAPHj99OoREYmWwr/5NAQkgzHTuw+g4X8hH3yAOfO28zSwYNpViYhEQOHfWsOFAdZvfiN/HtXlgJjaNbiYfa48ipFGHtzwDsCCbfwdCn8RiSmFf+vNzc/n7KXf4aA27QTE1IL522j4D6fhAcA307u2ICISFYV/dDQExJuF0xp9bMMDgIFXzawcEZHWUfhHT0NAjE3jPoCGBoAL+jnWwmEzr0hEpPkU/u5oCIitIy7s4wWNPLChASDn84rZ1SMi0lzHtL1X4e/Y3Px83r30Bub5R7guRSoUTWOZ3dglAI+Xz6oaEZEmOjr/Tt76vEsU/jHwi0eup2/TQwwOua5EJtjGMrvuv57uW5g7tJBngY5ZFyUiMkva9o+PH23+Il+4+8OAJZeDpQfDPCVFHAwMLmbvei8HrLsDMLyQl6LwF5EYUPjHR2X4AxR9ePjPaCcgHubP38ZJ9R5UdwCwaPtfRNxT+MfH1PDHgDFQLI4NAUPDTssTGsvuRu4B0AAgIk4p/OOjVvhjx35e8OEhDQHuNXDvXui/pvNuY6/2dp5iBh8bLCLSDAr/+KgX/uM/gIVcHpYeBB1zXVWbef5Ijr2vOJ5ttR4QGuxt7by03mNERFpF4R8f0wl/xi8HbH4UhnRPgCvenCJ/GfqAsC8aw0ubW4+ISGMU/vEx3fAffwi+Dw8/piHAmToZHv7dveWvm1qMiEgDFP7xMdPwL/2kWBoCdE9A9OpkeM1/Xd23s2goz7NArulFiYjUoPCPj9mGf+VxLgdLDtQ9AREr2GH26j2FnUFfrLkDMJLjFBT+IhIhhX98NDP8AQoFvUTQgTxzOLHWF2sOANZwSmvqERGppvCPj2aHv7Vjz/d1OSBynqHmpzXVHgCoPTWIiDSTwj8+WhX+pS/4RdjyZxgKfZNaaRYLJ9T6WuAA0G3xgOUtq0hEZJzCPz5aHf4TLxG0GgIidMJ4plcJ/MVdG3kxsKilJYlI5in84yOq8Ify5YCtGgKisHjkLl4Q9IXAASAXsmUgItIMCv/4iDr8S8sUx4eAQd0T0FK2GHxJP/geAKsBQERaR+EfH67Cv/Tlog+PPK4hoJX8Gt/U17oJcGULaxGRDFP4x4fr8LfjPyn68MhjuhzQKsYEDwBV/wK7b2Hu0EJ2AvmWVyUimaLwj4+4hP/EDwZyBg45EDrmNKFBqTTasZNF3acyaZ+lagdgcAHHovAXkSZT+MdHHMMfxm4M1E5AS7QNLORFU3+xagAwcHw09YhIVij84yOu4W/GH+fbsXsCNAQ0l7HV2V59D4CnAUBEmkfhHx9xD//SsfXhUQ0BTRX0zX3QTYDLIqhFRDJA4R8fSQn/0ikndgL06oDmCPjmftIAcMb15LC8OLqKRCStFP7xkbTwL9VkLTz6hIaAprAcO/UdAScdPO8wjgQ6Ii1KRFJH4R8fSQ3/yp0ADQFNsWDXnRxW+QuTBgCb55ho6xGRtFH4x0fSw5/x2qyFPz8Jw7onYFbMlIyfNAD4fvXLBEREGqXwj4+0hH9pzdJOgIaAmfOmZPykAcAYDQAiMjMK//hIW/iXTupb+LOGgBmbmvFTXwWgAUBEpk3hHx9pDf/SA7QTMHO21gAwfnfg0ZFXJCKJpvCPj7SHf+nQt/DokzC8u9bvhASyvBBb/u2eGADG7w7UKwBEpGEK//jISvhPPNQfvxygIWA6FnTdwcGlg4kBwPN4npt6RCSJFP7xkbXwLz3M16sDps3LlbN+YgAwRgOAiDRG4R8fWQ3/0k+sD489pSGgYSZgALBwpJtqJIs8O4c5/oGuy5AZOKbtvQr/mPjen67KdPhX7gQ8/hSM6HJAXZVZX94BQDsAEg1j23n14q/zvsNuocMudV2OTMPR+Xfy1uddovCPgR9t/iLrf9dF1sMfM7am78OfNQQ0onoHAA0AEgFj23nN4n/n5INP44AFh3LOkh9rCEgIbfvHR9a3/aeGP4A1GgIaNGUAGHtZwOGuqpFsqAz/kokhwF/qrjCpS+EfHwr/8nFl+E8814fHntYQEGLyJYAL72IfYJ6zciT1gsK/5IAFh3LOYRoC4krhHx8K//JxUPiXfuIXx24M1BAQaOGae9kTxgeAgs+hbuuRNAsL/xINAfGk8I8PhX/5OCz8S2tYC48/DSOjyBSF0bHM9wA8qwFAWqOR8C/REBAvCv/4UPiXjxsJ/xK/OP7qAA0Bk+RsxQBg0QAgzTed8C/REBAPCv/4UPiXj6cT/hM7AT48oXsCploC4wOA8TQASHPNJPxLNAS4pfCPD4V/+Xgm4V/6erEIjz+jIaDEULEDgOUQp9VIqswm/Es0BLih8I8PhX/5eDbhb8fX9LUTMMFWXgIADnJYi6RIM8K/RENAtBT+8aHwLx83I/xLD/ctPPEM7NYQcCCUB4D9HRYiKdHM8C/REBANhX98KPzLx80M/xLf1xBgzVjmawCQpmhF+JccsOBQzln6Y+bpHQNbQuEfHwr/8nErwr90nPUhwMB+AObsPtr2hBGqf59EGtLK8K/0+K6trN/yCgbN5paukyUK//hQ+JePWxn+lT/xDOy3N8xpJ2v8jp3M8fbNsx8Kf5khz87hdXt8s+XhD2M7Ae869AfM9fWilWbQp/rFx02brlb4l/qOKPwNY/cEPPksjGTvo4S93R3s7RVHx7YCRKar9Kl+Jx70isjWPHjh4bz3sP/S5YBZ0qf6xcePNn+Ra+9dhcI/2vAv9e3740NAxi4H7G5jfw/Dvq4LkeSJats/yAELlnD2kps1BMyQtv3jQ9v+5WMX4Y8tHz+VsSHAM+zrYcY+FECkUS7Dv0RDwMwo/OND4V8+dhn+pa9Zm60hwCuyh2d99nBdiCRHHMK/ZGII0EsEG6Lwjw+Ff/k4DuFfemxpJ2B3Fj47wLCndgCkYXEK/5IDFizh7MO0E1CPwj8+FP7l4ziFf2XhWRgCLOzhAYtdFyLxF8fwL9HlgHAK//hQ+JeP4xj+pTV8C08+k/ohYLFn0SUACRfn8C/REBBM4R8fCv/ycZzD3078X8p3Aix7agdAQiUh/Es0BEym8I8PhX/5OAnhX3mc1iHAGPbwjGWB60IknpIU/iUaAsYo/OND4V8+TlL4l75ugaefS98QYGG+B8xzXYjETxLDvyTrQ4DCPz4U/uXjJIZ/6QnWpnIImOfh0eG6ComXJId/SVaHAIV/fCj8y8dJDv/SL1sLz6RoCDDQ4WG1AyBlaQj/kqwNAQr/+FD4l4/TEP4T5aVoJ8DCPF0CkAlpCv+SiSGApa5LaSmFf3wo/Mso9BDMAAAgAElEQVTHaQr/0pct8Mw2GC2QdPM8iy4BSDrDv+SABUs4+9D0DgEK//hQ+JeP0xj+pZ9YC08nfwjo8AzMdV2FuJXm8C9J6xCg8I8PhX/5OM3hP3Eem/idgA4PyLuuQtzJQviXpG0IUPjHh8K/fJyF8J/YCfATPQTkNQBkWJbCvyQtQ4DCPz4U/uXjLIV/6bD06oDR5N0YmPOAnOsqJHpZDP+SpL86QOEfHwr/8nEWw7/yN+iZHYkbAvIaADIoy+FfcsD8ZH6KoMI/PhT+5eMsh78xY31bP3FDgHYAskbhXzYxBLDUdSkNUfjHh8K/fKzwr3ishWd3JmYI0A5Alij8qx0wPxnvE6Dwj4+bN39J4V/qW+Ff1actwrPJ2AnIea4rkGgo/GuL+xCg8I+Pmzd/ic/f/SEU/gr/oPCv3Al4bgcUYv7qAA8oui5CWkvhX19chwCFf3wo/MvHCv86fTLW57PxHgKKGgBSTuHfuLgNAQr/+FD4l48V/nX6rHhOaQiI6fsEFDQApJjCf/riMgQo/OND4V8+VvjX6bOqobG+n9sZyyFAOwBppfCfOddDgMI/PhT+5WOFf50+qxqqeJgP2+J3Y2DBA+I3l8isKPxnz9UQoPCPD4V/+VjhX6fPqoYC1rSwbVesdgKKGgBSRuHfPFEPAQr/+FD4l48V/nX6rGqodp/Wh+3xuRxQ8CwMu65CmkPh33wHzF/COREMAQr/+FD4l48V/nX6rGoopM/SOS1sj8dOwJBnYMh1FTJ7Cv/W2b/FQ4DCPz4U/uVjhX+dPqsaCulz6u+PDzvcDwFDHjDotASZNYV/600MAU3+7ACFf3wo/MvHCv86fVY1FNJnjTX90uUAd7fhD3oYDQBJpvCPzv7zl3BOEz9ASOEfHwr/8rHCv06fVQ2F9FljzdKfhbWww9EQYGDQw9clgKRS+EevWUOAwj8+FP7lY4V/nT6rGgrps074AxP3BOxwcGOg1SWA5FL4uzPbIUDhHx8K//Kxwr9On1UNhfTZYPhXcnBPwKBnDbsiXVJmTeHvXmkImM/SaT1P4R8fCv/yscK/Tp9VDYX0Oc3wr/z5jl1QiOhygIEBz8C2aJaTZmm3+3LE4mNdl5F5+89fwrsP/QEd9pCGHn9M23sV/jFx06arFf6lvhX+sQj/0mOjGgIsPKsBIIFGvEe55uGX8+edm12XknkHLjic9x7207o7AUfn38lbn3eJwj8Gbt78Ja69dxUKf4V/rMK/1Lcduyeg1UOAgW2etRoAkmjY28r6La/QEBAD+4+/Y2CtIUDb/vGhbf/yscK/Tp9VDYX02azwL/2SgZ2t3wnY7hlPA0BSaQiIj1pDgMI/PhT+5WOFf50+qxoK6bPJ4U/FcUuHAMtzntUlgETTEBAfU4cAhX98KPzLxwr/On1WNRTSZ4vC35Qfwq4WDQG+xzbP+jzX/FNLlIa9rVy35TQe37XVdSmZV7oxsHPORxX+MfH9Tdco/Et9K/wTE/6lL1pg5wAUmv0SQcN2s+pOXuJ53NXkU4sDc+2hnH3ojzlo4VLXpYjEgr7zLx8r/Ov0WdVQSJ9RhP+UNT0L8+dDPh9c33TlLH/htXk80ZzTiWvDZivrt+pygAgo/BX+5a8nLvwD+rAGdg02bydgdztPeu07eQrwm3NKcU1DgIjCX+Ff/noiw3/qGuN/P6yBgUEozv6egOLD/8szXvepFIBnZ306iQ0NAZJlCv/yscK/Tp9VDYX06Tj8J3YCGNsJmOUQ8PQNZ1L0xg+enNWpJHaGzVau1asDJGMU/uVjhX+dPqsaCukzJuFf+rK1MDA08yHAMHbpvzQA6D6AFBrxNARIdij8y8cK/zp9VjUU0mcU4U/AGjXCf+LUsxgCrBn7pr80ADw2/VNIEozofQIkAxT+5WOn4R/0WIV//fAP6iOozynrWAuDMxgCzHjme+PF6QXkKTbs6Z4ASS+Ff/nY+Xf+RuE/dc262/5BfQT1GbTO+PkHRqY9BGyB8QHAGA0AaTdstnLd1ldqCJBUUfiXj52Hf8iaCv+ApYPWmGb4T7w6oAiD0xgCrD+W+V7lgaTbkNmiIUBSQ+FfPlb41+mzqqGQPhMW/hPP9WFwuLEhwKNiAPB0CSAzhswW1msIkIRT+JePFf51+qxqKKTPKMKfgDVmGf4TJdjGhgAz6RKAP3Yg2TCsIUASTOFfPlb41+mzqqGQPqMK/6A+gvoMWofa4V86pwWGhsEPeXu/4vhl/4mnr+5jAJhX+ymSNnP9JZx92M0ctGCp61JEGqLwLx8r/Ov0WdVQSJ8J3fYPashUPHbeXPA8ptrR08liKL8MEAubqh4mqTbsbWH9w9oJkGRQ+JePFf51+qxqKKTPFIY/UL4noHon4E+ln0wMAAYerHqYpN6wN35j4K7NrksRqUnhXz5W+Nfps6qhkD5TGv4T/y4sDI1UDQETWe8F/aJky5DZwnVbNARIPCn8y8cK/zp9VjUU0mfKw7/0BevDcMVOgAkaAEzFtoBkz8QQoMsBEiMK//Kxwr9On1UNhfQZRfgTsEbE4V+55vD4ToBvAy4BVP6iZJOGAIkThX/5WOFfp8+qhkL6jOo7/6A+gvoMWofmhX/p2FoYGYHRAg+XnlIeAHxdAhAY0j0BEgMK//Kxwr9On1UNhfSZkW3/mn1asMMBlwAWrORhYAjJPN0TIC4p/MvHCv86fVY1FNJnxsN/3OAVfxOwA9Bt8IE/IEJ5CHhMQ4BESOFfPlb41+mzqqGQPhX+AHiGP2LKbUx6iwAD9yMybshsYb2GAImIwr98rPCv02dVQyF9RhH+BKwRs/AHwJv8Tf6kAcAaDQAymYYAiYLCv3zsNPyDHqvwrx/+QX0E9Rm0DtGEvzFgi/y+8tcmDwBWA4BU0xAgraTwLx87/87fKPynrll32z+oj6A+g9YhwvAHTJ7fVf76pAEgV9QAIME0BEgrKPzLx87DP2RNhX/A0kFrxDj8AXKEDAAPPsyfgEFEAmgIkGZS+JePFf51+qxqKKRPhX/1GmMGF580+TN/Jg0AN5xJkSkTgkilITP2AUIaAmQ2FP7lY4V/nT6rGgrpM4rwJ2CN+Ic/Bv6ne+zVfhOqPijQwl1Tf02k0pCnIUBmTuFfPlb41+mzqqGQPqMK/6A+gvoMWgdH4T/2gHumPKx6APCMBgCpT0OAzITCv3ys8K/TZ1VDIX1GEf61+gjqM2gdHIa/hZytzvaqAcA3bJz6ayJBNATIdCj8y8cK/zp9VjUU0mdU4R8QxEkJf4Bcjr4pD68eAIYW8jtgdOqviwTRECCNUPiXjxX+dfqsaiikT4V/9RqVNZT/fo/u3o97pzylegC48ihGDJPfLEAkzJCntw2W2hT+5WOFf50+qxoK6VPhX71GZQ22/HMP/njlUYxMeVr1ADC+/h1Bvy5Sy6A+O0ACKPzLxwr/On1WNRTSZxThT8AaCQx/AGu4kwDBA4DVACDTpyFAKin8y8cK/zp9VjUU0mdU3/kH9RHUZ9A6xCf8x38emOmBA0BeOwAyQxoCBBT+Cv/y1xMZ/gFBnNTwB2iz/IYAgQNAeyf3A9uDviZSz6DeMTDTFP7lY4V/nT6rGgrpU+FfvUZlDTXC38COBScHv81/4ADQbfCx1S8ZEGnUkHYCMknhXz5W+Nfps6qhkD4V/tVrVNZQI/wxgKGve8o7AJYEDgAAxuP2Wl8TaYQuB2SLwr98rPCv02dVQyF9RhH+BKyRhvAH8INvAISQAcD6wdcMRKZj0Gzhuq0aAtJO4V8+dhr+QY9V+NcP/6A+gvoMWocYhz9g8vyKGmoPACPcChRqfV2kUYNoCEgzhX/52Pl3/kbhP3XN0PCv1UdQn0HrEPPwh8LuYX5NDTUHgN5T2Inl7lpfF5mOQXQ5II0U/uVj5+EfsqbCP2DpoDVSFP4AvuXuq05lFzXUHADGT1Zz60BkunRPQLoo/MvHCv86fVY1FNKnwr96jcoaGgx/AA9urf7VSV8PYTUASHNpCEgHhX/5WOFfp8+qhkL6jCL8CVgjheGPBc/wi4CvTAgdAHaP8msIfvmAyExpCEg2hX/5WDf81emzqsiQPqMK/6A+gvoMWofkhL8xFHeY2tf/oc4AcPnJPAvcE/YYkZnQmwUlk8K/fOz8O3+j8J+6Zmj41+ojqM+gdUhU+IPhni+OZXhN4ZcAxhb4ad3HiMyA3iwoWRT+5WPn4R+ypsI/YOmgNdIc/oDn8fOAR0xSdwAwvgYAaR29T0AyKPzLxwr/On1WNRTSp8K/eo3KGmYY/hgojPJfAY+apO4AMHcXtwJD9R4nMlN6n4B4U/iXjxX+dfqsaiikzyjCn4A1MhD+WAY5IPz6PzQwAHSfyjB1XkogMlsTQ8DAZtelSAWFf/lY4V+nz6qGQvqMKvyD+gjqM2gdEhv+5Ay/vvIoRgIePUn9ewDGitBlAGm5Qbbwxa2v5qnBR1yXIsAPNl2r8C/1rfBPVvjX6iOoz6B1SG74GwM+/Czg0VUaGgA8n5sbeZzIbO2yD3H1wy/ncV0OcOrmzV/i6nvPR+Gv8E9k+AeEYlbCHyDn8aOAZ1Sp8UdWbXUfm4DDG328yGzMYwlnL7mZA+YvdV1K5mjbv3ys8K/TZ1VDIX0q/KvXqKyhSeGPZfMVf9lYVje0AzBe1A8bfazIbA2yhWs3656AqCn8y8cK/zp9VjUU0qfCv3qNyhqaFf5j5/hBwLMCNTwAgAYAidaQN/Y+AY9rCIiEwr98rPCv02dVQyF9RhH+BKyRwfAHwOP7Ac8M1PAAMLCIW4CdjT5epBkG2cL6rRoCWk3hXz7W2/vW6bOqyJA+owr/oD6C+gxahxSFP+wsPMsvA54dqOEBYPwlBQ3dWSjSTINWQ0ArKfzLx86/8zcK/6lrhoZ/rT6C+gxah1SFP8bwsytfVf/lfyXTuQSAMdw0nceLNIuGgNZQ+JePnYd/yJoK/4Cla4RiVsMfwOSml9HTGgCGPb4L7J7Oc0SaZdBu4d+2vponB7e6LiUVvr/pGoV/qW+Fv8I/oKFEhb9hty20cAC44ni2QePXF0SabZd9iGse/nvtBMzSzZu/xDX3XoDCX+GfuPAnYI2Mhz+ANdxyeZ1P/5tqWgPAeFHfmfZzRJpokLGPEtYQMDPa9i8f64a/On1WFRnSZ1ThH9RHUJ9B65DO8B9/2I3hj6g27QEgV+S7QHG6zxNpJg0BM6PwLx87/87fKPynrhka/rX6COozaB1SHP6GwtBYNk/LtAeAi07kCSy/me7zRJptkC2sf1hDQKMU/uVj5+EfsqbCP2DpGqGo8J/4+q+v+UueDH9ktelfAhir6YaZPE+k2QaN3iyoEQr/8rHCv06fVQ2F9Knwr16jsoZowh8vx7fDHxlsRgNALse3gMJMnivSbANoCAij8C8fK/zr9FnVUEifUYQ/AWso/Ced1xh243F9+KODzWgAuHgZT1mrNwWS+NAQEEzhXz5W+Nfps6qhkD6jCv+gPoL6DFqH9If/+NN/emknT4c/I9iMBoBx/zGL54o03YBuDJxE4V8+VvjX6bOqoZA+owj/Wn0E9Rm0DtkIfwDP8s3wZ9Q24wHAb+dGYGCmzxdpBb06YIzCv3ys8K/TZ1VDIX1GFf4BoajwD/z64NAw3wt/Vm0zHgAuOY4Baxv/2EGRqGR9CPjR5i8q/Et9K/wV/gENpSH8jQHP8L2rTmVX+DNrm80lAIzh67N5vkirZHUI+NHmL/KFuz+Mwl/hr/APbigt4Y8F3+dr4c8MN6sBYNMmfgw8MptziLRK1oYAhX/5WOFfp8+qhkL6jCL8CVhD4R94XlOu7c+PPMJPw58dblYDwA1nUrTwjdmcQ6SVBsnGpwgq/MvHCv86fVY1FNJnVN/5B/UR1GfQOmQv/Md//tUbzpzdu/LOagAAyBX5EpN/X0RiZdCmeydA4V8+VvjX6bOqoZA+owr/gFBU+IeHP2B3w5fDz1DfrAeAi0/gjxh+O9vziLRSWi8HKPzLxwr/On1WNRTSp8K/eo3KGtyGP3jc+rkTeSD8LPXNegAAsD5fasZ5RFopbUOAwr98rPCv02dVQyF9Kvyr16iswXH4GwOemf13/9CkAWDePL4F7GjGuURaKS1DgMK/fKzwr9NnVUMhfUYR/gSsofAPPG9Q+APbF3h8K/xMjWnKANB9DLsM/HszziXSamNDwCsSOwQo/MvHTsM/6LEK//rhH9RHUJ9B65Dt8LeAtXy9u5PB8LM1pikDAIDx+AKTf89EYmuQrYkcAhT+5WPn3/kbhf/UNUPDv1YfQX0GrYPCH8Ba1oefrXFNGwAuXsb9wG+adT6RVkvaEKDwLx87D/+QNRX+AUvXCEWF//TCH/j15Sfzu/AzNq5pAwCANVzTzPOJtNogW7lua/yHAIV/+VjhX6fPqoZC+lT4V69RWUOcwt+A1+SMbeoAMLSIbwNPNfOcIq02YMeGgCdiOgQo/MvHCv86fVY1FNJnFOFPwBoK/8Dz1gt/LE8uWMC3w886PU0dAK48ihGDdgEkeQbsVtbHcAhQ+JePFf51+qxqKKTPqMI/qI+gPoPWQeFfeU7P49ruY9gdfubpaeoAMH7Cq6G5RYpEIW5DgMK/fKzwr9NnVUMhfUYR/rX6COozaB0U/lPOOVLwuDr8zNPX9AHgok4ew3J9s88rEoWJIWBws9M6FP7lY4V/nT6rGgrpM6rwDwhFhf+Mwx9j+dYVnTwWfvbpa/oAAOAbLm/FeUWiMGDHXh3gaidA4V8+VvjX6bOqoZA+Ff7Va1TWENPwByhYPht+9plpyQCwrpONwK2tOLdIFFxdDlD4l48V/nX6rGoopE+Ff/UalTXEOPwx/OKKk9gYvsLMtGQAALDaBZCEG7BbuXZLdJcDFP7lY4V/nT6rGgrpM4rwJ2ANhX/geacV/mNrtuS7f2jhADBvGd8F7m/V+UWiUHqzoFYPAQr/8rHCv06fVQ2F9BnVd/5BfQT1GbQOCv9a5zSW/124kpvCV5m5lg0A3QbfWi5r1flFojJxT0CLhgCFf/lY4V+nz6qGQvqMKvwDQlHhP/vwH/9iT7fBD19p5lo2AABsM3zNwtZWriEShVYNAQr/8rHCv06fVQ2F9Knwr16jsoYEhL8xPLpgId8IX2l2WjoArO9k1MDnWrmGSFSaPQQo/MvHCv86fVY1FNKnwr96jcoakhH+4HNZs9/4Z6qWDgAAdphrgedavY5IFJo1BCj8y8cK/zp9VjUU0mcU4U/AGgr/wPPONPwNPLdgUfM+9a+Wlg8AvaewE7iy1euIRGW2Q4DCv3zsNPyDHqvwrx/+QX0E9Rm0Dgr/muec/Gfwue5j2BW+4uy1fAAYdxmwLaK1RFpupkOAwr987Pw7f6Pwn7pmaPjX6iOoz6B1UPjXPOfkNXcM7G7dS/8qRTIA9HSyHfh8FGuJRGXAbuXahxsfAhT+5WPn4R+ypsI/YOkaoajwb3r4Y+CKq/8qmsvmUe0AMJLjUrQLICkzyFaua2AnQOFfPlb41+mzqqGQPhX+1WtU1pCw8MeyY9cIV4Sv2jyRDQBXHM82LFdFtZ5IVHbZ8CFA4V8+VvjX6bOqoZA+owh/AtZQ+AeetwnhjzXRffcPEQ4AAJ7PZcCOKNcUiUKtIUDhXz5W+Nfps6qhkD6jCv+gPoL6DFoHhX/Ncwb/XdtWbIv2LfQjHQAuPoFnrNG7A0o67ZpyY6DCv3ys8K/TZ1VDIX1GEf61+gjqM2gdFP41z1nj75pvueSK46O9TF6n1ebrvo8FQ0M8COwf9doiUVhglnKE92a+cX8PCn+FfyLDPyAUFf6tC38DT5ndHDn+svnIRLoDANB9DLusYW3U64pEZZfdTP/IWtraFP4K/zp9VjUU0qfCv3qNyhoSGv4Avsenog5/cDAAAMyby1XAQy7WFolCWx6OXALtbQp/hX+NPqsaCulT4V+9RmUNCQ5/LA/vXtz6d/0L4mQA6D6G3cbyaRdri0SlLQ+HHwr5PAr/KYUq/Kc2FNJnFOFPwBoK/8DzNjX8Ad+n+8qjGAmvojWcDAAAf3qIrxq419X6IlFob4MjDx0bBhT+1P2Po8LfQfjX6iOoz6B1UPjXPGed8Pfgnq1b+Xp4Fa3jbAC44UyKPpzran2RqLTl4YjxIUDhX3tNhb+j8A8IRYV/68MfoOBz3g1nUgyvpHWcDQAAvZ3cAnzXZQ0iUSgNAe1tCv+gNRX+Cv+shT+Wb192IreEV9JaTgcAAGM5H9xc/xCJUlseDj8Y2tpQ+Cv8a/ep8K9eo7KGFIS/MQwzl67wSlrP+QCwdgWbMNF88pGIa21t40NAfvJ/ExT+Cn+Ff401KmtIQ/gD+Fx2yXHuXwnnfAAAsEN8GnjMdR0iUagcAkDhP+l5IWsq/JsQ/gSsofAPPG+rwt/Cn+cv4OLwaqIRiwGg9xR2Wsv/dV2HSFTa2mDpwWMvEVT4T9ZQ+Ac9VuFfP/yD+gjqM2gdFP41z9nod/6Ab7mw+xh2hVcUjVgMAADzOvkyhg2u6xCJSmkImHh1gMK/8e/8jcJ/6pqh4V+rj6A+g9ZB4V/znNMIfwx3XrbS3cv+porNANBt8ClyLpP//EVSrX3qEIDCv274h6yp8A9YukYoKvwjDn+wvmUVJj4ZF5sBAKBnJbcBN7iuQyRKbW2w9KDxGwMV/pNrUvgH/lzhP0X8wx/P8I1LV/Kr8KqiFasBAKDg0QUMua5DJEoTQ0Cu/GsKfxT+AT9vOPwJWEPhH3jeVoe/teyyRS4Mryp6sRsALl3GwwY+4boOkai1tcFhB439qPCnKiwU/lT3XXHy0N9bhf/kNWqsWVVTE8IfwHj8a++JPBJeWfRiNwAAzN3JpUC/6zpEolbaCchNfdvgrIa/Ga+hxpoK/4Cla/UR1GfQOij8a55zJuEPfZsf4nPhlblR57fLndUbOQ6fDUCb61pEolYowOY/j/2Y6fAPWVPhH7B0jVBU+DsKf0PBGk5Y18nG8OrciOUOAEDPMu7BcLnrOkRcyOfHLweMv1mQwp/qEFT4K/zjHf7g0RPX8IcYDwAAu0foBh50XYeIC22lIaB0Y6DCv7Scwj+oT4V/IFfhbw0PzNvBp8OrcyvWA8DlJzNkLO9h8t8ZkcyY2AkYvxCm8K/f59Q1MxH+QX0E9Rm0Dgr/muec6Xf+YI3H+7pPZTi8QrdiPQAArF3BLzB82XUdIq7k87DkwPIQoPCv3efUNVMf/rX6COozaB0U/jXPOfPwx8L63mX8PLxC92I/AABg+QjwqOsyRFzJ52HJ/tDWrvCv1efUNTMR/gGhqPB3G/7AY6N51oRXGA+JGAB6Otlu4DzXdYi4lG+DQ/aD9nzFLyr8Ff4K/6o1q46jC3/w+MAVx7MtvMp4qPNbGS+r+/h/wOtd1yHi0mgBHnkcRkcV/gr/ij6C+gxaB4V/zXPOMvyN5Ts9K3lTeJXxkYgdgJIcvB942nUdIi615eGQ/SffE6Dwz0j4E7CGwj/wvJF/5295MufzL+FVxkuiBoCLOnkMy7td1yHiWlsbHHLA+BCQxPAPeqzCv374B/UR1GfQOij8a55ztuEPljzvuehEngivNF4SNQAA9Kzge9ay3nUdIq615eHg/Se/RDAR4W/Ga6ixpsI/YOlafQT1GbQOCv+a55x9+ONbru5dxk3hlcZP4gYAgHmG84A/uK5DxLXSENCeT1D4h6yp8A9YukYoKvzjEf4Yfr/AY1V4pfFU57c3vlb1scyD3wLtrmsRcW20AI8+Mfajwp/JAaXwV/i3LvxHCrs56bKTuSu82nhK5A4AwPj7K3/cdR0icVC5EwAo/APWSVz4E7CGwj/wvI7CH3w+ltTwhwQPAAAdy+kF/tt1HSJx0JaHg/av+ACh0hdch3/QYxX+9cM/qI+gPoPWQeFf85xNCn9r+dm8Fcn+wLpEDwDdBj+f5yzgWde1iMRBWx4OOmDyBwg5/87fKPynrll32z+oj6A+g9ZB4V/znM36zt/yXLvlnd0GP7zieEv0AADwmZfwqDW8x3UdInHRlhu7HJDPxyD8Q9ZU+AcsXSMUFf6xCn+M5b2fWcnW8IrjL/EDAEDvcm4EvuK6DpG4yOfh4H0hl1P4K/zD11T4B5daK/zxWN+zkuvDK06GVAwAAB0dfBC433UdInGRb4OD9oN8TuFf1WdVQyF9RhH+BKyh8A88r9PwN/zOz/OR8IqTIzUDQPcx7PKKvAHY7roWkbhoa4OD9oVcHoV/nMM/qI+gPoPWQeFf85zNDf9tnuH0S45jILzq5EjNAABw8Qn80VrOYvLfU5FMKw0BeU/hX91QSJ9RbfsH9RHUZ9A6KPxrnrOZ4Q8Wn3etXc6D4VUnS6oGAIDeFdxkYK3rOkTipC0PB+43dk8AoPAP4CT8A0JR4R+78Mfk+FTvSm4Mrzp5UjcAAMxdzv+xlh+7rkMkTtrycOA+kPNQ+If1qfCvXqOyhoyFv4WfbXqQT4ZXnUx1/iiS67zb2Ku9nT7gcNe1iMTJaAEefxqKRYV/WO0Kf4U/hoeL0HlpZzo/hj6VOwAAl5/Ms77P6cCQ61pE4qQtDwfsM345QOEfWHvLwp+ANRT+ged1Hv4w7BnemNbwhxQPAADrVnK3tZzjug6RuCkNAZNeIjiuofAPeqzCv374B/UR1GfQOij8a56z+eEPHu9fu5z+8MqTLdUDAEDvCr6O4VrXdYjEzcROQMV/BRoKfzP2P4U/1X1XnHxqECv8g8Ux/L0cn+9dzpfDK0++1A8AAIOL+DBwh+s6ROKmLQ8HBL1ZECHhDzUDVOEfsHSNUFT4xzP8jcdtc+dwfnjl6ZCJAeDKoxjxfV5v4GHXtYjETVsO9g+4J0Dhr/APqifV4W94KDfK6d3HsDu8+nSo80eULl39vNBYfgPs6boWkbgZLcATz4BfVPhDE8K/xpoK/9iG//ac5ZSLVvA/4dWnRyZ2AEp6l/N73+cNwBXJucAAABB7SURBVIjrWkTipi0/thNgPALDQuFPdd8VJ1f416g1YM2qY/fhP2o93pil8IeMDQAA61byS2N5B5P/3osIY5cDDtgXcqbiO39DzQBV+AcsXauPoD6D1kHhX/OcrQl/i+Xdvcv4eXj16ZO5AQBg7Qq+CXzKdR0icdSWg/33Lb9tsMKf6r4rTl4V/gGhqPCPbfjj+3T3rOBr4dWnU50/shSzmNX9fAU4y3UpInE0WoQnx+8JUPhP/HTSyRX+NWoNWLPqOAbhby3f7O3kLZhs7ghncgcAAIN9Dt6Nzd62j0gj2nKw317jHyWs8A8PfwLWUPgHnjcu4W8svxzag3dkNfwhywMAsL6TUQxvtGTrxg+RRrXlYd89x4cAFP5hfVb1EdRn0Doo/Gues0Xhj8/9zOENVx6V7RvC6/zxZcOau1hqi9wO7O+6FpE4KhThqWehUFD4Tw1ifecfLLbhb3m8kOPES5fpfWEyvQNQsvZ4NhvDacB217WIxFE+B/vuBfnxnQCFf401FP6B541R+G/zLa9U+I/RADBu7XL6PY9XArtc1yISR5OGAIW/wr+GGIf/oO/x2nUruTu8g+zQAFDh4mX81nq8Hhh2XYtIHOVzsM+eYz+Cwl/hX71m1XE8wn/IGl69bjm/Du8gWzQATNG7jJ9jeD16t0CRQPkc7LMX5Kf81yMT4U/AGgr/wPPGKPxHfY8zezu5JbyD7NEAEKBnOT+xhn8GCq5rEYmjiSGgYicg9eFfq4+gPoPWQeFf85ytC/8icNa65fwgvINs0gBQQ+9ybrTwbsB3XYtIHOVzsPeeYzsBmQh/fecfKMbhb43hvT0r+M/wDrJLA0CI3k6+iuFDrusQiat8DvYu7QQo/IPXQeFf85wtDH9r+MDaTv4tvINs0wBQR89yvmAN57muQySuJnYCxi8HKPyrjxX+AedsXfhjDBf2dnJVeAeiAaABvcu5Avi06zpE4qo0BORKOwGlLyQ5/AkORYV/zMMfPrG2k57wDgRq/lOTIGv6WG1hres6ROKqUIBnt0NxygcIJTL8A9ZU+Mc7/K2hp7eTNeEdSIl2AKZhbSc9WFa7rkMkrvJ52GtxxU5AEsO/1g7GlDUn1ajwr64p+vD/V4X/9GgHYAbW9PFeC19AA5RIoEIBnt0GRUhe+AeEosI/1uFvMZzX08lnwzuQqTQAzFBXP28xlq8A+XqPFcmiYhGe2QZ+ZVIp/BX+zQ3/ovV4T+9yvhzegQTRADALq/s5E8u/A22uaxGJo2IRntkOvk+8w7/Gmgr/WIf/bgtv6V3Bt8M7kFo0AMzS6j5OA24AOlzXIhJHxeLYjYH+1LfUUvhXrTnpOGBNhf9EDSPAP/as4HvhHUgYDQBNsOpO/trz+D6w0HUtInFULMKzO8Avjv9CXMJf2/41xTj8Bwy8fu0KfhbegdSjAaBJ1tzJCuvxY2Av17WIxFGxCM9th6IN/rrCv/aaCv+JGrZhOa1nJbeFdyCN0ADQRGv6WW4tPwT2d12LSBwVi/DcDihOuRyg8K+9psJ/oobHDbxq7QruCu9AGqUBoMkuuIPDczl+CLzQdS0icTR1CFD4115T4T9Rw32FHKdduoyHwzuQ6dDr2JvskhN4yLTzl6DPnhYJksvBnuNvFhR5+BMcigr/GIe/z3+P5DlF4d98GgBaYO2xPNfRwSuAr7muRSSOch7suWj8HQOj/M6/8usK/8lr1FizqqYowx++0jGfV15xPNvCO5CZqPPXQmbFYtb08XFr+Ff0ey1SpejDtu0VbxbUyvDXd/6BYhr+1lg+ubaTT2Am/ZZIEymUItDVx/9nYD3Q7roWkbgpFmHbDvBB4T+1hmyG/25reXfvCr4eXr3MlgaAiKzp52+t5TvAHq5rEYmbYhG27xjbCVD4Zzr8nzOW09eu4Bfh1UszaACI0IUbeZHv80NgqetaROKmWIRtO8vvGNiUG/4qf6Lwn7xGjTWraoou/B+yhtN6l/P78OqlWXQTYIQuXsb9vs9JwO2uaxGJm1wOFi8Ez1P4B9WT6vD3uK3YxokK/2hpAIjYupU83rGTv7LQ47oWkbjJ52CPRWNDAMxi27/y6wr/yWvUWLOqpojCH4/1HXM59ZLjeDK8emk2XQJwaHU/b8VyLTDPdS0icVL0YcfOilcH6Jr/ZOkI/2EP/mXtCr4UXrm0igYAx1bdyUs8jxuBw13XIhInRR927Br7ACGF/+Q1Ex/+hi2ez5vWrmRDeOXSSroE4Ni6ldztFVkB/MR1LSJxkvNg0QLwcmPHda/5K/wDxS38Lfx4dDfHK/zd0w5AXFjMmn66LFyEBjORCRM7AT61w7/yJwr/yWvUWLOqptaHvyVH77zj+Wi3YcrHQYkLGgBiZlU/r/YsX0fvFyAyoejDjoGxIUDb/jVqDViz6thR+FvYYSzv6F3JjeFVS5Q0AMTQqrs4yhS50cCLXdciEhdFH3buCr4xUOFfvWbVsavwN/zBGE7XS/ziR1vNMbTueB6Y18FJGN0dK1KS82DhgvGXCCr8a4pT+BuP62wbnQr/eNIOQMx19XO6sawH9nZdi0gcFH3YNVBxT4DCf/IaNdasqqm14b/N+rx/3Ql8M7xicUkDQAKsupMDjOHLxvAK17WIxEHRh12D5ZcIKvzjE/7W57/b2znrMy/h0fCKxTUNAElhMav7+RBj7yA4x3U5Iq4VfRgYHPtR4R9wHH34jxqfiztW8And5Z8MGgAS5qMbeHHR8B/AX7iuRcS1iZ2Aqa8OQOEfWFPrwv/3dpS3rjuJjeHVSpzoJsCEuWgF/7N7NycY+ByT/1sjkjk5DxbMG/uxksI/oKYWhb+Ff/fbWKHwTx7tACTY6n7+ActXgANc1yLiUtGHgYGxlwgq/ANqak34P0WOd/cu46bwSiWutAOQYD3L+UkOlhmjf4CSbTkPFswvf4pgicK/xjlnG/6WG/NF/kLhn2zaAUiJNX2cYeEqYB/XtYi44o/fE2Ctwr/mOWcX/o9bw4fWdXJDeJWSBBoAUuSCe9gvX+ASa3mb61pEXPF9GBgaf8dAhX+zwt8ayzd2F/jw5SfzbHiVkhQaAFKoawNvMoYr0b0BklGlnYAqCv9JX28w/P9oc5y9bhm/DK9Qkkb3AKRQ7wq+DbzAjL1SoOi6HpGoeeOvDpgUgAr/SV9vIPwL1qN33i6OU/ink3YAUm5VH8s8WA8sd12LSNT8IgwMl8NR4U9D4Q/cbfK8p3cZfeHVSZJpByDl1nWy8Tk4ycAaIGhTVCS1vBzM7wDPKPwbDP8BDB/ZvJlOhX/6aQcgQz52NwcXi1ysmwQla3wfBkfA+ij8g0u1xvCd3QVWXXESm8Mrk7TQAJBBXX2cCnzOwItd1yISFd+HweGxlwgCCv/yufqtz3nrTuDX4VVJ2ugSQAb1dnLLvJ0cD5wLbHddj0gUPA/mzR0PRoU/Fh7zLe+b18lKhX82aQcg4z56O/sXcnzSGN4F5FzXI9JqpZ2ACVkLf8OwsVzuz+EzlxzHQHhFkmYaAASAC/t4gQ+fBM5wXYtIq/k+DI1UvFPglK+nNfw9ww9H4UOXr2BTeDWSBRoAZJI1G3iZNVwCHOe6FpFWKg0Bk5KelIa/5W48zrtkBb8Ir0SyRAOAVDnjenKHH8lZnuXjFg5zXY9Iq1g7vhPgjx2nLfwNbC7CJxat4GvdBj+8EskaDQBSU/d9tA8P83Zr+QR6W2FJKWthaPyegLSEv4FnLFy6YIDLu0+l8o4HkQkaAKSuC+5hfn6UD9ixNxPaw3U9Is02sRNQGfhJDH+PncA1C4p8uvtEdoRXIFmnAUAa1nUrC725vF+DgKRRaQgYOxj7ITHh77OLHFcXR1mrT+uTRmkAkGmrGARWA3u6rkekWSovByQh/I3HTlvk2qLPxQp+mS4NADJj597FHu0+HzaWDwF7ua5HpBmsD8OjTLkhIOiBDsPf8CyWKwuDXHHFqWyr05JIIA0AMmvdtzB3aAFnYvgocLTrekRmy1oYLl0OiFH4e4YnjGG98bi0p1Pv4imzowFAmqbb4g1t5DRgDZaTXdcjMhvWh5HRqrcJcBL+Bv5kPL4wvAdXXXkUI4g0gQYAaYnVff9/e/cXIlUZh3H8+3tXB3W1VmULRMlUyhQSFd1tW4qItS4su2i7CLwowoguKgpRvJmrAtvSgm7sosCLSiMohTCLkDTd/JfBWMYqhP3Tjdx03T9n55xfF6O01bjr6s6e2Z3nA8MyzM2zMMz7zDvn/F4agReBh9GZEzJKuUNv1G9xHuHFPxh7Emfza8v5GPt/FxG5HioAUlLrDjIH4zmHp4BJaecRGSp3iPoKkwNHaPGPEmdnldHSUsf+4fgfRIpRAZARsf4ItUnCM8CzwE1p5xEZCneI8pcmBpZu8T9rsCUE3np1Ob8PV3aRK1EBkBGVzZHp6WaVG2tw7kfvQRkl3KEv/5+dgCsYyuJvxtFgvJ3P8+6mBrqHM7PIQPThK6lZe5DbMZ6wws8D09POIzKYyyXAB/g1/ioX//MJfBgyvPn6Eo6VJKzIIFQAJHUvHaN6XJ5mnCcdGtH7UspcFBW5O4BBF3/H2EfCO+ECH7Q8wMWShhQZhD5opaxs+IZZceBxh6eBW9POI1JMsZ2AKy3+7vxmxntxzJY3GjkxokFFBqACIGXp0kyBJnNWOzwCVKedSaQ/B/r6CiWgyNjgToMdibO1pp5dOopXypEKgJS97JdM6L6BJpzVwCogk3YmESiUgPw/OwGxw1fB2Douz/aNjVxIN53IwFQAZFRZ38r0JPAoxmPAvUBV2pmkouUTZ08+4qOLEdu23McfaQcSuVoqADJqvfA10zLjWWlGs8MKtDMgIyN2OGCwvSrP+y/XcybtQCLXQgVAxoTnj1KTyfOQBVbhrACmpJ1JxpTzwC6MT3B26CAeGQtUAGTMad5G1Zw53OWw0gpnEdyRdiYZlU6587kFdk6cwK7sQqK0A4kMJxUAGfPWH2J+bDyI02SF6wZ0R4EU0wnsAXaHmE9fqePHtAOJlJIKgFSUbI5MTxcNGCvcacJYjC4krFQxxhGDz+KY3dXV7Ne3fKkkKgBS0bI5Jvd0UQ80euBunHvQxYRjVQx8a7AP2Nsb8cWmBv5MO5RIWlQARPrJ5pjc000D0OhQR+FxY8qx5Np0AK3mHAD25jPsb1mk8bsil6kAiAwg64Teo8yPnToS6s2oAxYA49POJv/SB+QwWg0OJNC6cQk/YEVH9osIKgAiQ7bmEOOnJtyGsdSMpQksNVgETE47W4XoBE6Ycdydw8DhKOKwjtIVGRoVAJFhsvYIM0LMAjcWurMAY6HBnWgmwbXqBU4COXOOY+Q84fjEZXyv2foi108FQKSUHNtwkJl9gXkB5iYwz4x5OHOBuagcnAdOAW1Am8FJnLYkpm1jHb9oC1+kdFQARFK07jumesTMxLglOLNwZlpglifMcONmg1oKj5B21iFKgHaHdnPOWOBXTzhtxunY+Dk4P/VWcXrzYjrSDipSqVQARMpc8zaqZs+mNgRqzahNEqYFo8ahxowaTy79hUkYU3AmABMpDDzKULiLoX+BuPx6f91AT7/nCfAXEAEXDbrc6MW5YNDlTocFOtzpcOdcgA4C59xpTxLaq5dxVtv0IuXtb7YQ2noBTLkDAAAAAElFTkSuQmCC;" vertex="1" parent="1">
          <mxGeometry x="191" y="1300" width="22" height="22" as="geometry" />
        </mxCell>
        <mxCell id="v3sYc3gb-yKhHvJauMw6-26" value="" style="shape=image;verticalLabelPosition=bottom;labelBackgroundColor=default;verticalAlign=top;aspect=fixed;imageAspect=0;image=data:image/png,iVBORw0KGgoAAAANSUhEUgAAAgAAAAIACAYAAAD0eNT6AAAACXBIWXMAAA7DAAAOwwHHb6hkAAAAGXRFWHRTb2Z0d2FyZQB3d3cuaW5rc2NhcGUub3Jnm+48GgAAIABJREFUeJzs3XmcXGWZ9//Pfaq6k87KvhMCiKg4IEknLMM4w4zOqLiiMM6o/FxBHRcQ0gn6PGO7QbrDpihLGPdxHEF5FBd01MEFEUh3WBzQEQwhAdkhW2/pqnP//uiuruquU6equ6vOfZbv+/XS5KSrzn1dWfhefZ9TVQYRibWz+2jbw2NfW2C/nMd+1rCHgT2w7GlhDwt7AIs9w3wL86zPfGNoBxYD+fEfKy0A2qb82iiwa8qvbQOKwHZr2W08BgwM+pYBA9sMbLOWbcZjG5bnfMs2k+NJC0/N286T3adSaMFvh4g0iXFdgEiWXbiRfW2RQ3w4FFiC4RAPDrFwMLAfsO/4/5LoKeBJ4Cksj1jDo1geMR4P+0W2+h6PXNrJ066LFMkqDQAiLXTG9eQOO4wlnsfzPMORPjzPwJF2/Eegw3WNjg0BDwJ/Ah7E8qCBP5HnwbkvYUu3wXdcn0hqaQAQaZKujRzkFXmRNRxjLS/CcIyBlwDzXdeWULsZGw7uM5b7Mdxnfe7ftJk/3HAmRdfFiSSdBgCRaTq7j7Y9fZ6PYbkxLPdhuYHjgXmua8uIUeABY+i3ln6gvwM2dncy6LowkSTRACAS4ozryR1xBC8ycIKFE4GVwAsZu7lO4qNg4H4f7sRyex7uaO/kfl1CEKlNA4BIhe7bWTSS4xQf/hLDSUAnsNB1XTIjO7BsMB63W5/f2BFu7T2Fna6LEokLDQCSaV23stCbwwm+4WXAKWbsO/ypL5GTdCgC/2stt3qGn43CLXoVgmSZBgDJlPNuo6OtjVOAlxvDy4Hj0L+DrPKBezD81Pj8dO4ubu0+lWHXRYlERf/hk9RbvZHjKPIPeLwcyynAXNc1SSwNAb8Gfgr8pKeT3zmuR6SlNABI6nTfwtzhBZyC4TUWXg8scV2TJI+Bh33LT4zHDzp28FPtDkjaaACQVLjwDva2Hq+zhtcCL0OvvZfmGgD+yxhuGhnhpstP5lnXBYnMlgYASazz+9gnb3mVMZxh4R/QzXsSjaKF2w3ckIPrL+rkMdcFicyEBgBJlI/ezv7FPGcCZwInA57jkiTbilh+g8f1nuH6i5fxlOuCRBqlAUBi77zb6JjTzquBs/SdvsRY0cLtnuFr/hDf1HsOSNxpAJBY6r6F/MAiXuFZ3ga8Bn1ojiTLIIabsPz7pk38WJ9dIHGkAUBipWsDR3vwT9bwDnT3vqTDYwZuKBi+eMly7nVdjEiJBgBxrutWFpoO3mx93mHG3n5XJJUs/AbLl+fN41vdx7DLdT2SbRoAxJkL+3hBEd5u4GxgT9f1iERop7V80+S4qmcZ97guRrJJA4BEqvs+2oeHeJ01nI3lZa7rEYmBfmNYPzLC1y8/mSHXxUh2aACQSHRt5CDP8n5rORvY13U9IjH0JLA+B1fpvQUkChoApKVW9bHMWM4xhrPQe/CLNGI38D3P4/KLl/Fb18VIemkAkKbrtniDfZxuPM7DcrLrekQS7FZruHzeMr7bbfBdFyPpogFAmqb7PtqHBnkzhguBF7iuRyRFNgGf69jJtfpQImkWDQAya123stDM5Z3AKuBg1/WIpNgTxnLNcJ4rrjieba6LkWTTACAzdt5t7NXeznnAB4HFrusRyZBtwOdMO1esPZbnXBcjyaQBQKZt/KN3P2gNHwb2cF2PSIbtsvCF0d306iOKZbo0AEjDzu9jnzbLB6zhXPQdv0ic7DLwJa/ARRedyBOui5Fk0AAgdXXfx4LhIf7FwoUo+EXibJeFLxi4uKeT7a6LkXjTACA1dd9H+/Awb7eWTwL7u65HRBr2jIF1c3fyWb1qQGrRACBVum8hP7SId2D5V+AQ1/WIyIxtMZZP/OkhvqqPJJapNADIJGs28DJruAz4C9e1iEjT/AHLR3pWcLPrQiQ+NAAIABdu5EVFn3UGXuW6FhFpDQM/KMK56zr5k+taxD0NABn3sbs5uFDg08BZgOe6HhFpuREMn+0Y5TPdJ7LDdTHijgaAjDq7j7Y94f3Ap4CFrusRkcg9A3xq0yY+r/sDskkDQAZ1beTvjM/ngBe5rkVEnLsLj3N7lvEr14VItDQAZMiqPo704GLgDNe1iEi8GPhBociHLjmBh1zXItHQAJABZ/fRtqdhFZb/C8x1XY+IxNYQlu6OXVzWfSoF18VIa2kASLlVd/ISz+PfgOWuaxGRZDBwLz7vXruSDa5rkdbRAJBS591GR1s7HzdwAZBzXY+IJE7BwFWFNj56yXEMuC5Gmk8DQAqt3shL8bkOeL7rWkQk8TYZyzlrV/Az14VIc2kASJFz72KP9gI9xvAe9GcrIs11g1fkfRefwDOuC5HmUEikxOp+XoPlauBg17WISGo9gaWrZwVfc12IzJ4GgIT72N0cXCxwjYVXu65FRDLjezl430WdPOa6EJk5DQAJtqafN1jLdcDermsRkczZhuV9PSv4T9eFyMxoAEig826jY047ay18yHUtIpJtxvD1uXN5f/cx7HJdi0yPBoCE6dpIp/H5BrrDX0Ti4yHP4y0XL+O3rguRxmkASAqLWd3Ph4BeoN11OSIiUxSM5TN/eohP6cOFkkEDQAKs7mOJMXzNWv7adS0iImGs5be+z1v0mQLxp89/j7muDbwJuEvhLyJJYAwn5XLc1dXPW1zXIuG0AxBT3bezaLiNz1vL21zXIiIyQ1/p6OCDukEwnjQAxFDXBo42hhuBF7muRURklv6Iz+k9K7nPdSEymS4BxEzXBl5rDHeg8BeRdHg+Hr8dv5wpMaIdgJg443pyhx/BZwx0oT8XEUkfa+DKuTs5v/tUCq6LEQVNLJzfxz55+A/g5a5rERFpJWP4pTfKP150Ik+4riXrNAA4tqqPZR58B1jquhYRkYg84sGbLu7kDteFZJnuAXBo9QbO8uBWFP4iki2H+PDL1f28x3UhWaYdAAc++ABz5m3nStBffhHJNmP4+sgI51x+MkOua8kaDQAR69rIQcbyXSwrXNciIhITd/g+r1+3ksddF5IlGgAi9NENvLho+CGwxHUtIiIx86jv8+p1K7nbdSFZoXsAIrJmAy8rGm5F4S8iEuRgz+NXqzfwSteFZIUGgAh09fMOa/gRsNh1LSIiMbYQw02rN3CO60KyQANAK1nMmg10G8uXgDbX5YiIJEAewzVr+vgsVpepW0m/uS3ywQeYM387X7ToE7FERGboho6dnNV9KsOuC0kjDQAtcN5t7DVnDjfqI3xFRGbJcFvB8rpLO3nadSlpowGgydZs4Ag7dqf/C1zXIiKSEg/6OV617ngecF1ImmgAaKKuDaw0hh8A+7quRUQkZZ4whtPWLqffdSFpoZsAm2TNBv7GGH6Kwl9EpBX2t5ZfdPVxqutC0kIDQBOs7uc11nAzsMh1LSIiKbbAwA/W9PH3rgtJAw0As7S6n7diuRGY67oWEZEMmGfh+2v6eYPrQpJOA8AsrNnAeVi+BuRd1yIikiHt1vKtNf38o+tCkkwDwAyt6WeVNVyGbqQUEXGhzVq+0bWBd7kuJKk0AMzAmj5WW0uv6zpERDIuZwzXdfVzrutCkkgDwDSt2UC3hbWu6xAREQCMsVze1c/HXReSNNq+nobVfXwK+D+u6xARkWoWeno7WeO6jqTQDkCDVm/gMyj8RURiy8DqNX180nUdSaEdgAboO38RkUS5sKdTl2rr0QBQx+o+/hX4hOs6RERkWs7v6eQy10XEmQaAEGv6ON/CJa7rEBGRabMYzulZznWuC4krDQA1dPVzrrFc7roOERGZsaIxvGXtcr7lupA40gAQoGsDbzOGr6LfHxGRpBvF8Mae5XzfdSFxo4CbYvUGXofh2+jtfUVE0mI3ltf3rOBm14XEiQaACmv6+Vtr+SH6YB8RkbQZxOOVPcv4letC4kIDwLiuDaw0hp8DC1zXIiIiLbHdGP5u7XL6XRcSBxoAgAvu4PBcjtuB/VzXIiIiLfW0MZy0djkPui7Etcy/E+B5t7FXLsfNKPxFRLJgH2v5/pp72dN1Ia5legDovo/29nZuAI52XYuIiETmBXaE737wAea4LsSl7A4AFjM8zL8Bf+u6FBERiZjhpfN28BVsdi+FZ3YAWN3Hp63lba7rEBERRyxvXtOX3Y8RzuTks2YD77SGL7quQ0REnLMW3tHbyVddFxK1zA0AazbwN9bwE6DddS0iIhILo8byqrUr+JnrQqKUqQHgwo28yPf5DbCH61pERCRWdgCn9HTyO9eFRCUzA8BH+ziwCLcDS1zXIiIisbTZ9zlp3Uoed11IFDJxE2D3LcwtGr6Hwl9ERGpb6nn8v6y8PDATA8DQQj6PZYXrOkREJPZOnLeDz7ouIgqpHwDW9HM28C7XdYiISEJYzunakP7cSPU9AOMf8PMryMZ2joiINM2w9fir3mX0uS6kVVI7AFx4B3v7OfqApa5rERGRRNpSgOWXdvK060JaIZWXAM64npyf4z9Q+IuIyMwtyVv+84zrybkupBVSOQAccQRrgb93XYeIiCSc4e+OOJxPui6jFVJ3CaCrj9cbuJEU9iYiIk5YazmzdwXfdl1IM6UqJLs2cLQx3Akscl2LiIikyk7P48SLl3G/60KaJTWXALpvZ5EZe7Mfhb+IiDTbQt/nhu77WOC6kGZJzQAw3MbngaNd1yEiIqn1oqEhrnBdRLOk4hJA1wbeZAw3uK5DRETSzxjevHY533Jdx2wlfgDoup1DTJ57gL1c1yIiIpmwDTiup5MtrguZjURfAui2eCbP11D4i4hIdPbA8vWkvz9AogeAwT4uBE51XYeIiGSM4aVHHM75rsuYjcReAljTz3JruQ1od12LiIhk0qi1nNK7gjtdFzITidwBuOAe5lvLN1D4i4iIO23G8I2kvjQwkQNAbpTPopf8iYiIe88bHGKd6yJmInGXANb08wZrudF1HSIiIhMsr+9ZwfdclzEdiRoAPnY3BxcK3APs7boWERGRCk/n4NiLOnnMdSGNStQlgEKBL6DwFxGR+NmnCNe5LmI6EjMArN7Am4HXua5DRESkhtNW9/HProtoVCIuAZx3G3u1t3M/sL/rWkREREI8kytwzEUn8oTrQupJxA7AnHYuQ+EvIiLxt3cxz7Wui2hE7HcAuvo41cDPSUCtIiIiANZyRu8Kvu26jjCxDtXuPuYNwb3Aka5rERERmYYnTDsvXHssz7kupJZYXwIYgk+h8BcRkeTZ39/NRa6LCBPbHYA1d7LCevwWkv1pSyIiklk+Pn/Vs5LbXBcSJJY7AN23kLce16LwFxGR5PKsx7Vn99HmupAgsRwAhhbRBRzvug4REZHZMPDiveAjrusIErtLAKv6ONKD/wHmuq5FRESkCQYLHi+6dBkPuy6kUux2ADzL5Sj8RUQkPeblfS5xXcRUsdoBWNPH31v4ies6REREms7wip7l8cm42AwA3ffRPjTEvcDRrmsRERFpgd8/B8et72TUdSEQo0sAg0Ocj8JfRETS64V7wgddF1ESix2Aj93NwYUCfwAWuK5FRESkhXbkCjw/Dh8WFIsdgGKBz6DwFxGR9FtUyPFJ10VADHYAVm/kOHw2EpNhREREpMWKwPE9nfzOZRHuQ9dySSzqEBERiUYOuMJ1EU6Dd1U/r8byMpc1iIiIOPC3q/v5B5cFOBsAum8h71l6Xa0vIiLikrVccsb17j7zxtkAMLyIdwIvdLW+iIiISwZefOSRvM3h+tHrvoW5gwv5o4FDXawvIiISBwYeHljM0VcexUjUazvZARhayAcU/iIiknUWDuvYzjku1o58B6DrVhaauTwI7Bf12iIicfLC/Lt4qvg7nrZ3ui5F3HrKDnNk7ynsjHLRyHcAzFy6UPiLSMYdnX8nZx31Wd73vJvYx6x0XY64ta+Zy4ejXjTSHYDz+9gnD5uAhVGuKyISJ0fn38nbj/ocZvw/wQOFnVz94Gu1E5Bt2007h689lueiWjDSHYAcXIDCX0QybGr4A8zPL9ROgCy2uzk3ygUj2wG48A729nM8hAYAEcmooPCvpJ2AzNth2lka1S5AZDsANsf5KPxFJKPqhT9oJ0BYxEh09wJEsgNw3m3s1d7OZjQAiEgGNRL+lbQTkGmR3QsQyQ7AnDl8BIW/iGTQdMMfKnYC0E5ABi32R/lQFAu1fAeg+3YWDeV5GNij1WuJiMTJTMK/0kBhJ1c/8FqeRjsBGfNcRwdLuo9hVysXafkOwFCe96PwF5GMmW34w/hOwFG6JyCD9hwa4h2tXqSlOwAffIA587bzEHBgK9cREYmTZoR/Jd0TkEkPdezk+d2nUmjVAi3dAZi3jbej8BeRDGl2+INeHZBRhw8v5A2tXKBlA8AZ15PDcH6rzi8iEjetCP+S+fmFvF9DQKZYw6pWnr9lA8Dhh/MG4KhWnV9EJE5aGf4l8zQEZItlxeo+TmnV6Vt5CeAjLTy3iEhsRBH+JRoCMqdlO+kt+du6pp/l1tLXinOLiMRJlOFfabCwk6t0Y2AWWGs4pnc5v2/2iVuyA2CtvvsXkfRzFf6gnYAMMdjWvDFQ0//Wdm3kIOPzENDe7HOLiMSFy/CvpJ2ATBjOFVh60Yk80cyTNn0HwBT5FxT+IpJicQl/0E5ARswttPHeZp+0qX97x9/4ZyuwbzPPKyISF3EK/0raCUi9JwcXs+TKoxhp1gmbugMwbwdnoPAXkZSKa/jD2E7AB573Aw7ItexVY+LWfvO3cXozT9jsSwDva/L5RERiIc7hXzI3P5/3HnGjhoCUsjT3MkDT/iZf0M+xOcs9zTqfiEhcJCH8Kw0XBrjmodN5vHCr61KkyXKWv7hoBf/TjHM1bQfAs/ruX0TSJ2nhD+M7AYdrJyCNfMN7mnWupvyN7r6PBUNDPAosasb5RETiIInhX2m4MMA1m07n8aJ2AlJke7GNgy85joHZnqgpOwBDw/wTCn8RSZGkhz/onoCUWpwvcEYzTtScSwCWdzblPCIiMZCG8C/REJA+1ucdzTjPrP92d23gaGP4fTPOJSLiWprCv9JwYYBrN53OY7ockAbWGJ6/djkPzuYkzdgBeBcKfxFJgbSGP4ztBJxzxI0cqJ2ANDDA22d7klkNAN23kDeGt862CBER19Ic/iUaAtLDWt5+xvXkZnOOWQ0AQ4t4JXDgbM4hIuJaFsK/RENAahx8xJG8bDYnmN0lAMvbZvV8ERHHshT+JRNDQF5DQJKZWWbwjP/Gd93KQjOXJ4CO2RQgIuJKFsO/km4MTLyBjg4O6D6GXTN58sx3AOZyOgp/EUmorIc/6HJACswfHuQ1M33yjAcAA/880+eKiLik8C8rDQF6n4BksvBPM33ujP72X3AP++VGeRTIz3RhEREXFP7B9LbBiTXqFTnw4hN4ZrpPnNEOgDfKm1H4i0jCKPxrK71joG4MTJw2m5vZWwPP9BLAmTN8noiIEwr/+ubm53PO4RoCksYyswFg2v8SVt3JAZ7HozTxo4RFRFpJ4T89w4UBrn3odB4r6HJAQhSLbRx0yXE8OZ0nTTvEjcfpM3meiIgLCv/p005A4uTyo7x2uk+a/gAAb5zuc0REXFD4z5yGgGTx7fSzeVr/Ki68g739HI+jGwBFJOYU/s0xdjngjTxW+LXrUiTcqGln/7XH8lyjT5jWDkAxz2tR+ItIzCn8m2dsJ+A7HJj/K9elSLg2f4RXT+cJ0xoAPHj99OoREYmWwr/5NAQkgzHTuw+g4X8hH3yAOfO28zSwYNpViYhEQOHfWsOFAdZvfiN/HtXlgJjaNbiYfa48ipFGHtzwDsCCbfwdCn8RiSmFf+vNzc/n7KXf4aA27QTE1IL522j4D6fhAcA307u2ICISFYV/dDQExJuF0xp9bMMDgIFXzawcEZHWUfhHT0NAjE3jPoCGBoAL+jnWwmEzr0hEpPkU/u5oCIitIy7s4wWNPLChASDn84rZ1SMi0lzHtL1X4e/Y3Px83r30Bub5R7guRSoUTWOZ3dglAI+Xz6oaEZEmOjr/Tt76vEsU/jHwi0eup2/TQwwOua5EJtjGMrvuv57uW5g7tJBngY5ZFyUiMkva9o+PH23+Il+4+8OAJZeDpQfDPCVFHAwMLmbvei8HrLsDMLyQl6LwF5EYUPjHR2X4AxR9ePjPaCcgHubP38ZJ9R5UdwCwaPtfRNxT+MfH1PDHgDFQLI4NAUPDTssTGsvuRu4B0AAgIk4p/OOjVvhjx35e8OEhDQHuNXDvXui/pvNuY6/2dp5iBh8bLCLSDAr/+KgX/uM/gIVcHpYeBB1zXVWbef5Ijr2vOJ5ttR4QGuxt7by03mNERFpF4R8f0wl/xi8HbH4UhnRPgCvenCJ/GfqAsC8aw0ubW4+ISGMU/vEx3fAffwi+Dw8/piHAmToZHv7dveWvm1qMiEgDFP7xMdPwL/2kWBoCdE9A9OpkeM1/Xd23s2goz7NArulFiYjUoPCPj9mGf+VxLgdLDtQ9AREr2GH26j2FnUFfrLkDMJLjFBT+IhIhhX98NDP8AQoFvUTQgTxzOLHWF2sOANZwSmvqERGppvCPj2aHv7Vjz/d1OSBynqHmpzXVHgCoPTWIiDSTwj8+WhX+pS/4RdjyZxgKfZNaaRYLJ9T6WuAA0G3xgOUtq0hEZJzCPz5aHf4TLxG0GgIidMJ4plcJ/MVdG3kxsKilJYlI5in84yOq8Ify5YCtGgKisHjkLl4Q9IXAASAXsmUgItIMCv/4iDr8S8sUx4eAQd0T0FK2GHxJP/geAKsBQERaR+EfH67Cv/Tlog+PPK4hoJX8Gt/U17oJcGULaxGRDFP4x4fr8LfjPyn68MhjuhzQKsYEDwBV/wK7b2Hu0EJ2AvmWVyUimaLwj4+4hP/EDwZyBg45EDrmNKFBqTTasZNF3acyaZ+lagdgcAHHovAXkSZT+MdHHMMfxm4M1E5AS7QNLORFU3+xagAwcHw09YhIVij84yOu4W/GH+fbsXsCNAQ0l7HV2V59D4CnAUBEmkfhHx9xD//SsfXhUQ0BTRX0zX3QTYDLIqhFRDJA4R8fSQn/0ikndgL06oDmCPjmftIAcMb15LC8OLqKRCStFP7xkbTwL9VkLTz6hIaAprAcO/UdAScdPO8wjgQ6Ii1KRFJH4R8fSQ3/yp0ADQFNsWDXnRxW+QuTBgCb55ho6xGRtFH4x0fSw5/x2qyFPz8Jw7onYFbMlIyfNAD4fvXLBEREGqXwj4+0hH9pzdJOgIaAmfOmZPykAcAYDQAiMjMK//hIW/iXTupb+LOGgBmbmvFTXwWgAUBEpk3hHx9pDf/SA7QTMHO21gAwfnfg0ZFXJCKJpvCPj7SHf+nQt/DokzC8u9bvhASyvBBb/u2eGADG7w7UKwBEpGEK//jISvhPPNQfvxygIWA6FnTdwcGlg4kBwPN4npt6RCSJFP7xkbXwLz3M16sDps3LlbN+YgAwRgOAiDRG4R8fWQ3/0k+sD489pSGgYSZgALBwpJtqJIs8O4c5/oGuy5AZOKbtvQr/mPjen67KdPhX7gQ8/hSM6HJAXZVZX94BQDsAEg1j23n14q/zvsNuocMudV2OTMPR+Xfy1uddovCPgR9t/iLrf9dF1sMfM7am78OfNQQ0onoHAA0AEgFj23nN4n/n5INP44AFh3LOkh9rCEgIbfvHR9a3/aeGP4A1GgIaNGUAGHtZwOGuqpFsqAz/kokhwF/qrjCpS+EfHwr/8nFl+E8814fHntYQEGLyJYAL72IfYJ6zciT1gsK/5IAFh3LOYRoC4krhHx8K//JxUPiXfuIXx24M1BAQaOGae9kTxgeAgs+hbuuRNAsL/xINAfGk8I8PhX/5OCz8S2tYC48/DSOjyBSF0bHM9wA8qwFAWqOR8C/REBAvCv/4UPiXjxsJ/xK/OP7qAA0Bk+RsxQBg0QAgzTed8C/REBAPCv/4UPiXj6cT/hM7AT48oXsCploC4wOA8TQASHPNJPxLNAS4pfCPD4V/+Xgm4V/6erEIjz+jIaDEULEDgOUQp9VIqswm/Es0BLih8I8PhX/5eDbhb8fX9LUTMMFWXgIADnJYi6RIM8K/RENAtBT+8aHwLx83I/xLD/ctPPEM7NYQcCCUB4D9HRYiKdHM8C/REBANhX98KPzLx80M/xLf1xBgzVjmawCQpmhF+JccsOBQzln6Y+bpHQNbQuEfHwr/8nErwr90nPUhwMB+AObsPtr2hBGqf59EGtLK8K/0+K6trN/yCgbN5paukyUK//hQ+JePWxn+lT/xDOy3N8xpJ2v8jp3M8fbNsx8Kf5khz87hdXt8s+XhD2M7Ae869AfM9fWilWbQp/rFx02brlb4l/qOKPwNY/cEPPksjGTvo4S93R3s7RVHx7YCRKar9Kl+Jx70isjWPHjh4bz3sP/S5YBZ0qf6xcePNn+Ra+9dhcI/2vAv9e3740NAxi4H7G5jfw/Dvq4LkeSJats/yAELlnD2kps1BMyQtv3jQ9v+5WMX4Y8tHz+VsSHAM+zrYcY+FECkUS7Dv0RDwMwo/OND4V8+dhn+pa9Zm60hwCuyh2d99nBdiCRHHMK/ZGII0EsEG6Lwjw+Ff/k4DuFfemxpJ2B3Fj47wLCndgCkYXEK/5IDFizh7MO0E1CPwj8+FP7l4ziFf2XhWRgCLOzhAYtdFyLxF8fwL9HlgHAK//hQ+JeP4xj+pTV8C08+k/ohYLFn0SUACRfn8C/REBBM4R8fCv/ycZzD3078X8p3Aix7agdAQiUh/Es0BEym8I8PhX/5OAnhX3mc1iHAGPbwjGWB60IknpIU/iUaAsYo/OND4V8+TlL4l75ugaefS98QYGG+B8xzXYjETxLDvyTrQ4DCPz4U/uXjJIZ/6QnWpnIImOfh0eG6ComXJId/SVaHAIV/fCj8y8dJDv/SL1sLz6RoCDDQ4WG1AyBlaQj/kqwNAQr/+FD4l4/TEP4T5aVoJ8DCPF0CkAlpCv+SiSGApa5LaSmFf3wo/Mso9BDMAAAgAElEQVTHaQr/0pct8Mw2GC2QdPM8iy4BSDrDv+SABUs4+9D0DgEK//hQ+JeP0xj+pZ9YC08nfwjo8AzMdV2FuJXm8C9J6xCg8I8PhX/5OM3hP3Eem/idgA4PyLuuQtzJQviXpG0IUPjHh8K/fJyF8J/YCfATPQTkNQBkWJbCvyQtQ4DCPz4U/uXjLIV/6bD06oDR5N0YmPOAnOsqJHpZDP+SpL86QOEfHwr/8nEWw7/yN+iZHYkbAvIaADIoy+FfcsD8ZH6KoMI/PhT+5eMsh78xY31bP3FDgHYAskbhXzYxBLDUdSkNUfjHh8K/fKzwr3ishWd3JmYI0A5Alij8qx0wPxnvE6Dwj4+bN39J4V/qW+Ff1actwrPJ2AnIea4rkGgo/GuL+xCg8I+Pmzd/ic/f/SEU/gr/oPCv3Al4bgcUYv7qAA8oui5CWkvhX19chwCFf3wo/MvHCv86fTLW57PxHgKKGgBSTuHfuLgNAQr/+FD4l48V/nX6rHhOaQiI6fsEFDQApJjCf/riMgQo/OND4V8+VvjX6bOqobG+n9sZyyFAOwBppfCfOddDgMI/PhT+5WOFf50+qxqqeJgP2+J3Y2DBA+I3l8isKPxnz9UQoPCPD4V/+VjhX6fPqoYC1rSwbVesdgKKGgBSRuHfPFEPAQr/+FD4l48V/nX6rGqodp/Wh+3xuRxQ8CwMu65CmkPh33wHzF/COREMAQr/+FD4l48V/nX6rGoopM/SOS1sj8dOwJBnYMh1FTJ7Cv/W2b/FQ4DCPz4U/uVjhX+dPqsaCulz6u+PDzvcDwFDHjDotASZNYV/600MAU3+7ACFf3wo/MvHCv86fVY1FNJnjTX90uUAd7fhD3oYDQBJpvCPzv7zl3BOEz9ASOEfHwr/8rHCv06fVQ2F9FljzdKfhbWww9EQYGDQw9clgKRS+EevWUOAwj8+FP7lY4V/nT6rGgrps074AxP3BOxwcGOg1SWA5FL4uzPbIUDhHx8K//Kxwr9On1UNhfTZYPhXcnBPwKBnDbsiXVJmTeHvXmkImM/SaT1P4R8fCv/yscK/Tp9VDYX0Oc3wr/z5jl1QiOhygIEBz8C2aJaTZmm3+3LE4mNdl5F5+89fwrsP/QEd9pCGHn9M23sV/jFx06arFf6lvhX+sQj/0mOjGgIsPKsBIIFGvEe55uGX8+edm12XknkHLjic9x7207o7AUfn38lbn3eJwj8Gbt78Ja69dxUKf4V/rMK/1Lcduyeg1UOAgW2etRoAkmjY28r6La/QEBAD+4+/Y2CtIUDb/vGhbf/yscK/Tp9VDYX02azwL/2SgZ2t3wnY7hlPA0BSaQiIj1pDgMI/PhT+5WOFf50+qxoK6bPJ4U/FcUuHAMtzntUlgETTEBAfU4cAhX98KPzLxwr/On1WNRTSZ4vC35Qfwq4WDQG+xzbP+jzX/FNLlIa9rVy35TQe37XVdSmZV7oxsHPORxX+MfH9Tdco/Et9K/wTE/6lL1pg5wAUmv0SQcN2s+pOXuJ53NXkU4sDc+2hnH3ojzlo4VLXpYjEgr7zLx8r/Ov0WdVQSJ9RhP+UNT0L8+dDPh9c33TlLH/htXk80ZzTiWvDZivrt+pygAgo/BX+5a8nLvwD+rAGdg02bydgdztPeu07eQrwm3NKcU1DgIjCX+Ff/noiw3/qGuN/P6yBgUEozv6egOLD/8szXvepFIBnZ306iQ0NAZJlCv/yscK/Tp9VDYX06Tj8J3YCGNsJmOUQ8PQNZ1L0xg+enNWpJHaGzVau1asDJGMU/uVjhX+dPqsaCukzJuFf+rK1MDA08yHAMHbpvzQA6D6AFBrxNARIdij8y8cK/zp9VjUU0mcU4U/AGjXCf+LUsxgCrBn7pr80ADw2/VNIEozofQIkAxT+5WOn4R/0WIV//fAP6iOozynrWAuDMxgCzHjme+PF6QXkKTbs6Z4ASS+Ff/nY+Xf+RuE/dc262/5BfQT1GbTO+PkHRqY9BGyB8QHAGA0AaTdstnLd1ldqCJBUUfiXj52Hf8iaCv+ApYPWmGb4T7w6oAiD0xgCrD+W+V7lgaTbkNmiIUBSQ+FfPlb41+mzqqGQPhMW/hPP9WFwuLEhwKNiAPB0CSAzhswW1msIkIRT+JePFf51+qxqKKTPKMKfgDVmGf4TJdjGhgAz6RKAP3Yg2TCsIUASTOFfPlb41+mzqqGQPqMK/6A+gvoMWofa4V86pwWGhsEPeXu/4vhl/4mnr+5jAJhX+ymSNnP9JZx92M0ctGCp61JEGqLwLx8r/Ov0WdVQSJ8J3fYPashUPHbeXPA8ptrR08liKL8MEAubqh4mqTbsbWH9w9oJkGRQ+JePFf51+qxqKKTPFIY/UL4noHon4E+ln0wMAAYerHqYpN6wN35j4K7NrksRqUnhXz5W+Nfps6qhkD5TGv4T/y4sDI1UDQETWe8F/aJky5DZwnVbNARIPCn8y8cK/zp9VjUU0mfKw7/0BevDcMVOgAkaAEzFtoBkz8QQoMsBEiMK//Kxwr9On1UNhfQZRfgTsEbE4V+55vD4ToBvAy4BVP6iZJOGAIkThX/5WOFfp8+qhkL6jOo7/6A+gvoMWofmhX/p2FoYGYHRAg+XnlIeAHxdAhAY0j0BEgMK//Kxwr9On1UNhfSZkW3/mn1asMMBlwAWrORhYAjJPN0TIC4p/MvHCv86fVY1FNJnxsN/3OAVfxOwA9Bt8IE/IEJ5CHhMQ4BESOFfPlb41+mzqqGQPhX+AHiGP2LKbUx6iwAD9yMybshsYb2GAImIwr98rPCv02dVQyF9RhH+BKwRs/AHwJv8Tf6kAcAaDQAymYYAiYLCv3zsNPyDHqvwrx/+QX0E9Rm0DtGEvzFgi/y+8tcmDwBWA4BU0xAgraTwLx87/87fKPynrll32z+oj6A+g9YhwvAHTJ7fVf76pAEgV9QAIME0BEgrKPzLx87DP2RNhX/A0kFrxDj8AXKEDAAPPsyfgEFEAmgIkGZS+JePFf51+qxqKKRPhX/1GmMGF580+TN/Jg0AN5xJkSkTgkilITP2AUIaAmQ2FP7lY4V/nT6rGgrpM4rwJ2CN+Ic/Bv6ne+zVfhOqPijQwl1Tf02k0pCnIUBmTuFfPlb41+mzqqGQPqMK/6A+gvoMWgdH4T/2gHumPKx6APCMBgCpT0OAzITCv3ys8K/TZ1VDIX1GEf61+gjqM2gdHIa/hZytzvaqAcA3bJz6ayJBNATIdCj8y8cK/zp9VjUU0mdU4R8QxEkJf4Bcjr4pD68eAIYW8jtgdOqviwTRECCNUPiXjxX+dfqsaiikT4V/9RqVNZT/fo/u3o97pzylegC48ihGDJPfLEAkzJCntw2W2hT+5WOFf50+qxoK6VPhX71GZQ22/HMP/njlUYxMeVr1ADC+/h1Bvy5Sy6A+O0ACKPzLxwr/On1WNRTSZxThT8AaCQx/AGu4kwDBA4DVACDTpyFAKin8y8cK/zp9VjUU0mdU3/kH9RHUZ9A6xCf8x38emOmBA0BeOwAyQxoCBBT+Cv/y1xMZ/gFBnNTwB2iz/IYAgQNAeyf3A9uDviZSz6DeMTDTFP7lY4V/nT6rGgrpU+FfvUZlDTXC38COBScHv81/4ADQbfCx1S8ZEGnUkHYCMknhXz5W+Nfps6qhkD4V/tVrVNZQI/wxgKGve8o7AJYEDgAAxuP2Wl8TaYQuB2SLwr98rPCv02dVQyF9RhH+BKyRhvAH8INvAISQAcD6wdcMRKZj0Gzhuq0aAtJO4V8+dhr+QY9V+NcP/6A+gvoMWocYhz9g8vyKGmoPACPcChRqfV2kUYNoCEgzhX/52Pl3/kbhP3XN0PCv1UdQn0HrEPPwh8LuYX5NDTUHgN5T2Inl7lpfF5mOQXQ5II0U/uVj5+EfsqbCP2DpoDVSFP4AvuXuq05lFzXUHADGT1Zz60BkunRPQLoo/MvHCv86fVY1FNKnwr96jcoaGgx/AA9urf7VSV8PYTUASHNpCEgHhX/5WOFfp8+qhkL6jCL8CVgjheGPBc/wi4CvTAgdAHaP8msIfvmAyExpCEg2hX/5WDf81emzqsiQPqMK/6A+gvoMWofkhL8xFHeY2tf/oc4AcPnJPAvcE/YYkZnQmwUlk8K/fOz8O3+j8J+6Zmj41+ojqM+gdUhU+IPhni+OZXhN4ZcAxhb4ad3HiMyA3iwoWRT+5WPn4R+ypsI/YOmgNdIc/oDn8fOAR0xSdwAwvgYAaR29T0AyKPzLxwr/On1WNRTSp8K/eo3KGmYY/hgojPJfAY+apO4AMHcXtwJD9R4nMlN6n4B4U/iXjxX+dfqsaiikzyjCn4A1MhD+WAY5IPz6PzQwAHSfyjB1XkogMlsTQ8DAZtelSAWFf/lY4V+nz6qGQvqMKvyD+gjqM2gdEhv+5Ay/vvIoRgIePUn9ewDGitBlAGm5Qbbwxa2v5qnBR1yXIsAPNl2r8C/1rfBPVvjX6iOoz6B1SG74GwM+/Czg0VUaGgA8n5sbeZzIbO2yD3H1wy/ncV0OcOrmzV/i6nvPR+Gv8E9k+AeEYlbCHyDn8aOAZ1Sp8UdWbXUfm4DDG328yGzMYwlnL7mZA+YvdV1K5mjbv3ys8K/TZ1VDIX0q/KvXqKyhSeGPZfMVf9lYVje0AzBe1A8bfazIbA2yhWs3656AqCn8y8cK/zp9VjUU0qfCv3qNyhqaFf5j5/hBwLMCNTwAgAYAidaQN/Y+AY9rCIiEwr98rPCv02dVQyF9RhH+BKyRwfAHwOP7Ac8M1PAAMLCIW4CdjT5epBkG2cL6rRoCWk3hXz7W2/vW6bOqyJA+owr/oD6C+gxahxSFP+wsPMsvA54dqOEBYPwlBQ3dWSjSTINWQ0ArKfzLx86/8zcK/6lrhoZ/rT6C+gxah1SFP8bwsytfVf/lfyXTuQSAMdw0nceLNIuGgNZQ+JePnYd/yJoK/4Cla4RiVsMfwOSml9HTGgCGPb4L7J7Oc0SaZdBu4d+2vponB7e6LiUVvr/pGoV/qW+Fv8I/oKFEhb9hty20cAC44ni2QePXF0SabZd9iGse/nvtBMzSzZu/xDX3XoDCX+GfuPAnYI2Mhz+ANdxyeZ1P/5tqWgPAeFHfmfZzRJpokLGPEtYQMDPa9i8f64a/On1WFRnSZ1ThH9RHUJ9B65DO8B9/2I3hj6g27QEgV+S7QHG6zxNpJg0BM6PwLx87/87fKPynrhka/rX6COozaB1SHP6GwtBYNk/LtAeAi07kCSy/me7zRJptkC2sf1hDQKMU/uVj5+EfsqbCP2DpGqGo8J/4+q+v+UueDH9ktelfAhir6YaZPE+k2QaN3iyoEQr/8rHCv06fVQ2F9Knwr16jsoZowh8vx7fDHxlsRgNALse3gMJMnivSbANoCAij8C8fK/zr9FnVUEifUYQ/AWso/Ced1xh243F9+KODzWgAuHgZT1mrNwWS+NAQEEzhXz5W+Nfps6qhkD6jCv+gPoL6DFqH9If/+NN/emknT4c/I9iMBoBx/zGL54o03YBuDJxE4V8+VvjX6bOqoZA+owj/Wn0E9Rm0DtkIfwDP8s3wZ9Q24wHAb+dGYGCmzxdpBb06YIzCv3ys8K/TZ1VDIX1GFf4BoajwD/z64NAw3wt/Vm0zHgAuOY4Baxv/2EGRqGR9CPjR5i8q/Et9K/wV/gENpSH8jQHP8L2rTmVX+DNrm80lAIzh67N5vkirZHUI+NHmL/KFuz+Mwl/hr/APbigt4Y8F3+dr4c8MN6sBYNMmfgw8MptziLRK1oYAhX/5WOFfp8+qhkL6jCL8CVhD4R94XlOu7c+PPMJPw58dblYDwA1nUrTwjdmcQ6SVBsnGpwgq/MvHCv86fVY1FNJnVN/5B/UR1GfQOmQv/Md//tUbzpzdu/LOagAAyBX5EpN/X0RiZdCmeydA4V8+VvjX6bOqoZA+owr/gFBU+IeHP2B3w5fDz1DfrAeAi0/gjxh+O9vziLRSWi8HKPzLxwr/On1WNRTSp8K/eo3KGtyGP3jc+rkTeSD8LPXNegAAsD5fasZ5RFopbUOAwr98rPCv02dVQyF9Kvyr16iswXH4GwOemf13/9CkAWDePL4F7GjGuURaKS1DgMK/fKzwr9NnVUMhfUYR/gSsofAPPG9Q+APbF3h8K/xMjWnKANB9DLsM/HszziXSamNDwCsSOwQo/MvHTsM/6LEK//rhH9RHUJ9B65Dt8LeAtXy9u5PB8LM1pikDAIDx+AKTf89EYmuQrYkcAhT+5WPn3/kbhf/UNUPDv1YfQX0GrYPCH8Ba1oefrXFNGwAuXsb9wG+adT6RVkvaEKDwLx87D/+QNRX+AUvXCEWF//TCH/j15Sfzu/AzNq5pAwCANVzTzPOJtNogW7lua/yHAIV/+VjhX6fPqoZC+lT4V69RWUOcwt+A1+SMbeoAMLSIbwNPNfOcIq02YMeGgCdiOgQo/MvHCv86fVY1FNJnFOFPwBoK/8Dz1gt/LE8uWMC3w886PU0dAK48ihGDdgEkeQbsVtbHcAhQ+JePFf51+qxqKKTPqMI/qI+gPoPWQeFfeU7P49ruY9gdfubpaeoAMH7Cq6G5RYpEIW5DgMK/fKzwr9NnVUMhfUYR/rX6COozaB0U/lPOOVLwuDr8zNPX9AHgok4ew3J9s88rEoWJIWBws9M6FP7lY4V/nT6rGgrpM6rwDwhFhf+Mwx9j+dYVnTwWfvbpa/oAAOAbLm/FeUWiMGDHXh3gaidA4V8+VvjX6bOqoZA+Ff7Va1TWENPwByhYPht+9plpyQCwrpONwK2tOLdIFFxdDlD4l48V/nX6rGoopE+Ff/UalTXEOPwx/OKKk9gYvsLMtGQAALDaBZCEG7BbuXZLdJcDFP7lY4V/nT6rGgrpM4rwJ2ANhX/geacV/mNrtuS7f2jhADBvGd8F7m/V+UWiUHqzoFYPAQr/8rHCv06fVQ2F9BnVd/5BfQT1GbQOCv9a5zSW/124kpvCV5m5lg0A3QbfWi5r1flFojJxT0CLhgCFf/lY4V+nz6qGQvqMKvwDQlHhP/vwH/9iT7fBD19p5lo2AABsM3zNwtZWriEShVYNAQr/8rHCv06fVQ2F9Knwr16jsoYEhL8xPLpgId8IX2l2WjoArO9k1MDnWrmGSFSaPQQo/MvHCv86fVY1FNKnwr96jcoakhH+4HNZs9/4Z6qWDgAAdphrgedavY5IFJo1BCj8y8cK/zp9VjUU0mcU4U/AGgr/wPPONPwNPLdgUfM+9a+Wlg8AvaewE7iy1euIRGW2Q4DCv3zsNPyDHqvwrx/+QX0E9Rm0Dgr/muec/Gfwue5j2BW+4uy1fAAYdxmwLaK1RFpupkOAwr987Pw7f6Pwn7pmaPjX6iOoz6B1UPjXPOfkNXcM7G7dS/8qRTIA9HSyHfh8FGuJRGXAbuXahxsfAhT+5WPn4R+ypsI/YOkaoajwb3r4Y+CKq/8qmsvmUe0AMJLjUrQLICkzyFaua2AnQOFfPlb41+mzqqGQPhX+1WtU1pCw8MeyY9cIV4Sv2jyRDQBXHM82LFdFtZ5IVHbZ8CFA4V8+VvjX6bOqoZA+owh/AtZQ+AeetwnhjzXRffcPEQ4AAJ7PZcCOKNcUiUKtIUDhXz5W+Nfps6qhkD6jCv+gPoL6DFoHhX/Ncwb/XdtWbIv2LfQjHQAuPoFnrNG7A0o67ZpyY6DCv3ys8K/TZ1VDIX1GEf61+gjqM2gdFP41z1nj75pvueSK46O9TF6n1ebrvo8FQ0M8COwf9doiUVhglnKE92a+cX8PCn+FfyLDPyAUFf6tC38DT5ndHDn+svnIRLoDANB9DLusYW3U64pEZZfdTP/IWtraFP4K/zp9VjUU0qfCv3qNyhoSGv4Avsenog5/cDAAAMyby1XAQy7WFolCWx6OXALtbQp/hX+NPqsaCulT4V+9RmUNCQ5/LA/vXtz6d/0L4mQA6D6G3cbyaRdri0SlLQ+HHwr5PAr/KYUq/Kc2FNJnFOFPwBoK/8DzNjX8Ad+n+8qjGAmvojWcDAAAf3qIrxq419X6IlFob4MjDx0bBhT+1P2Po8LfQfjX6iOoz6B1UPjXPGed8Pfgnq1b+Xp4Fa3jbAC44UyKPpzran2RqLTl4YjxIUDhX3tNhb+j8A8IRYV/68MfoOBz3g1nUgyvpHWcDQAAvZ3cAnzXZQ0iUSgNAe1tCv+gNRX+Cv+shT+Wb192IreEV9JaTgcAAGM5H9xc/xCJUlseDj8Y2tpQ+Cv8a/ep8K9eo7KGFIS/MQwzl67wSlrP+QCwdgWbMNF88pGIa21t40NAfvJ/ExT+Cn+Ff401KmtIQ/gD+Fx2yXHuXwnnfAAAsEN8GnjMdR0iUagcAkDhP+l5IWsq/JsQ/gSsofAPPG+rwt/Cn+cv4OLwaqIRiwGg9xR2Wsv/dV2HSFTa2mDpwWMvEVT4T9ZQ+Ac9VuFfP/yD+gjqM2gdFP41z9nod/6Ab7mw+xh2hVcUjVgMAADzOvkyhg2u6xCJSmkImHh1gMK/8e/8jcJ/6pqh4V+rj6A+g9ZB4V/znNMIfwx3XrbS3cv+porNANBt8ClyLpP//EVSrX3qEIDCv274h6yp8A9YukYoKvwjDn+wvmUVJj4ZF5sBAKBnJbcBN7iuQyRKbW2w9KDxGwMV/pNrUvgH/lzhP0X8wx/P8I1LV/Kr8KqiFasBAKDg0QUMua5DJEoTQ0Cu/GsKfxT+AT9vOPwJWEPhH3jeVoe/teyyRS4Mryp6sRsALl3GwwY+4boOkai1tcFhB439qPCnKiwU/lT3XXHy0N9bhf/kNWqsWVVTE8IfwHj8a++JPBJeWfRiNwAAzN3JpUC/6zpEolbaCchNfdvgrIa/Ga+hxpoK/4Cla/UR1GfQOij8a55zJuEPfZsf4nPhlblR57fLndUbOQ6fDUCb61pEolYowOY/j/2Y6fAPWVPhH7B0jVBU+DsKf0PBGk5Y18nG8OrciOUOAEDPMu7BcLnrOkRcyOfHLweMv1mQwp/qEFT4K/zjHf7g0RPX8IcYDwAAu0foBh50XYeIC22lIaB0Y6DCv7Scwj+oT4V/IFfhbw0PzNvBp8OrcyvWA8DlJzNkLO9h8t8ZkcyY2AkYvxCm8K/f59Q1MxH+QX0E9Rm0Dgr/muec6Xf+YI3H+7pPZTi8QrdiPQAArF3BLzB82XUdIq7k87DkwPIQoPCv3efUNVMf/rX6COozaB0U/jXPOfPwx8L63mX8PLxC92I/AABg+QjwqOsyRFzJ52HJ/tDWrvCv1efUNTMR/gGhqPB3G/7AY6N51oRXGA+JGAB6Otlu4DzXdYi4lG+DQ/aD9nzFLyr8Ff4K/6o1q46jC3/w+MAVx7MtvMp4qPNbGS+r+/h/wOtd1yHi0mgBHnkcRkcV/gr/ij6C+gxaB4V/zXPOMvyN5Ts9K3lTeJXxkYgdgJIcvB942nUdIi615eGQ/SffE6Dwz0j4E7CGwj/wvJF/5295MufzL+FVxkuiBoCLOnkMy7td1yHiWlsbHHLA+BCQxPAPeqzCv374B/UR1GfQOij8a55ztuEPljzvuehEngivNF4SNQAA9Kzge9ay3nUdIq615eHg/Se/RDAR4W/Ga6ixpsI/YOlafQT1GbQOCv+a55x9+ONbru5dxk3hlcZP4gYAgHmG84A/uK5DxLXSENCeT1D4h6yp8A9YukYoKvzjEf4Yfr/AY1V4pfFU57c3vlb1scyD3wLtrmsRcW20AI8+Mfajwp/JAaXwV/i3LvxHCrs56bKTuSu82nhK5A4AwPj7K3/cdR0icVC5EwAo/APWSVz4E7CGwj/wvI7CH3w+ltTwhwQPAAAdy+kF/tt1HSJx0JaHg/av+ACh0hdch3/QYxX+9cM/qI+gPoPWQeFf85xNCn9r+dm8Fcn+wLpEDwDdBj+f5yzgWde1iMRBWx4OOmDyBwg5/87fKPynrll32z+oj6A+g9ZB4V/znM36zt/yXLvlnd0GP7zieEv0AADwmZfwqDW8x3UdInHRlhu7HJDPxyD8Q9ZU+AcsXSMUFf6xCn+M5b2fWcnW8IrjL/EDAEDvcm4EvuK6DpG4yOfh4H0hl1P4K/zD11T4B5daK/zxWN+zkuvDK06GVAwAAB0dfBC433UdInGRb4OD9oN8TuFf1WdVQyF9RhH+BKyh8A88r9PwN/zOz/OR8IqTIzUDQPcx7PKKvAHY7roWkbhoa4OD9oVcHoV/nMM/qI+gPoPWQeFf85zNDf9tnuH0S45jILzq5EjNAABw8Qn80VrOYvLfU5FMKw0BeU/hX91QSJ9RbfsH9RHUZ9A6KPxrnrOZ4Q8Wn3etXc6D4VUnS6oGAIDeFdxkYK3rOkTipC0PB+43dk8AoPAP4CT8A0JR4R+78Mfk+FTvSm4Mrzp5UjcAAMxdzv+xlh+7rkMkTtrycOA+kPNQ+If1qfCvXqOyhoyFv4WfbXqQT4ZXnUx1/iiS67zb2Ku9nT7gcNe1iMTJaAEefxqKRYV/WO0Kf4U/hoeL0HlpZzo/hj6VOwAAl5/Ms77P6cCQ61pE4qQtDwfsM345QOEfWHvLwp+ANRT+ged1Hv4w7BnemNbwhxQPAADrVnK3tZzjug6RuCkNAZNeIjiuofAPeqzCv374B/UR1GfQOij8a56z+eEPHu9fu5z+8MqTLdUDAEDvCr6O4VrXdYjEzcROQMV/BRoKfzP2P4U/1X1XnHxqECv8g8Ux/L0cn+9dzpfDK0++1A8AAIOL+DBwh+s6ROKmLQ8HBL1ZECHhDzUDVOEfsHSNUFT4xzP8jcdtc+dwfnjl6ZCJAeDKoxjxfV5v4GHXtYjETVsO9g+4J0Dhr/APqifV4W94KDfK6d3HsDu8+nSo80eULl39vNBYfgPs6boWkbgZLcATz4BfVPhDE8K/xpoK/9iG//ac5ZSLVvA/4dWnRyZ2AEp6l/N73+cNwBXJucAAABB7SURBVIjrWkTipi0/thNgPALDQuFPdd8VJ1f416g1YM2qY/fhP2o93pil8IeMDQAA61byS2N5B5P/3osIY5cDDtgXcqbiO39DzQBV+AcsXauPoD6D1kHhX/OcrQl/i+Xdvcv4eXj16ZO5AQBg7Qq+CXzKdR0icdSWg/33Lb9tsMKf6r4rTl4V/gGhqPCPbfjj+3T3rOBr4dWnU50/shSzmNX9fAU4y3UpInE0WoQnx+8JUPhP/HTSyRX+NWoNWLPqOAbhby3f7O3kLZhs7ghncgcAAIN9Dt6Nzd62j0gj2nKw317jHyWs8A8PfwLWUPgHnjcu4W8svxzag3dkNfwhywMAsL6TUQxvtGTrxg+RRrXlYd89x4cAFP5hfVb1EdRn0Doo/Gues0Xhj8/9zOENVx6V7RvC6/zxZcOau1hqi9wO7O+6FpE4KhThqWehUFD4Tw1ifecfLLbhb3m8kOPES5fpfWEyvQNQsvZ4NhvDacB217WIxFE+B/vuBfnxnQCFf401FP6B541R+G/zLa9U+I/RADBu7XL6PY9XArtc1yISR5OGAIW/wr+GGIf/oO/x2nUruTu8g+zQAFDh4mX81nq8Hhh2XYtIHOVzsM+eYz+Cwl/hX71m1XE8wn/IGl69bjm/Du8gWzQATNG7jJ9jeD16t0CRQPkc7LMX5Kf81yMT4U/AGgr/wPPGKPxHfY8zezu5JbyD7NEAEKBnOT+xhn8GCq5rEYmjiSGgYicg9eFfq4+gPoPWQeFf85ytC/8icNa65fwgvINs0gBQQ+9ybrTwbsB3XYtIHOVzsPeeYzsBmQh/fecfKMbhb43hvT0r+M/wDrJLA0CI3k6+iuFDrusQiat8DvYu7QQo/IPXQeFf85wtDH9r+MDaTv4tvINs0wBQR89yvmAN57muQySuJnYCxi8HKPyrjxX+AedsXfhjDBf2dnJVeAeiAaABvcu5Avi06zpE4qo0BORKOwGlLyQ5/AkORYV/zMMfPrG2k57wDgRq/lOTIGv6WG1hres6ROKqUIBnt0NxygcIJTL8A9ZU+Mc7/K2hp7eTNeEdSIl2AKZhbSc9WFa7rkMkrvJ52GtxxU5AEsO/1g7GlDUn1ajwr64p+vD/V4X/9GgHYAbW9PFeC19AA5RIoEIBnt0GRUhe+AeEosI/1uFvMZzX08lnwzuQqTQAzFBXP28xlq8A+XqPFcmiYhGe2QZ+ZVIp/BX+zQ3/ovV4T+9yvhzegQTRADALq/s5E8u/A22uaxGJo2IRntkOvk+8w7/Gmgr/WIf/bgtv6V3Bt8M7kFo0AMzS6j5OA24AOlzXIhJHxeLYjYH+1LfUUvhXrTnpOGBNhf9EDSPAP/as4HvhHUgYDQBNsOpO/trz+D6w0HUtInFULMKzO8Avjv9CXMJf2/41xTj8Bwy8fu0KfhbegdSjAaBJ1tzJCuvxY2Av17WIxFGxCM9th6IN/rrCv/aaCv+JGrZhOa1nJbeFdyCN0ADQRGv6WW4tPwT2d12LSBwVi/DcDihOuRyg8K+9psJ/oobHDbxq7QruCu9AGqUBoMkuuIPDczl+CLzQdS0icTR1CFD4115T4T9Rw32FHKdduoyHwzuQ6dDr2JvskhN4yLTzl6DPnhYJksvBnuNvFhR5+BMcigr/GIe/z3+P5DlF4d98GgBaYO2xPNfRwSuAr7muRSSOch7suWj8HQOj/M6/8usK/8lr1FizqqYowx++0jGfV15xPNvCO5CZqPPXQmbFYtb08XFr+Ff0ey1SpejDtu0VbxbUyvDXd/6BYhr+1lg+ubaTT2Am/ZZIEymUItDVx/9nYD3Q7roWkbgpFmHbDvBB4T+1hmyG/25reXfvCr4eXr3MlgaAiKzp52+t5TvAHq5rEYmbYhG27xjbCVD4Zzr8nzOW09eu4Bfh1UszaACI0IUbeZHv80NgqetaROKmWIRtO8vvGNiUG/4qf6Lwn7xGjTWraoou/B+yhtN6l/P78OqlWXQTYIQuXsb9vs9JwO2uaxGJm1wOFi8Ez1P4B9WT6vD3uK3YxokK/2hpAIjYupU83rGTv7LQ47oWkbjJ52CPRWNDAMxi27/y6wr/yWvUWLOqpojCH4/1HXM59ZLjeDK8emk2XQJwaHU/b8VyLTDPdS0icVL0YcfOilcH6Jr/ZOkI/2EP/mXtCr4UXrm0igYAx1bdyUs8jxuBw13XIhInRR927Br7ACGF/+Q1Ex/+hi2ez5vWrmRDeOXSSroE4Ni6ldztFVkB/MR1LSJxkvNg0QLwcmPHda/5K/wDxS38Lfx4dDfHK/zd0w5AXFjMmn66LFyEBjORCRM7AT61w7/yJwr/yWvUWLOqptaHvyVH77zj+Wi3YcrHQYkLGgBiZlU/r/YsX0fvFyAyoejDjoGxIUDb/jVqDViz6thR+FvYYSzv6F3JjeFVS5Q0AMTQqrs4yhS50cCLXdciEhdFH3buCr4xUOFfvWbVsavwN/zBGE7XS/ziR1vNMbTueB6Y18FJGN0dK1KS82DhgvGXCCr8a4pT+BuP62wbnQr/eNIOQMx19XO6sawH9nZdi0gcFH3YNVBxT4DCf/IaNdasqqm14b/N+rx/3Ql8M7xicUkDQAKsupMDjOHLxvAK17WIxEHRh12D5ZcIKvzjE/7W57/b2znrMy/h0fCKxTUNAElhMav7+RBj7yA4x3U5Iq4VfRgYHPtR4R9wHH34jxqfiztW8And5Z8MGgAS5qMbeHHR8B/AX7iuRcS1iZ2Aqa8OQOEfWFPrwv/3dpS3rjuJjeHVSpzoJsCEuWgF/7N7NycY+ByT/1sjkjk5DxbMG/uxksI/oKYWhb+Ff/fbWKHwTx7tACTY6n7+ActXgANc1yLiUtGHgYGxlwgq/ANqak34P0WOd/cu46bwSiWutAOQYD3L+UkOlhmjf4CSbTkPFswvf4pgicK/xjlnG/6WG/NF/kLhn2zaAUiJNX2cYeEqYB/XtYi44o/fE2Ctwr/mOWcX/o9bw4fWdXJDeJWSBBoAUuSCe9gvX+ASa3mb61pEXPF9GBgaf8dAhX+zwt8ayzd2F/jw5SfzbHiVkhQaAFKoawNvMoYr0b0BklGlnYAqCv9JX28w/P9oc5y9bhm/DK9Qkkb3AKRQ7wq+DbzAjL1SoOi6HpGoeeOvDpgUgAr/SV9vIPwL1qN33i6OU/ink3YAUm5VH8s8WA8sd12LSNT8IgwMl8NR4U9D4Q/cbfK8p3cZfeHVSZJpByDl1nWy8Tk4ycAaIGhTVCS1vBzM7wDPKPwbDP8BDB/ZvJlOhX/6aQcgQz52NwcXi1ysmwQla3wfBkfA+ij8g0u1xvCd3QVWXXESm8Mrk7TQAJBBXX2cCnzOwItd1yISFd+HweGxlwgCCv/yufqtz3nrTuDX4VVJ2ugSQAb1dnLLvJ0cD5wLbHddj0gUPA/mzR0PRoU/Fh7zLe+b18lKhX82aQcg4z56O/sXcnzSGN4F5FzXI9JqpZ2ACVkLf8OwsVzuz+EzlxzHQHhFkmYaAASAC/t4gQ+fBM5wXYtIq/k+DI1UvFPglK+nNfw9ww9H4UOXr2BTeDWSBRoAZJI1G3iZNVwCHOe6FpFWKg0Bk5KelIa/5W48zrtkBb8Ir0SyRAOAVDnjenKHH8lZnuXjFg5zXY9Iq1g7vhPgjx2nLfwNbC7CJxat4GvdBj+8EskaDQBSU/d9tA8P83Zr+QR6W2FJKWthaPyegLSEv4FnLFy6YIDLu0+l8o4HkQkaAKSuC+5hfn6UD9ixNxPaw3U9Is02sRNQGfhJDH+PncA1C4p8uvtEdoRXIFmnAUAa1nUrC725vF+DgKRRaQgYOxj7ITHh77OLHFcXR1mrT+uTRmkAkGmrGARWA3u6rkekWSovByQh/I3HTlvk2qLPxQp+mS4NADJj597FHu0+HzaWDwF7ua5HpBmsD8OjTLkhIOiBDsPf8CyWKwuDXHHFqWyr05JIIA0AMmvdtzB3aAFnYvgocLTrekRmy1oYLl0OiFH4e4YnjGG98bi0p1Pv4imzowFAmqbb4g1t5DRgDZaTXdcjMhvWh5HRqrcJcBL+Bv5kPL4wvAdXXXkUI4g0gQYAaYnVff9/e/cXIlUZh3H8+3tXB3W1VmULRMlUyhQSFd1tW4qItS4su2i7CLwowoguKgpRvJmrAtvSgm7sosCLSiMohTCLkDTd/JfBWMYqhP3Tjdx03T9n55xfF6O01bjr6s6e2Z3nA8MyzM2zMMz7zDvn/F4agReBh9GZEzJKuUNv1G9xHuHFPxh7Emfza8v5GPt/FxG5HioAUlLrDjIH4zmHp4BJaecRGSp3iPoKkwNHaPGPEmdnldHSUsf+4fgfRIpRAZARsf4ItUnCM8CzwE1p5xEZCneI8pcmBpZu8T9rsCUE3np1Ob8PV3aRK1EBkBGVzZHp6WaVG2tw7kfvQRkl3KEv/5+dgCsYyuJvxtFgvJ3P8+6mBrqHM7PIQPThK6lZe5DbMZ6wws8D09POIzKYyyXAB/g1/ioX//MJfBgyvPn6Eo6VJKzIIFQAJHUvHaN6XJ5mnCcdGtH7UspcFBW5O4BBF3/H2EfCO+ECH7Q8wMWShhQZhD5opaxs+IZZceBxh6eBW9POI1JMsZ2AKy3+7vxmxntxzJY3GjkxokFFBqACIGXp0kyBJnNWOzwCVKedSaQ/B/r6CiWgyNjgToMdibO1pp5dOopXypEKgJS97JdM6L6BJpzVwCogk3YmESiUgPw/OwGxw1fB2Douz/aNjVxIN53IwFQAZFRZ38r0JPAoxmPAvUBV2pmkouUTZ08+4qOLEdu23McfaQcSuVoqADJqvfA10zLjWWlGs8MKtDMgIyN2OGCwvSrP+y/XcybtQCLXQgVAxoTnj1KTyfOQBVbhrACmpJ1JxpTzwC6MT3B26CAeGQtUAGTMad5G1Zw53OWw0gpnEdyRdiYZlU6587kFdk6cwK7sQqK0A4kMJxUAGfPWH2J+bDyI02SF6wZ0R4EU0wnsAXaHmE9fqePHtAOJlJIKgFSUbI5MTxcNGCvcacJYjC4krFQxxhGDz+KY3dXV7Ne3fKkkKgBS0bI5Jvd0UQ80euBunHvQxYRjVQx8a7AP2Nsb8cWmBv5MO5RIWlQARPrJ5pjc000D0OhQR+FxY8qx5Np0AK3mHAD25jPsb1mk8bsil6kAiAwg64Teo8yPnToS6s2oAxYA49POJv/SB+QwWg0OJNC6cQk/YEVH9osIKgAiQ7bmEOOnJtyGsdSMpQksNVgETE47W4XoBE6Ycdydw8DhKOKwjtIVGRoVAJFhsvYIM0LMAjcWurMAY6HBnWgmwbXqBU4COXOOY+Q84fjEZXyv2foi108FQKSUHNtwkJl9gXkB5iYwz4x5OHOBuagcnAdOAW1Am8FJnLYkpm1jHb9oC1+kdFQARFK07jumesTMxLglOLNwZlpglifMcONmg1oKj5B21iFKgHaHdnPOWOBXTzhtxunY+Dk4P/VWcXrzYjrSDipSqVQARMpc8zaqZs+mNgRqzahNEqYFo8ahxowaTy79hUkYU3AmABMpDDzKULiLoX+BuPx6f91AT7/nCfAXEAEXDbrc6MW5YNDlTocFOtzpcOdcgA4C59xpTxLaq5dxVtv0IuXtb7YQ2noBTLkDAAAAAElFTkSuQmCC;" vertex="1" parent="1">
          <mxGeometry x="-81" y="1263" width="22" height="22" as="geometry" />
        </mxCell>
        <mxCell id="v3sYc3gb-yKhHvJauMw6-27" value="" style="shape=image;verticalLabelPosition=bottom;labelBackgroundColor=default;verticalAlign=top;aspect=fixed;imageAspect=0;image=data:image/png,iVBORw0KGgoAAAANSUhEUgAAAgAAAAIACAYAAAD0eNT6AAAACXBIWXMAAA7DAAAOwwHHb6hkAAAAGXRFWHRTb2Z0d2FyZQB3d3cuaW5rc2NhcGUub3Jnm+48GgAAIABJREFUeJzs3XmcXGWZ9//Pfaq6k87KvhMCiKg4IEknLMM4w4zOqLiiMM6o/FxBHRcQ0gn6PGO7QbrDpihLGPdxHEF5FBd01MEFEUh3WBzQEQwhAdkhW2/pqnP//uiuruquU6equ6vOfZbv+/XS5KSrzn1dWfhefZ9TVQYRibWz+2jbw2NfW2C/nMd+1rCHgT2w7GlhDwt7AIs9w3wL86zPfGNoBxYD+fEfKy0A2qb82iiwa8qvbQOKwHZr2W08BgwM+pYBA9sMbLOWbcZjG5bnfMs2k+NJC0/N286T3adSaMFvh4g0iXFdgEiWXbiRfW2RQ3w4FFiC4RAPDrFwMLAfsO/4/5LoKeBJ4Cksj1jDo1geMR4P+0W2+h6PXNrJ066LFMkqDQAiLXTG9eQOO4wlnsfzPMORPjzPwJF2/Eegw3WNjg0BDwJ/Ah7E8qCBP5HnwbkvYUu3wXdcn0hqaQAQaZKujRzkFXmRNRxjLS/CcIyBlwDzXdeWULsZGw7uM5b7Mdxnfe7ftJk/3HAmRdfFiSSdBgCRaTq7j7Y9fZ6PYbkxLPdhuYHjgXmua8uIUeABY+i3ln6gvwM2dncy6LowkSTRACAS4ozryR1xBC8ycIKFE4GVwAsZu7lO4qNg4H4f7sRyex7uaO/kfl1CEKlNA4BIhe7bWTSS4xQf/hLDSUAnsNB1XTIjO7BsMB63W5/f2BFu7T2Fna6LEokLDQCSaV23stCbwwm+4WXAKWbsO/ypL5GTdCgC/2stt3qGn43CLXoVgmSZBgDJlPNuo6OtjVOAlxvDy4Hj0L+DrPKBezD81Pj8dO4ubu0+lWHXRYlERf/hk9RbvZHjKPIPeLwcyynAXNc1SSwNAb8Gfgr8pKeT3zmuR6SlNABI6nTfwtzhBZyC4TUWXg8scV2TJI+Bh33LT4zHDzp28FPtDkjaaACQVLjwDva2Hq+zhtcCL0OvvZfmGgD+yxhuGhnhpstP5lnXBYnMlgYASazz+9gnb3mVMZxh4R/QzXsSjaKF2w3ckIPrL+rkMdcFicyEBgBJlI/ezv7FPGcCZwInA57jkiTbilh+g8f1nuH6i5fxlOuCRBqlAUBi77zb6JjTzquBs/SdvsRY0cLtnuFr/hDf1HsOSNxpAJBY6r6F/MAiXuFZ3ga8Bn1ojiTLIIabsPz7pk38WJ9dIHGkAUBipWsDR3vwT9bwDnT3vqTDYwZuKBi+eMly7nVdjEiJBgBxrutWFpoO3mx93mHG3n5XJJUs/AbLl+fN41vdx7DLdT2SbRoAxJkL+3hBEd5u4GxgT9f1iERop7V80+S4qmcZ97guRrJJA4BEqvs+2oeHeJ01nI3lZa7rEYmBfmNYPzLC1y8/mSHXxUh2aACQSHRt5CDP8n5rORvY13U9IjH0JLA+B1fpvQUkChoApKVW9bHMWM4xhrPQe/CLNGI38D3P4/KLl/Fb18VIemkAkKbrtniDfZxuPM7DcrLrekQS7FZruHzeMr7bbfBdFyPpogFAmqb7PtqHBnkzhguBF7iuRyRFNgGf69jJtfpQImkWDQAya123stDM5Z3AKuBg1/WIpNgTxnLNcJ4rrjieba6LkWTTACAzdt5t7NXeznnAB4HFrusRyZBtwOdMO1esPZbnXBcjyaQBQKZt/KN3P2gNHwb2cF2PSIbtsvCF0d306iOKZbo0AEjDzu9jnzbLB6zhXPQdv0ic7DLwJa/ARRedyBOui5Fk0AAgdXXfx4LhIf7FwoUo+EXibJeFLxi4uKeT7a6LkXjTACA1dd9H+/Awb7eWTwL7u65HRBr2jIF1c3fyWb1qQGrRACBVum8hP7SId2D5V+AQ1/WIyIxtMZZP/OkhvqqPJJapNADIJGs28DJruAz4C9e1iEjT/AHLR3pWcLPrQiQ+NAAIABdu5EVFn3UGXuW6FhFpDQM/KMK56zr5k+taxD0NABn3sbs5uFDg08BZgOe6HhFpuREMn+0Y5TPdJ7LDdTHijgaAjDq7j7Y94f3Ap4CFrusRkcg9A3xq0yY+r/sDskkDQAZ1beTvjM/ngBe5rkVEnLsLj3N7lvEr14VItDQAZMiqPo704GLgDNe1iEi8GPhBociHLjmBh1zXItHQAJABZ/fRtqdhFZb/C8x1XY+IxNYQlu6OXVzWfSoF18VIa2kASLlVd/ISz+PfgOWuaxGRZDBwLz7vXruSDa5rkdbRAJBS591GR1s7HzdwAZBzXY+IJE7BwFWFNj56yXEMuC5Gmk8DQAqt3shL8bkOeL7rWkQk8TYZyzlrV/Az14VIc2kASJFz72KP9gI9xvAe9GcrIs11g1fkfRefwDOuC5HmUEikxOp+XoPlauBg17WISGo9gaWrZwVfc12IzJ4GgIT72N0cXCxwjYVXu65FRDLjezl430WdPOa6EJk5DQAJtqafN1jLdcDermsRkczZhuV9PSv4T9eFyMxoAEig826jY047ay18yHUtIpJtxvD1uXN5f/cx7HJdi0yPBoCE6dpIp/H5BrrDX0Ti4yHP4y0XL+O3rguRxmkASAqLWd3Ph4BeoN11OSIiUxSM5TN/eohP6cOFkkEDQAKs7mOJMXzNWv7adS0iImGs5be+z1v0mQLxp89/j7muDbwJuEvhLyJJYAwn5XLc1dXPW1zXIuG0AxBT3bezaLiNz1vL21zXIiIyQ1/p6OCDukEwnjQAxFDXBo42hhuBF7muRURklv6Iz+k9K7nPdSEymS4BxEzXBl5rDHeg8BeRdHg+Hr8dv5wpMaIdgJg443pyhx/BZwx0oT8XEUkfa+DKuTs5v/tUCq6LEQVNLJzfxz55+A/g5a5rERFpJWP4pTfKP150Ik+4riXrNAA4tqqPZR58B1jquhYRkYg84sGbLu7kDteFZJnuAXBo9QbO8uBWFP4iki2H+PDL1f28x3UhWaYdAAc++ABz5m3nStBffhHJNmP4+sgI51x+MkOua8kaDQAR69rIQcbyXSwrXNciIhITd/g+r1+3ksddF5IlGgAi9NENvLho+CGwxHUtIiIx86jv8+p1K7nbdSFZoXsAIrJmAy8rGm5F4S8iEuRgz+NXqzfwSteFZIUGgAh09fMOa/gRsNh1LSIiMbYQw02rN3CO60KyQANAK1nMmg10G8uXgDbX5YiIJEAewzVr+vgsVpepW0m/uS3ywQeYM387X7ToE7FERGboho6dnNV9KsOuC0kjDQAtcN5t7DVnDjfqI3xFRGbJcFvB8rpLO3nadSlpowGgydZs4Ag7dqf/C1zXIiKSEg/6OV617ngecF1ImmgAaKKuDaw0hh8A+7quRUQkZZ4whtPWLqffdSFpoZsAm2TNBv7GGH6Kwl9EpBX2t5ZfdPVxqutC0kIDQBOs7uc11nAzsMh1LSIiKbbAwA/W9PH3rgtJAw0As7S6n7diuRGY67oWEZEMmGfh+2v6eYPrQpJOA8AsrNnAeVi+BuRd1yIikiHt1vKtNf38o+tCkkwDwAyt6WeVNVyGbqQUEXGhzVq+0bWBd7kuJKk0AMzAmj5WW0uv6zpERDIuZwzXdfVzrutCkkgDwDSt2UC3hbWu6xAREQCMsVze1c/HXReSNNq+nobVfXwK+D+u6xARkWoWeno7WeO6jqTQDkCDVm/gMyj8RURiy8DqNX180nUdSaEdgAboO38RkUS5sKdTl2rr0QBQx+o+/hX4hOs6RERkWs7v6eQy10XEmQaAEGv6ON/CJa7rEBGRabMYzulZznWuC4krDQA1dPVzrrFc7roOERGZsaIxvGXtcr7lupA40gAQoGsDbzOGr6LfHxGRpBvF8Mae5XzfdSFxo4CbYvUGXofh2+jtfUVE0mI3ltf3rOBm14XEiQaACmv6+Vtr+SH6YB8RkbQZxOOVPcv4letC4kIDwLiuDaw0hp8DC1zXIiIiLbHdGP5u7XL6XRcSBxoAgAvu4PBcjtuB/VzXIiIiLfW0MZy0djkPui7Etcy/E+B5t7FXLsfNKPxFRLJgH2v5/pp72dN1Ia5legDovo/29nZuAI52XYuIiETmBXaE737wAea4LsSl7A4AFjM8zL8Bf+u6FBERiZjhpfN28BVsdi+FZ3YAWN3Hp63lba7rEBERRyxvXtOX3Y8RzuTks2YD77SGL7quQ0REnLMW3tHbyVddFxK1zA0AazbwN9bwE6DddS0iIhILo8byqrUr+JnrQqKUqQHgwo28yPf5DbCH61pERCRWdgCn9HTyO9eFRCUzA8BH+ziwCLcDS1zXIiIisbTZ9zlp3Uoed11IFDJxE2D3LcwtGr6Hwl9ERGpb6nn8v6y8PDATA8DQQj6PZYXrOkREJPZOnLeDz7ouIgqpHwDW9HM28C7XdYiISEJYzunakP7cSPU9AOMf8PMryMZ2joiINM2w9fir3mX0uS6kVVI7AFx4B3v7OfqApa5rERGRRNpSgOWXdvK060JaIZWXAM64npyf4z9Q+IuIyMwtyVv+84zrybkupBVSOQAccQRrgb93XYeIiCSc4e+OOJxPui6jFVJ3CaCrj9cbuJEU9iYiIk5YazmzdwXfdl1IM6UqJLs2cLQx3Akscl2LiIikyk7P48SLl3G/60KaJTWXALpvZ5EZe7Mfhb+IiDTbQt/nhu77WOC6kGZJzQAw3MbngaNd1yEiIqn1oqEhrnBdRLOk4hJA1wbeZAw3uK5DRETSzxjevHY533Jdx2wlfgDoup1DTJ57gL1c1yIiIpmwDTiup5MtrguZjURfAui2eCbP11D4i4hIdPbA8vWkvz9AogeAwT4uBE51XYeIiGSM4aVHHM75rsuYjcReAljTz3JruQ1od12LiIhk0qi1nNK7gjtdFzITidwBuOAe5lvLN1D4i4iIO23G8I2kvjQwkQNAbpTPopf8iYiIe88bHGKd6yJmInGXANb08wZrudF1HSIiIhMsr+9ZwfdclzEdiRoAPnY3BxcK3APs7boWERGRCk/n4NiLOnnMdSGNStQlgEKBL6DwFxGR+NmnCNe5LmI6EjMArN7Am4HXua5DRESkhtNW9/HProtoVCIuAZx3G3u1t3M/sL/rWkREREI8kytwzEUn8oTrQupJxA7AnHYuQ+EvIiLxt3cxz7Wui2hE7HcAuvo41cDPSUCtIiIiANZyRu8Kvu26jjCxDtXuPuYNwb3Aka5rERERmYYnTDsvXHssz7kupJZYXwIYgk+h8BcRkeTZ39/NRa6LCBPbHYA1d7LCevwWkv1pSyIiklk+Pn/Vs5LbXBcSJJY7AN23kLce16LwFxGR5PKsx7Vn99HmupAgsRwAhhbRBRzvug4REZHZMPDiveAjrusIErtLAKv6ONKD/wHmuq5FRESkCQYLHi+6dBkPuy6kUux2ADzL5Sj8RUQkPeblfS5xXcRUsdoBWNPH31v4ies6REREms7wip7l8cm42AwA3ffRPjTEvcDRrmsRERFpgd8/B8et72TUdSEQo0sAg0Ocj8JfRETS64V7wgddF1ESix2Aj93NwYUCfwAWuK5FRESkhXbkCjw/Dh8WFIsdgGKBz6DwFxGR9FtUyPFJ10VADHYAVm/kOHw2EpNhREREpMWKwPE9nfzOZRHuQ9dySSzqEBERiUYOuMJ1EU6Dd1U/r8byMpc1iIiIOPC3q/v5B5cFOBsAum8h71l6Xa0vIiLikrVccsb17j7zxtkAMLyIdwIvdLW+iIiISwZefOSRvM3h+tHrvoW5gwv5o4FDXawvIiISBwYeHljM0VcexUjUazvZARhayAcU/iIiknUWDuvYzjku1o58B6DrVhaauTwI7Bf12iIicfLC/Lt4qvg7nrZ3ui5F3HrKDnNk7ynsjHLRyHcAzFy6UPiLSMYdnX8nZx31Wd73vJvYx6x0XY64ta+Zy4ejXjTSHYDz+9gnD5uAhVGuKyISJ0fn38nbj/ocZvw/wQOFnVz94Gu1E5Bt2007h689lueiWjDSHYAcXIDCX0QybGr4A8zPL9ROgCy2uzk3ygUj2wG48A729nM8hAYAEcmooPCvpJ2AzNth2lka1S5AZDsANsf5KPxFJKPqhT9oJ0BYxEh09wJEsgNw3m3s1d7OZjQAiEgGNRL+lbQTkGmR3QsQyQ7AnDl8BIW/iGTQdMMfKnYC0E5ABi32R/lQFAu1fAeg+3YWDeV5GNij1WuJiMTJTMK/0kBhJ1c/8FqeRjsBGfNcRwdLuo9hVysXafkOwFCe96PwF5GMmW34w/hOwFG6JyCD9hwa4h2tXqSlOwAffIA587bzEHBgK9cREYmTZoR/Jd0TkEkPdezk+d2nUmjVAi3dAZi3jbej8BeRDGl2+INeHZBRhw8v5A2tXKBlA8AZ15PDcH6rzi8iEjetCP+S+fmFvF9DQKZYw6pWnr9lA8Dhh/MG4KhWnV9EJE5aGf4l8zQEZItlxeo+TmnV6Vt5CeAjLTy3iEhsRBH+JRoCMqdlO+kt+du6pp/l1tLXinOLiMRJlOFfabCwk6t0Y2AWWGs4pnc5v2/2iVuyA2CtvvsXkfRzFf6gnYAMMdjWvDFQ0//Wdm3kIOPzENDe7HOLiMSFy/CvpJ2ATBjOFVh60Yk80cyTNn0HwBT5FxT+IpJicQl/0E5ARswttPHeZp+0qX97x9/4ZyuwbzPPKyISF3EK/0raCUi9JwcXs+TKoxhp1gmbugMwbwdnoPAXkZSKa/jD2E7AB573Aw7ItexVY+LWfvO3cXozT9jsSwDva/L5RERiIc7hXzI3P5/3HnGjhoCUsjT3MkDT/iZf0M+xOcs9zTqfiEhcJCH8Kw0XBrjmodN5vHCr61KkyXKWv7hoBf/TjHM1bQfAs/ruX0TSJ2nhD+M7AYdrJyCNfMN7mnWupvyN7r6PBUNDPAosasb5RETiIInhX2m4MMA1m07n8aJ2AlJke7GNgy85joHZnqgpOwBDw/wTCn8RSZGkhz/onoCUWpwvcEYzTtScSwCWdzblPCIiMZCG8C/REJA+1ucdzTjPrP92d23gaGP4fTPOJSLiWprCv9JwYYBrN53OY7ockAbWGJ6/djkPzuYkzdgBeBcKfxFJgbSGP4ztBJxzxI0cqJ2ANDDA22d7klkNAN23kDeGt862CBER19Ic/iUaAtLDWt5+xvXkZnOOWQ0AQ4t4JXDgbM4hIuJaFsK/RENAahx8xJG8bDYnmN0lAMvbZvV8ERHHshT+JRNDQF5DQJKZWWbwjP/Gd93KQjOXJ4CO2RQgIuJKFsO/km4MTLyBjg4O6D6GXTN58sx3AOZyOgp/EUmorIc/6HJACswfHuQ1M33yjAcAA/880+eKiLik8C8rDQF6n4BksvBPM33ujP72X3AP++VGeRTIz3RhEREXFP7B9LbBiTXqFTnw4hN4ZrpPnNEOgDfKm1H4i0jCKPxrK71joG4MTJw2m5vZWwPP9BLAmTN8noiIEwr/+ubm53PO4RoCksYyswFg2v8SVt3JAZ7HozTxo4RFRFpJ4T89w4UBrn3odB4r6HJAQhSLbRx0yXE8OZ0nTTvEjcfpM3meiIgLCv/p005A4uTyo7x2uk+a/gAAb5zuc0REXFD4z5yGgGTx7fSzeVr/Ki68g739HI+jGwBFJOYU/s0xdjngjTxW+LXrUiTcqGln/7XH8lyjT5jWDkAxz2tR+ItIzCn8m2dsJ+A7HJj/K9elSLg2f4RXT+cJ0xoAPHj99OoREYmWwr/5NAQkgzHTuw+g4X8hH3yAOfO28zSwYNpViYhEQOHfWsOFAdZvfiN/HtXlgJjaNbiYfa48ipFGHtzwDsCCbfwdCn8RiSmFf+vNzc/n7KXf4aA27QTE1IL522j4D6fhAcA307u2ICISFYV/dDQExJuF0xp9bMMDgIFXzawcEZHWUfhHT0NAjE3jPoCGBoAL+jnWwmEzr0hEpPkU/u5oCIitIy7s4wWNPLChASDn84rZ1SMi0lzHtL1X4e/Y3Px83r30Bub5R7guRSoUTWOZ3dglAI+Xz6oaEZEmOjr/Tt76vEsU/jHwi0eup2/TQwwOua5EJtjGMrvuv57uW5g7tJBngY5ZFyUiMkva9o+PH23+Il+4+8OAJZeDpQfDPCVFHAwMLmbvei8HrLsDMLyQl6LwF5EYUPjHR2X4AxR9ePjPaCcgHubP38ZJ9R5UdwCwaPtfRNxT+MfH1PDHgDFQLI4NAUPDTssTGsvuRu4B0AAgIk4p/OOjVvhjx35e8OEhDQHuNXDvXui/pvNuY6/2dp5iBh8bLCLSDAr/+KgX/uM/gIVcHpYeBB1zXVWbef5Ijr2vOJ5ttR4QGuxt7by03mNERFpF4R8f0wl/xi8HbH4UhnRPgCvenCJ/GfqAsC8aw0ubW4+ISGMU/vEx3fAffwi+Dw8/piHAmToZHv7dveWvm1qMiEgDFP7xMdPwL/2kWBoCdE9A9OpkeM1/Xd23s2goz7NArulFiYjUoPCPj9mGf+VxLgdLDtQ9AREr2GH26j2FnUFfrLkDMJLjFBT+IhIhhX98NDP8AQoFvUTQgTxzOLHWF2sOANZwSmvqERGppvCPj2aHv7Vjz/d1OSBynqHmpzXVHgCoPTWIiDSTwj8+WhX+pS/4RdjyZxgKfZNaaRYLJ9T6WuAA0G3xgOUtq0hEZJzCPz5aHf4TLxG0GgIidMJ4plcJ/MVdG3kxsKilJYlI5in84yOq8Ify5YCtGgKisHjkLl4Q9IXAASAXsmUgItIMCv/4iDr8S8sUx4eAQd0T0FK2GHxJP/geAKsBQERaR+EfH67Cv/Tlog+PPK4hoJX8Gt/U17oJcGULaxGRDFP4x4fr8LfjPyn68MhjuhzQKsYEDwBV/wK7b2Hu0EJ2AvmWVyUimaLwj4+4hP/EDwZyBg45EDrmNKFBqTTasZNF3acyaZ+lagdgcAHHovAXkSZT+MdHHMMfxm4M1E5AS7QNLORFU3+xagAwcHw09YhIVij84yOu4W/GH+fbsXsCNAQ0l7HV2V59D4CnAUBEmkfhHx9xD//SsfXhUQ0BTRX0zX3QTYDLIqhFRDJA4R8fSQn/0ikndgL06oDmCPjmftIAcMb15LC8OLqKRCStFP7xkbTwL9VkLTz6hIaAprAcO/UdAScdPO8wjgQ6Ii1KRFJH4R8fSQ3/yp0ADQFNsWDXnRxW+QuTBgCb55ho6xGRtFH4x0fSw5/x2qyFPz8Jw7onYFbMlIyfNAD4fvXLBEREGqXwj4+0hH9pzdJOgIaAmfOmZPykAcAYDQAiMjMK//hIW/iXTupb+LOGgBmbmvFTXwWgAUBEpk3hHx9pDf/SA7QTMHO21gAwfnfg0ZFXJCKJpvCPj7SHf+nQt/DokzC8u9bvhASyvBBb/u2eGADG7w7UKwBEpGEK//jISvhPPNQfvxygIWA6FnTdwcGlg4kBwPN4npt6RCSJFP7xkbXwLz3M16sDps3LlbN+YgAwRgOAiDRG4R8fWQ3/0k+sD489pSGgYSZgALBwpJtqJIs8O4c5/oGuy5AZOKbtvQr/mPjen67KdPhX7gQ8/hSM6HJAXZVZX94BQDsAEg1j23n14q/zvsNuocMudV2OTMPR+Xfy1uddovCPgR9t/iLrf9dF1sMfM7am78OfNQQ0onoHAA0AEgFj23nN4n/n5INP44AFh3LOkh9rCEgIbfvHR9a3/aeGP4A1GgIaNGUAGHtZwOGuqpFsqAz/kokhwF/qrjCpS+EfHwr/8nFl+E8814fHntYQEGLyJYAL72IfYJ6zciT1gsK/5IAFh3LOYRoC4krhHx8K//JxUPiXfuIXx24M1BAQaOGae9kTxgeAgs+hbuuRNAsL/xINAfGk8I8PhX/5OCz8S2tYC48/DSOjyBSF0bHM9wA8qwFAWqOR8C/REBAvCv/4UPiXjxsJ/xK/OP7qAA0Bk+RsxQBg0QAgzTed8C/REBAPCv/4UPiXj6cT/hM7AT48oXsCploC4wOA8TQASHPNJPxLNAS4pfCPD4V/+Xgm4V/6erEIjz+jIaDEULEDgOUQp9VIqswm/Es0BLih8I8PhX/5eDbhb8fX9LUTMMFWXgIADnJYi6RIM8K/RENAtBT+8aHwLx83I/xLD/ctPPEM7NYQcCCUB4D9HRYiKdHM8C/REBANhX98KPzLx80M/xLf1xBgzVjmawCQpmhF+JccsOBQzln6Y+bpHQNbQuEfHwr/8nErwr90nPUhwMB+AObsPtr2hBGqf59EGtLK8K/0+K6trN/yCgbN5paukyUK//hQ+JePWxn+lT/xDOy3N8xpJ2v8jp3M8fbNsx8Kf5khz87hdXt8s+XhD2M7Ae869AfM9fWilWbQp/rFx02brlb4l/qOKPwNY/cEPPksjGTvo4S93R3s7RVHx7YCRKar9Kl+Jx70isjWPHjh4bz3sP/S5YBZ0qf6xcePNn+Ra+9dhcI/2vAv9e3740NAxi4H7G5jfw/Dvq4LkeSJats/yAELlnD2kps1BMyQtv3jQ9v+5WMX4Y8tHz+VsSHAM+zrYcY+FECkUS7Dv0RDwMwo/OND4V8+dhn+pa9Zm60hwCuyh2d99nBdiCRHHMK/ZGII0EsEG6Lwjw+Ff/k4DuFfemxpJ2B3Fj47wLCndgCkYXEK/5IDFizh7MO0E1CPwj8+FP7l4ziFf2XhWRgCLOzhAYtdFyLxF8fwL9HlgHAK//hQ+JeP4xj+pTV8C08+k/ohYLFn0SUACRfn8C/REBBM4R8fCv/ycZzD3078X8p3Aix7agdAQiUh/Es0BEym8I8PhX/5OAnhX3mc1iHAGPbwjGWB60IknpIU/iUaAsYo/OND4V8+TlL4l75ugaefS98QYGG+B8xzXYjETxLDvyTrQ4DCPz4U/uXjJIZ/6QnWpnIImOfh0eG6ComXJId/SVaHAIV/fCj8y8dJDv/SL1sLz6RoCDDQ4WG1AyBlaQj/kqwNAQr/+FD4l4/TEP4T5aVoJ8DCPF0CkAlpCv+SiSGApa5LaSmFf3wo/Mso9BDMAAAgAElEQVTHaQr/0pct8Mw2GC2QdPM8iy4BSDrDv+SABUs4+9D0DgEK//hQ+JeP0xj+pZ9YC08nfwjo8AzMdV2FuJXm8C9J6xCg8I8PhX/5OM3hP3Eem/idgA4PyLuuQtzJQviXpG0IUPjHh8K/fJyF8J/YCfATPQTkNQBkWJbCvyQtQ4DCPz4U/uXjLIV/6bD06oDR5N0YmPOAnOsqJHpZDP+SpL86QOEfHwr/8nEWw7/yN+iZHYkbAvIaADIoy+FfcsD8ZH6KoMI/PhT+5eMsh78xY31bP3FDgHYAskbhXzYxBLDUdSkNUfjHh8K/fKzwr3ishWd3JmYI0A5Alij8qx0wPxnvE6Dwj4+bN39J4V/qW+Ff1actwrPJ2AnIea4rkGgo/GuL+xCg8I+Pmzd/ic/f/SEU/gr/oPCv3Al4bgcUYv7qAA8oui5CWkvhX19chwCFf3wo/MvHCv86fTLW57PxHgKKGgBSTuHfuLgNAQr/+FD4l48V/nX6rHhOaQiI6fsEFDQApJjCf/riMgQo/OND4V8+VvjX6bOqobG+n9sZyyFAOwBppfCfOddDgMI/PhT+5WOFf50+qxqqeJgP2+J3Y2DBA+I3l8isKPxnz9UQoPCPD4V/+VjhX6fPqoYC1rSwbVesdgKKGgBSRuHfPFEPAQr/+FD4l48V/nX6rGqodp/Wh+3xuRxQ8CwMu65CmkPh33wHzF/COREMAQr/+FD4l48V/nX6rGoopM/SOS1sj8dOwJBnYMh1FTJ7Cv/W2b/FQ4DCPz4U/uVjhX+dPqsaCulz6u+PDzvcDwFDHjDotASZNYV/600MAU3+7ACFf3wo/MvHCv86fVY1FNJnjTX90uUAd7fhD3oYDQBJpvCPzv7zl3BOEz9ASOEfHwr/8rHCv06fVQ2F9FljzdKfhbWww9EQYGDQw9clgKRS+EevWUOAwj8+FP7lY4V/nT6rGgrps074AxP3BOxwcGOg1SWA5FL4uzPbIUDhHx8K//Kxwr9On1UNhfTZYPhXcnBPwKBnDbsiXVJmTeHvXmkImM/SaT1P4R8fCv/yscK/Tp9VDYX0Oc3wr/z5jl1QiOhygIEBz8C2aJaTZmm3+3LE4mNdl5F5+89fwrsP/QEd9pCGHn9M23sV/jFx06arFf6lvhX+sQj/0mOjGgIsPKsBIIFGvEe55uGX8+edm12XknkHLjic9x7207o7AUfn38lbn3eJwj8Gbt78Ja69dxUKf4V/rMK/1Lcduyeg1UOAgW2etRoAkmjY28r6La/QEBAD+4+/Y2CtIUDb/vGhbf/yscK/Tp9VDYX02azwL/2SgZ2t3wnY7hlPA0BSaQiIj1pDgMI/PhT+5WOFf50+qxoK6bPJ4U/FcUuHAMtzntUlgETTEBAfU4cAhX98KPzLxwr/On1WNRTSZ4vC35Qfwq4WDQG+xzbP+jzX/FNLlIa9rVy35TQe37XVdSmZV7oxsHPORxX+MfH9Tdco/Et9K/wTE/6lL1pg5wAUmv0SQcN2s+pOXuJ53NXkU4sDc+2hnH3ojzlo4VLXpYjEgr7zLx8r/Ov0WdVQSJ9RhP+UNT0L8+dDPh9c33TlLH/htXk80ZzTiWvDZivrt+pygAgo/BX+5a8nLvwD+rAGdg02bydgdztPeu07eQrwm3NKcU1DgIjCX+Ff/noiw3/qGuN/P6yBgUEozv6egOLD/8szXvepFIBnZ306iQ0NAZJlCv/yscK/Tp9VDYX06Tj8J3YCGNsJmOUQ8PQNZ1L0xg+enNWpJHaGzVau1asDJGMU/uVjhX+dPqsaCukzJuFf+rK1MDA08yHAMHbpvzQA6D6AFBrxNARIdij8y8cK/zp9VjUU0mcU4U/AGjXCf+LUsxgCrBn7pr80ADw2/VNIEozofQIkAxT+5WOn4R/0WIV//fAP6iOozynrWAuDMxgCzHjme+PF6QXkKTbs6Z4ASS+Ff/nY+Xf+RuE/dc262/5BfQT1GbTO+PkHRqY9BGyB8QHAGA0AaTdstnLd1ldqCJBUUfiXj52Hf8iaCv+ApYPWmGb4T7w6oAiD0xgCrD+W+V7lgaTbkNmiIUBSQ+FfPlb41+mzqqGQPhMW/hPP9WFwuLEhwKNiAPB0CSAzhswW1msIkIRT+JePFf51+qxqKKTPKMKfgDVmGf4TJdjGhgAz6RKAP3Yg2TCsIUASTOFfPlb41+mzqqGQPqMK/6A+gvoMWofa4V86pwWGhsEPeXu/4vhl/4mnr+5jAJhX+ymSNnP9JZx92M0ctGCp61JEGqLwLx8r/Ov0WdVQSJ8J3fYPashUPHbeXPA8ptrR08liKL8MEAubqh4mqTbsbWH9w9oJkGRQ+JePFf51+qxqKKTPFIY/UL4noHon4E+ln0wMAAYerHqYpN6wN35j4K7NrksRqUnhXz5W+Nfps6qhkD5TGv4T/y4sDI1UDQETWe8F/aJky5DZwnVbNARIPCn8y8cK/zp9VjUU0mfKw7/0BevDcMVOgAkaAEzFtoBkz8QQoMsBEiMK//Kxwr9On1UNhfQZRfgTsEbE4V+55vD4ToBvAy4BVP6iZJOGAIkThX/5WOFfp8+qhkL6jOo7/6A+gvoMWofmhX/p2FoYGYHRAg+XnlIeAHxdAhAY0j0BEgMK//Kxwr9On1UNhfSZkW3/mn1asMMBlwAWrORhYAjJPN0TIC4p/MvHCv86fVY1FNJnxsN/3OAVfxOwA9Bt8IE/IEJ5CHhMQ4BESOFfPlb41+mzqqGQPhX+AHiGP2LKbUx6iwAD9yMybshsYb2GAImIwr98rPCv02dVQyF9RhH+BKwRs/AHwJv8Tf6kAcAaDQAymYYAiYLCv3zsNPyDHqvwrx/+QX0E9Rm0DtGEvzFgi/y+8tcmDwBWA4BU0xAgraTwLx87/87fKPynrll32z+oj6A+g9YhwvAHTJ7fVf76pAEgV9QAIME0BEgrKPzLx87DP2RNhX/A0kFrxDj8AXKEDAAPPsyfgEFEAmgIkGZS+JePFf51+qxqKKRPhX/1GmMGF580+TN/Jg0AN5xJkSkTgkilITP2AUIaAmQ2FP7lY4V/nT6rGgrpM4rwJ2CN+Ic/Bv6ne+zVfhOqPijQwl1Tf02k0pCnIUBmTuFfPlb41+mzqqGQPqMK/6A+gvoMWgdH4T/2gHumPKx6APCMBgCpT0OAzITCv3ys8K/TZ1VDIX1GEf61+gjqM2gdHIa/hZytzvaqAcA3bJz6ayJBNATIdCj8y8cK/zp9VjUU0mdU4R8QxEkJf4Bcjr4pD68eAIYW8jtgdOqviwTRECCNUPiXjxX+dfqsaiikT4V/9RqVNZT/fo/u3o97pzylegC48ihGDJPfLEAkzJCntw2W2hT+5WOFf50+qxoK6VPhX71GZQ22/HMP/njlUYxMeVr1ADC+/h1Bvy5Sy6A+O0ACKPzLxwr/On1WNRTSZxThT8AaCQx/AGu4kwDBA4DVACDTpyFAKin8y8cK/zp9VjUU0mdU3/kH9RHUZ9A6xCf8x38emOmBA0BeOwAyQxoCBBT+Cv/y1xMZ/gFBnNTwB2iz/IYAgQNAeyf3A9uDviZSz6DeMTDTFP7lY4V/nT6rGgrpU+FfvUZlDTXC38COBScHv81/4ADQbfCx1S8ZEGnUkHYCMknhXz5W+Nfps6qhkD4V/tVrVNZQI/wxgKGve8o7AJYEDgAAxuP2Wl8TaYQuB2SLwr98rPCv02dVQyF9RhH+BKyRhvAH8INvAISQAcD6wdcMRKZj0Gzhuq0aAtJO4V8+dhr+QY9V+NcP/6A+gvoMWocYhz9g8vyKGmoPACPcChRqfV2kUYNoCEgzhX/52Pl3/kbhP3XN0PCv1UdQn0HrEPPwh8LuYX5NDTUHgN5T2Inl7lpfF5mOQXQ5II0U/uVj5+EfsqbCP2DpoDVSFP4AvuXuq05lFzXUHADGT1Zz60BkunRPQLoo/MvHCv86fVY1FNKnwr96jcoaGgx/AA9urf7VSV8PYTUASHNpCEgHhX/5WOFfp8+qhkL6jCL8CVgjheGPBc/wi4CvTAgdAHaP8msIfvmAyExpCEg2hX/5WDf81emzqsiQPqMK/6A+gvoMWofkhL8xFHeY2tf/oc4AcPnJPAvcE/YYkZnQmwUlk8K/fOz8O3+j8J+6Zmj41+ojqM+gdUhU+IPhni+OZXhN4ZcAxhb4ad3HiMyA3iwoWRT+5WPn4R+ypsI/YOmgNdIc/oDn8fOAR0xSdwAwvgYAaR29T0AyKPzLxwr/On1WNRTSp8K/eo3KGmYY/hgojPJfAY+apO4AMHcXtwJD9R4nMlN6n4B4U/iXjxX+dfqsaiikzyjCn4A1MhD+WAY5IPz6PzQwAHSfyjB1XkogMlsTQ8DAZtelSAWFf/lY4V+nz6qGQvqMKvyD+gjqM2gdEhv+5Ay/vvIoRgIePUn9ewDGitBlAGm5Qbbwxa2v5qnBR1yXIsAPNl2r8C/1rfBPVvjX6iOoz6B1SG74GwM+/Czg0VUaGgA8n5sbeZzIbO2yD3H1wy/ncV0OcOrmzV/i6nvPR+Gv8E9k+AeEYlbCHyDn8aOAZ1Sp8UdWbXUfm4DDG328yGzMYwlnL7mZA+YvdV1K5mjbv3ys8K/TZ1VDIX0q/KvXqKyhSeGPZfMVf9lYVje0AzBe1A8bfazIbA2yhWs3656AqCn8y8cK/zp9VjUU0qfCv3qNyhqaFf5j5/hBwLMCNTwAgAYAidaQN/Y+AY9rCIiEwr98rPCv02dVQyF9RhH+BKyRwfAHwOP7Ac8M1PAAMLCIW4CdjT5epBkG2cL6rRoCWk3hXz7W2/vW6bOqyJA+owr/oD6C+gxahxSFP+wsPMsvA54dqOEBYPwlBQ3dWSjSTINWQ0ArKfzLx86/8zcK/6lrhoZ/rT6C+gxah1SFP8bwsytfVf/lfyXTuQSAMdw0nceLNIuGgNZQ+JePnYd/yJoK/4Cla4RiVsMfwOSml9HTGgCGPb4L7J7Oc0SaZdBu4d+2vponB7e6LiUVvr/pGoV/qW+Fv8I/oKFEhb9hty20cAC44ni2QePXF0SabZd9iGse/nvtBMzSzZu/xDX3XoDCX+GfuPAnYI2Mhz+ANdxyeZ1P/5tqWgPAeFHfmfZzRJpokLGPEtYQMDPa9i8f64a/On1WFRnSZ1ThH9RHUJ9B65DO8B9/2I3hj6g27QEgV+S7QHG6zxNpJg0BM6PwLx87/87fKPynrhka/rX6COozaB1SHP6GwtBYNk/LtAeAi07kCSy/me7zRJptkC2sf1hDQKMU/uVj5+EfsqbCP2DpGqGo8J/4+q+v+UueDH9ktelfAhir6YaZPE+k2QaN3iyoEQr/8rHCv06fVQ2F9Knwr16jsoZowh8vx7fDHxlsRgNALse3gMJMnivSbANoCAij8C8fK/zr9FnVUEifUYQ/AWso/Ced1xh243F9+KODzWgAuHgZT1mrNwWS+NAQEEzhXz5W+Nfps6qhkD6jCv+gPoL6DFqH9If/+NN/emknT4c/I9iMBoBx/zGL54o03YBuDJxE4V8+VvjX6bOqoZA+owj/Wn0E9Rm0DtkIfwDP8s3wZ9Q24wHAb+dGYGCmzxdpBb06YIzCv3ys8K/TZ1VDIX1GFf4BoajwD/z64NAw3wt/Vm0zHgAuOY4Baxv/2EGRqGR9CPjR5i8q/Et9K/wV/gENpSH8jQHP8L2rTmVX+DNrm80lAIzh67N5vkirZHUI+NHmL/KFuz+Mwl/hr/APbigt4Y8F3+dr4c8MN6sBYNMmfgw8MptziLRK1oYAhX/5WOFfp8+qhkL6jCL8CVhD4R94XlOu7c+PPMJPw58dblYDwA1nUrTwjdmcQ6SVBsnGpwgq/MvHCv86fVY1FNJnVN/5B/UR1GfQOmQv/Md//tUbzpzdu/LOagAAyBX5EpN/X0RiZdCmeydA4V8+VvjX6bOqoZA+owr/gFBU+IeHP2B3w5fDz1DfrAeAi0/gjxh+O9vziLRSWi8HKPzLxwr/On1WNRTSp8K/eo3KGtyGP3jc+rkTeSD8LPXNegAAsD5fasZ5RFopbUOAwr98rPCv02dVQyF9Kvyr16iswXH4GwOemf13/9CkAWDePL4F7GjGuURaKS1DgMK/fKzwr9NnVUMhfUYR/gSsofAPPG9Q+APbF3h8K/xMjWnKANB9DLsM/HszziXSamNDwCsSOwQo/MvHTsM/6LEK//rhH9RHUJ9B65Dt8LeAtXy9u5PB8LM1pikDAIDx+AKTf89EYmuQrYkcAhT+5WPn3/kbhf/UNUPDv1YfQX0GrYPCH8Ba1oefrXFNGwAuXsb9wG+adT6RVkvaEKDwLx87D/+QNRX+AUvXCEWF//TCH/j15Sfzu/AzNq5pAwCANVzTzPOJtNogW7lua/yHAIV/+VjhX6fPqoZC+lT4V69RWUOcwt+A1+SMbeoAMLSIbwNPNfOcIq02YMeGgCdiOgQo/MvHCv86fVY1FNJnFOFPwBoK/8Dz1gt/LE8uWMC3w886PU0dAK48ihGDdgEkeQbsVtbHcAhQ+JePFf51+qxqKKTPqMI/qI+gPoPWQeFfeU7P49ruY9gdfubpaeoAMH7Cq6G5RYpEIW5DgMK/fKzwr9NnVUMhfUYR/rX6COozaB0U/lPOOVLwuDr8zNPX9AHgok4ew3J9s88rEoWJIWBws9M6FP7lY4V/nT6rGgrpM6rwDwhFhf+Mwx9j+dYVnTwWfvbpa/oAAOAbLm/FeUWiMGDHXh3gaidA4V8+VvjX6bOqoZA+Ff7Va1TWENPwByhYPht+9plpyQCwrpONwK2tOLdIFFxdDlD4l48V/nX6rGoopE+Ff/UalTXEOPwx/OKKk9gYvsLMtGQAALDaBZCEG7BbuXZLdJcDFP7lY4V/nT6rGgrpM4rwJ2ANhX/geacV/mNrtuS7f2jhADBvGd8F7m/V+UWiUHqzoFYPAQr/8rHCv06fVQ2F9BnVd/5BfQT1GbQOCv9a5zSW/124kpvCV5m5lg0A3QbfWi5r1flFojJxT0CLhgCFf/lY4V+nz6qGQvqMKvwDQlHhP/vwH/9iT7fBD19p5lo2AABsM3zNwtZWriEShVYNAQr/8rHCv06fVQ2F9Knwr16jsoYEhL8xPLpgId8IX2l2WjoArO9k1MDnWrmGSFSaPQQo/MvHCv86fVY1FNKnwr96jcoakhH+4HNZs9/4Z6qWDgAAdphrgedavY5IFJo1BCj8y8cK/zp9VjUU0mcU4U/AGgr/wPPONPwNPLdgUfM+9a+Wlg8AvaewE7iy1euIRGW2Q4DCv3zsNPyDHqvwrx/+QX0E9Rm0Dgr/muec/Gfwue5j2BW+4uy1fAAYdxmwLaK1RFpupkOAwr987Pw7f6Pwn7pmaPjX6iOoz6B1UPjXPOfkNXcM7G7dS/8qRTIA9HSyHfh8FGuJRGXAbuXahxsfAhT+5WPn4R+ypsI/YOkaoajwb3r4Y+CKq/8qmsvmUe0AMJLjUrQLICkzyFaua2AnQOFfPlb41+mzqqGQPhX+1WtU1pCw8MeyY9cIV4Sv2jyRDQBXHM82LFdFtZ5IVHbZ8CFA4V8+VvjX6bOqoZA+owh/AtZQ+AeetwnhjzXRffcPEQ4AAJ7PZcCOKNcUiUKtIUDhXz5W+Nfps6qhkD6jCv+gPoL6DFoHhX/Ncwb/XdtWbIv2LfQjHQAuPoFnrNG7A0o67ZpyY6DCv3ys8K/TZ1VDIX1GEf61+gjqM2gdFP41z1nj75pvueSK46O9TF6n1ebrvo8FQ0M8COwf9doiUVhglnKE92a+cX8PCn+FfyLDPyAUFf6tC38DT5ndHDn+svnIRLoDANB9DLusYW3U64pEZZfdTP/IWtraFP4K/zp9VjUU0qfCv3qNyhoSGv4Avsenog5/cDAAAMyby1XAQy7WFolCWx6OXALtbQp/hX+NPqsaCulT4V+9RmUNCQ5/LA/vXtz6d/0L4mQA6D6G3cbyaRdri0SlLQ+HHwr5PAr/KYUq/Kc2FNJnFOFPwBoK/8DzNjX8Ad+n+8qjGAmvojWcDAAAf3qIrxq419X6IlFob4MjDx0bBhT+1P2Po8LfQfjX6iOoz6B1UPjXPGed8Pfgnq1b+Xp4Fa3jbAC44UyKPpzran2RqLTl4YjxIUDhX3tNhb+j8A8IRYV/68MfoOBz3g1nUgyvpHWcDQAAvZ3cAnzXZQ0iUSgNAe1tCv+gNRX+Cv+shT+Wb192IreEV9JaTgcAAGM5H9xc/xCJUlseDj8Y2tpQ+Cv8a/ep8K9eo7KGFIS/MQwzl67wSlrP+QCwdgWbMNF88pGIa21t40NAfvJ/ExT+Cn+Ff401KmtIQ/gD+Fx2yXHuXwnnfAAAsEN8GnjMdR0iUagcAkDhP+l5IWsq/JsQ/gSsofAPPG+rwt/Cn+cv4OLwaqIRiwGg9xR2Wsv/dV2HSFTa2mDpwWMvEVT4T9ZQ+Ac9VuFfP/yD+gjqM2gdFP41z9nod/6Ab7mw+xh2hVcUjVgMAADzOvkyhg2u6xCJSmkImHh1gMK/8e/8jcJ/6pqh4V+rj6A+g9ZB4V/znNMIfwx3XrbS3cv+porNANBt8ClyLpP//EVSrX3qEIDCv274h6yp8A9YukYoKvwjDn+wvmUVJj4ZF5sBAKBnJbcBN7iuQyRKbW2w9KDxGwMV/pNrUvgH/lzhP0X8wx/P8I1LV/Kr8KqiFasBAKDg0QUMua5DJEoTQ0Cu/GsKfxT+AT9vOPwJWEPhH3jeVoe/teyyRS4Mryp6sRsALl3GwwY+4boOkai1tcFhB439qPCnKiwU/lT3XXHy0N9bhf/kNWqsWVVTE8IfwHj8a++JPBJeWfRiNwAAzN3JpUC/6zpEolbaCchNfdvgrIa/Ga+hxpoK/4Cla/UR1GfQOij8a55zJuEPfZsf4nPhlblR57fLndUbOQ6fDUCb61pEolYowOY/j/2Y6fAPWVPhH7B0jVBU+DsKf0PBGk5Y18nG8OrciOUOAEDPMu7BcLnrOkRcyOfHLweMv1mQwp/qEFT4K/zjHf7g0RPX8IcYDwAAu0foBh50XYeIC22lIaB0Y6DCv7Scwj+oT4V/IFfhbw0PzNvBp8OrcyvWA8DlJzNkLO9h8t8ZkcyY2AkYvxCm8K/f59Q1MxH+QX0E9Rm0Dgr/muec6Xf+YI3H+7pPZTi8QrdiPQAArF3BLzB82XUdIq7k87DkwPIQoPCv3efUNVMf/rX6COozaB0U/jXPOfPwx8L63mX8PLxC92I/AABg+QjwqOsyRFzJ52HJ/tDWrvCv1efUNTMR/gGhqPB3G/7AY6N51oRXGA+JGAB6Otlu4DzXdYi4lG+DQ/aD9nzFLyr8Ff4K/6o1q46jC3/w+MAVx7MtvMp4qPNbGS+r+/h/wOtd1yHi0mgBHnkcRkcV/gr/ij6C+gxaB4V/zXPOMvyN5Ts9K3lTeJXxkYgdgJIcvB942nUdIi615eGQ/SffE6Dwz0j4E7CGwj/wvJF/5295MufzL+FVxkuiBoCLOnkMy7td1yHiWlsbHHLA+BCQxPAPeqzCv374B/UR1GfQOij8a55ztuEPljzvuehEngivNF4SNQAA9Kzge9ay3nUdIq615eHg/Se/RDAR4W/Ga6ixpsI/YOlafQT1GbQOCv+a55x9+ONbru5dxk3hlcZP4gYAgHmG84A/uK5DxLXSENCeT1D4h6yp8A9YukYoKvzjEf4Yfr/AY1V4pfFU57c3vlb1scyD3wLtrmsRcW20AI8+Mfajwp/JAaXwV/i3LvxHCrs56bKTuSu82nhK5A4AwPj7K3/cdR0icVC5EwAo/APWSVz4E7CGwj/wvI7CH3w+ltTwhwQPAAAdy+kF/tt1HSJx0JaHg/av+ACh0hdch3/QYxX+9cM/qI+gPoPWQeFf85xNCn9r+dm8Fcn+wLpEDwDdBj+f5yzgWde1iMRBWx4OOmDyBwg5/87fKPynrll32z+oj6A+g9ZB4V/znM36zt/yXLvlnd0GP7zieEv0AADwmZfwqDW8x3UdInHRlhu7HJDPxyD8Q9ZU+AcsXSMUFf6xCn+M5b2fWcnW8IrjL/EDAEDvcm4EvuK6DpG4yOfh4H0hl1P4K/zD11T4B5daK/zxWN+zkuvDK06GVAwAAB0dfBC433UdInGRb4OD9oN8TuFf1WdVQyF9RhH+BKyh8A88r9PwN/zOz/OR8IqTIzUDQPcx7PKKvAHY7roWkbhoa4OD9oVcHoV/nMM/qI+gPoPWQeFf85zNDf9tnuH0S45jILzq5EjNAABw8Qn80VrOYvLfU5FMKw0BeU/hX91QSJ9RbfsH9RHUZ9A6KPxrnrOZ4Q8Wn3etXc6D4VUnS6oGAIDeFdxkYK3rOkTipC0PB+43dk8AoPAP4CT8A0JR4R+78Mfk+FTvSm4Mrzp5UjcAAMxdzv+xlh+7rkMkTtrycOA+kPNQ+If1qfCvXqOyhoyFv4WfbXqQT4ZXnUx1/iiS67zb2Ku9nT7gcNe1iMTJaAEefxqKRYV/WO0Kf4U/hoeL0HlpZzo/hj6VOwAAl5/Ms77P6cCQ61pE4qQtDwfsM345QOEfWHvLwp+ANRT+ged1Hv4w7BnemNbwhxQPAADrVnK3tZzjug6RuCkNAZNeIjiuofAPeqzCv374B/UR1GfQOij8a56z+eEPHu9fu5z+8MqTLdUDAEDvCr6O4VrXdYjEzcROQMV/BRoKfzP2P4U/1X1XnHxqECv8g8Ux/L0cn+9dzpfDK0++1A8AAIOL+DBwh+s6ROKmLQ8HBL1ZECHhDzUDVOEfsHSNUFT4xzP8jcdtc+dwfnjl6ZCJAeDKoxjxfV5v4GHXtYjETVsO9g+4J0Dhr/APqifV4W94KDfK6d3HsDu8+nSo80eULl39vNBYfgPs6boWkbgZLcATz4BfVPhDE8K/xpoK/9iG//ac5ZSLVvA/4dWnRyZ2AEp6l/N73+cNwBXJucAAABB7SURBVIjrWkTipi0/thNgPALDQuFPdd8VJ1f416g1YM2qY/fhP2o93pil8IeMDQAA61byS2N5B5P/3osIY5cDDtgXcqbiO39DzQBV+AcsXauPoD6D1kHhX/OcrQl/i+Xdvcv4eXj16ZO5AQBg7Qq+CXzKdR0icdSWg/33Lb9tsMKf6r4rTl4V/gGhqPCPbfjj+3T3rOBr4dWnU50/shSzmNX9fAU4y3UpInE0WoQnx+8JUPhP/HTSyRX+NWoNWLPqOAbhby3f7O3kLZhs7ghncgcAAIN9Dt6Nzd62j0gj2nKw317jHyWs8A8PfwLWUPgHnjcu4W8svxzag3dkNfwhywMAsL6TUQxvtGTrxg+RRrXlYd89x4cAFP5hfVb1EdRn0Doo/Gues0Xhj8/9zOENVx6V7RvC6/zxZcOau1hqi9wO7O+6FpE4KhThqWehUFD4Tw1ifecfLLbhb3m8kOPES5fpfWEyvQNQsvZ4NhvDacB217WIxFE+B/vuBfnxnQCFf401FP6B541R+G/zLa9U+I/RADBu7XL6PY9XArtc1yISR5OGAIW/wr+GGIf/oO/x2nUruTu8g+zQAFDh4mX81nq8Hhh2XYtIHOVzsM+eYz+Cwl/hX71m1XE8wn/IGl69bjm/Du8gWzQATNG7jJ9jeD16t0CRQPkc7LMX5Kf81yMT4U/AGgr/wPPGKPxHfY8zezu5JbyD7NEAEKBnOT+xhn8GCq5rEYmjiSGgYicg9eFfq4+gPoPWQeFf85ytC/8icNa65fwgvINs0gBQQ+9ybrTwbsB3XYtIHOVzsPeeYzsBmQh/fecfKMbhb43hvT0r+M/wDrJLA0CI3k6+iuFDrusQiat8DvYu7QQo/IPXQeFf85wtDH9r+MDaTv4tvINs0wBQR89yvmAN57muQySuJnYCxi8HKPyrjxX+AedsXfhjDBf2dnJVeAeiAaABvcu5Avi06zpE4qo0BORKOwGlLyQ5/AkORYV/zMMfPrG2k57wDgRq/lOTIGv6WG1hres6ROKqUIBnt0NxygcIJTL8A9ZU+Mc7/K2hp7eTNeEdSIl2AKZhbSc9WFa7rkMkrvJ52GtxxU5AEsO/1g7GlDUn1ajwr64p+vD/V4X/9GgHYAbW9PFeC19AA5RIoEIBnt0GRUhe+AeEosI/1uFvMZzX08lnwzuQqTQAzFBXP28xlq8A+XqPFcmiYhGe2QZ+ZVIp/BX+zQ3/ovV4T+9yvhzegQTRADALq/s5E8u/A22uaxGJo2IRntkOvk+8w7/Gmgr/WIf/bgtv6V3Bt8M7kFo0AMzS6j5OA24AOlzXIhJHxeLYjYH+1LfUUvhXrTnpOGBNhf9EDSPAP/as4HvhHUgYDQBNsOpO/trz+D6w0HUtInFULMKzO8Avjv9CXMJf2/41xTj8Bwy8fu0KfhbegdSjAaBJ1tzJCuvxY2Av17WIxFGxCM9th6IN/rrCv/aaCv+JGrZhOa1nJbeFdyCN0ADQRGv6WW4tPwT2d12LSBwVi/DcDihOuRyg8K+9psJ/oobHDbxq7QruCu9AGqUBoMkuuIPDczl+CLzQdS0icTR1CFD4115T4T9Rw32FHKdduoyHwzuQ6dDr2JvskhN4yLTzl6DPnhYJksvBnuNvFhR5+BMcigr/GIe/z3+P5DlF4d98GgBaYO2xPNfRwSuAr7muRSSOch7suWj8HQOj/M6/8usK/8lr1FizqqYowx++0jGfV15xPNvCO5CZqPPXQmbFYtb08XFr+Ff0ey1SpejDtu0VbxbUyvDXd/6BYhr+1lg+ubaTT2Am/ZZIEymUItDVx/9nYD3Q7roWkbgpFmHbDvBB4T+1hmyG/25reXfvCr4eXr3MlgaAiKzp52+t5TvAHq5rEYmbYhG27xjbCVD4Zzr8nzOW09eu4Bfh1UszaACI0IUbeZHv80NgqetaROKmWIRtO8vvGNiUG/4qf6Lwn7xGjTWraoou/B+yhtN6l/P78OqlWXQTYIQuXsb9vs9JwO2uaxGJm1wOFi8Ez1P4B9WT6vD3uK3YxokK/2hpAIjYupU83rGTv7LQ47oWkbjJ52CPRWNDAMxi27/y6wr/yWvUWLOqpojCH4/1HXM59ZLjeDK8emk2XQJwaHU/b8VyLTDPdS0icVL0YcfOilcH6Jr/ZOkI/2EP/mXtCr4UXrm0igYAx1bdyUs8jxuBw13XIhInRR927Br7ACGF/+Q1Ex/+hi2ez5vWrmRDeOXSSroE4Ni6ldztFVkB/MR1LSJxkvNg0QLwcmPHda/5K/wDxS38Lfx4dDfHK/zd0w5AXFjMmn66LFyEBjORCRM7AT61w7/yJwr/yWvUWLOqptaHvyVH77zj+Wi3YcrHQYkLGgBiZlU/r/YsX0fvFyAyoejDjoGxIUDb/jVqDViz6thR+FvYYSzv6F3JjeFVS5Q0AMTQqrs4yhS50cCLXdciEhdFH3buCr4xUOFfvWbVsavwN/zBGE7XS/ziR1vNMbTueB6Y18FJGN0dK1KS82DhgvGXCCr8a4pT+BuP62wbnQr/eNIOQMx19XO6sawH9nZdi0gcFH3YNVBxT4DCf/IaNdasqqm14b/N+rx/3Ql8M7xicUkDQAKsupMDjOHLxvAK17WIxEHRh12D5ZcIKvzjE/7W57/b2znrMy/h0fCKxTUNAElhMav7+RBj7yA4x3U5Iq4VfRgYHPtR4R9wHH34jxqfiztW8And5Z8MGgAS5qMbeHHR8B/AX7iuRcS1iZ2Aqa8OQOEfWFPrwv/3dpS3rjuJjeHVSpzoJsCEuWgF/7N7NycY+ByT/1sjkjk5DxbMG/uxksI/oKYWhb+Ff/fbWKHwTx7tACTY6n7+ActXgANc1yLiUtGHgYGxlwgq/ANqak34P0WOd/cu46bwSiWutAOQYD3L+UkOlhmjf4CSbTkPFswvf4pgicK/xjlnG/6WG/NF/kLhn2zaAUiJNX2cYeEqYB/XtYi44o/fE2Ctwr/mOWcX/o9bw4fWdXJDeJWSBBoAUuSCe9gvX+ASa3mb61pEXPF9GBgaf8dAhX+zwt8ayzd2F/jw5SfzbHiVkhQaAFKoawNvMoYr0b0BklGlnYAqCv9JX28w/P9oc5y9bhm/DK9Qkkb3AKRQ7wq+DbzAjL1SoOi6HpGoeeOvDpgUgAr/SV9vIPwL1qN33i6OU/ink3YAUm5VH8s8WA8sd12LSNT8IgwMl8NR4U9D4Q/cbfK8p3cZfeHVSZJpByDl1nWy8Tk4ycAaIGhTVCS1vBzM7wDPKPwbDP8BDB/ZvJlOhX/6aQcgQz52NwcXi1ysmwQla3wfBkfA+ij8g0u1xvCd3QVWXXESm8Mrk7TQAJBBXX2cCnzOwItd1yISFd+HweGxlwgCCv/yufqtz3nrTuDX4VVJ2ugSQAb1dnLLvJ0cD5wLbHddj0gUPA/mzR0PRoU/Fh7zLe+b18lKhX82aQcg4z56O/sXcnzSGN4F5FzXI9JqpZ2ACVkLf8OwsVzuz+EzlxzHQHhFkmYaAASAC/t4gQ+fBM5wXYtIq/k+DI1UvFPglK+nNfw9ww9H4UOXr2BTeDWSBRoAZJI1G3iZNVwCHOe6FpFWKg0Bk5KelIa/5W48zrtkBb8Ir0SyRAOAVDnjenKHH8lZnuXjFg5zXY9Iq1g7vhPgjx2nLfwNbC7CJxat4GvdBj+8EskaDQBSU/d9tA8P83Zr+QR6W2FJKWthaPyegLSEv4FnLFy6YIDLu0+l8o4HkQkaAKSuC+5hfn6UD9ixNxPaw3U9Is02sRNQGfhJDH+PncA1C4p8uvtEdoRXIFmnAUAa1nUrC725vF+DgKRRaQgYOxj7ITHh77OLHFcXR1mrT+uTRmkAkGmrGARWA3u6rkekWSovByQh/I3HTlvk2qLPxQp+mS4NADJj597FHu0+HzaWDwF7ua5HpBmsD8OjTLkhIOiBDsPf8CyWKwuDXHHFqWyr05JIIA0AMmvdtzB3aAFnYvgocLTrekRmy1oYLl0OiFH4e4YnjGG98bi0p1Pv4imzowFAmqbb4g1t5DRgDZaTXdcjMhvWh5HRqrcJcBL+Bv5kPL4wvAdXXXkUI4g0gQYAaYnVff9/e/cXIlUZh3H8+3tXB3W1VmULRMlUyhQSFd1tW4qItS4su2i7CLwowoguKgpRvJmrAtvSgm7sosCLSiMohTCLkDTd/JfBWMYqhP3Tjdx03T9n55xfF6O01bjr6s6e2Z3nA8MyzM2zMMz7zDvn/F4agReBh9GZEzJKuUNv1G9xHuHFPxh7Emfza8v5GPt/FxG5HioAUlLrDjIH4zmHp4BJaecRGSp3iPoKkwNHaPGPEmdnldHSUsf+4fgfRIpRAZARsf4ItUnCM8CzwE1p5xEZCneI8pcmBpZu8T9rsCUE3np1Ob8PV3aRK1EBkBGVzZHp6WaVG2tw7kfvQRkl3KEv/5+dgCsYyuJvxtFgvJ3P8+6mBrqHM7PIQPThK6lZe5DbMZ6wws8D09POIzKYyyXAB/g1/ioX//MJfBgyvPn6Eo6VJKzIIFQAJHUvHaN6XJ5mnCcdGtH7UspcFBW5O4BBF3/H2EfCO+ECH7Q8wMWShhQZhD5opaxs+IZZceBxh6eBW9POI1JMsZ2AKy3+7vxmxntxzJY3GjkxokFFBqACIGXp0kyBJnNWOzwCVKedSaQ/B/r6CiWgyNjgToMdibO1pp5dOopXypEKgJS97JdM6L6BJpzVwCogk3YmESiUgPw/OwGxw1fB2Douz/aNjVxIN53IwFQAZFRZ38r0JPAoxmPAvUBV2pmkouUTZ08+4qOLEdu23McfaQcSuVoqADJqvfA10zLjWWlGs8MKtDMgIyN2OGCwvSrP+y/XcybtQCLXQgVAxoTnj1KTyfOQBVbhrACmpJ1JxpTzwC6MT3B26CAeGQtUAGTMad5G1Zw53OWw0gpnEdyRdiYZlU6587kFdk6cwK7sQqK0A4kMJxUAGfPWH2J+bDyI02SF6wZ0R4EU0wnsAXaHmE9fqePHtAOJlJIKgFSUbI5MTxcNGCvcacJYjC4krFQxxhGDz+KY3dXV7Ne3fKkkKgBS0bI5Jvd0UQ80euBunHvQxYRjVQx8a7AP2Nsb8cWmBv5MO5RIWlQARPrJ5pjc000D0OhQR+FxY8qx5Np0AK3mHAD25jPsb1mk8bsil6kAiAwg64Teo8yPnToS6s2oAxYA49POJv/SB+QwWg0OJNC6cQk/YEVH9osIKgAiQ7bmEOOnJtyGsdSMpQksNVgETE47W4XoBE6Ycdydw8DhKOKwjtIVGRoVAJFhsvYIM0LMAjcWurMAY6HBnWgmwbXqBU4COXOOY+Q84fjEZXyv2foi108FQKSUHNtwkJl9gXkB5iYwz4x5OHOBuagcnAdOAW1Am8FJnLYkpm1jHb9oC1+kdFQARFK07jumesTMxLglOLNwZlpglifMcONmg1oKj5B21iFKgHaHdnPOWOBXTzhtxunY+Dk4P/VWcXrzYjrSDipSqVQARMpc8zaqZs+mNgRqzahNEqYFo8ahxowaTy79hUkYU3AmABMpDDzKULiLoX+BuPx6f91AT7/nCfAXEAEXDbrc6MW5YNDlTocFOtzpcOdcgA4C59xpTxLaq5dxVtv0IuXtb7YQ2noBTLkDAAAAAElFTkSuQmCC;" vertex="1" parent="1">
          <mxGeometry x="-186" y="1177.5" width="22" height="22" as="geometry" />
        </mxCell>
      </root>
    </mxGraphModel>
  </diagram>
</mxfile>
